<svg width="390" height="300" viewBox="0 0 390 300" fill="none" xmlns="http://www.w3.org/2000/svg">
<path d="M306.425 258.008C298.566 266.109 291.534 270.871 286.151 274.466C233.643 309.526 173.62 299.421 155.063 295.967C125.123 290.394 99.8496 286.463 78.135 266.845C28.7931 222.267 31.193 129.273 68.8963 71.667C73.3667 64.8366 111.013 9.03341 171.165 1.1703C172.636 0.977978 173.734 0.868478 174.696 0.766692C184.001 -0.218487 241.665 -5.41834 288.684 33.9741C295.414 39.613 306.245 49.7839 316.29 65.2965C353.016 122.017 353.132 209.865 306.425 258.008Z" fill="url(#paint0_linear_287_4945)"/>
<g opacity="0.64">
<path d="M44.6456 71.6985C44.2858 71.6377 43.9937 71.3466 43.9487 70.9663C43.8947 70.512 43.847 70.0562 43.8061 69.5993C43.7648 69.1353 44.1076 68.7257 44.5719 68.6843C45.0335 68.6419 45.4451 68.9856 45.4871 69.4499C45.5261 69.8901 45.5719 70.3292 45.6241 70.7668C45.6794 71.2294 45.3489 71.6493 44.886 71.7043C44.804 71.714 44.7233 71.7116 44.6456 71.6985Z" fill="#91B3FA"/>
<path d="M44.3204 65.8847C43.9194 65.817 43.6155 65.4669 43.6182 65.0472C43.6244 64.1153 43.6584 63.1719 43.7198 62.2435C43.7505 61.7786 44.1524 61.4267 44.6172 61.4573C45.0851 61.487 45.4345 61.8901 45.4034 62.3548C45.3443 63.25 45.3114 64.1596 45.3054 65.0583C45.3023 65.5241 44.9221 65.8994 44.4564 65.8963C44.41 65.8961 44.3645 65.8922 44.3204 65.8847ZM44.9277 58.6835C44.4707 58.6063 44.161 58.1748 44.2353 57.7167L44.2851 57.4153C44.4224 56.602 44.5839 55.7768 44.7643 54.9629C44.8654 54.5081 45.309 54.2167 45.7708 54.3222C46.2256 54.4233 46.5125 54.8737 46.4117 55.3286C46.237 56.1146 46.0814 56.9112 45.9489 57.6963L45.9009 57.9866C45.8262 58.4466 45.3931 58.759 44.9331 58.6846C44.9312 58.6841 44.9293 58.6838 44.9277 58.6835ZM46.6235 51.66C46.5836 51.6533 46.5434 51.6436 46.5035 51.6306C46.0602 51.4872 45.8169 51.0116 45.9602 50.5683C46.2471 49.6806 46.5635 48.7918 46.9005 47.9267C47.0697 47.4923 47.5593 47.2785 47.9928 47.4467C48.4272 47.6159 48.6421 48.1048 48.4728 48.539C48.1479 49.3736 47.8426 50.231 47.5658 51.0873C47.4356 51.4908 47.0298 51.7286 46.6235 51.66ZM49.3669 44.977C49.2854 44.9633 49.2049 44.9373 49.1273 44.8983C48.7111 44.6885 48.5441 44.1812 48.7538 43.7651C49.1718 42.9358 49.6213 42.1061 50.0894 41.2994C50.3236 40.8959 50.8401 40.7601 51.2424 40.9929C51.6453 41.2269 51.7825 41.7431 51.5487 42.146C51.0972 42.9244 50.6636 43.7246 50.2605 44.5247C50.0897 44.8632 49.7221 45.037 49.3669 44.977ZM53.1079 38.7966C52.9855 38.7759 52.8653 38.7275 52.7574 38.6501C52.3787 38.3786 52.2919 37.8517 52.5633 37.473C53.1062 36.716 53.6792 35.9648 54.266 35.2402C54.5598 34.878 55.0903 34.8222 55.4528 35.1158C55.8147 35.409 55.8704 35.9403 55.5773 36.3024C55.0108 37.0014 54.4583 37.7261 53.9346 38.4562C53.7407 38.727 53.4156 38.8485 53.1079 38.7966ZM57.7622 33.2645C57.5978 33.2367 57.4399 33.1601 57.3121 33.0344C56.9795 32.708 56.9751 32.1737 57.3016 31.8415C57.9554 31.176 58.6365 30.5224 59.3264 29.8985C59.6716 29.5859 60.2045 29.6122 60.5178 29.958C60.8305 30.3036 60.8036 30.8371 60.458 31.1496C59.7929 31.7515 59.1357 32.382 58.505 33.0239C58.3044 33.2285 58.0248 33.3087 57.7622 33.2645ZM63.2095 28.5135C63.0028 28.4786 62.8088 28.3672 62.6735 28.1859C62.3951 27.8124 62.4722 27.2838 62.8457 27.0053C63.5928 26.4483 64.3657 25.9066 65.1428 25.3955C65.5322 25.1392 66.0548 25.2475 66.3113 25.6364C66.567 26.0257 66.4593 26.549 66.0699 26.8048C65.3205 27.298 64.5749 27.8205 63.8539 28.3579C63.6621 28.5013 63.4285 28.5505 63.2095 28.5135ZM69.3175 24.651C69.0676 24.6088 68.8395 24.4552 68.7118 24.2141C68.4935 23.8025 68.6505 23.2919 69.0621 23.0736C69.8849 22.6377 70.7308 22.2203 71.5757 21.8335C71.9988 21.6396 72.5002 21.8256 72.694 22.2495C72.8878 22.6733 72.7017 23.174 72.2779 23.3678C71.4623 23.741 70.6464 24.1436 69.8524 24.5646C69.6818 24.6549 69.4943 24.6808 69.3175 24.651ZM75.9411 21.7658C75.6469 21.7162 75.3884 21.5118 75.2838 21.2101C75.1313 20.7699 75.3641 20.2892 75.8042 20.1366C76.6825 19.8317 77.5818 19.5491 78.4768 19.2959C78.9254 19.1687 79.3914 19.43 79.5182 19.8781C79.6451 20.3265 79.3842 20.7928 78.936 20.9196C78.0723 21.1637 77.2047 21.4367 76.3573 21.7305C76.2189 21.7787 76.0762 21.7886 75.9411 21.7658ZM119.704 28.7356C119.574 28.7137 119.447 28.6609 119.334 28.5756C118.62 28.0327 117.879 27.5036 117.133 27.003C116.746 26.7435 116.642 26.2194 116.902 25.8324C117.161 25.4452 117.685 25.342 118.072 25.6015C118.846 26.1205 119.614 26.6691 120.355 27.2318C120.726 27.5136 120.799 28.0431 120.517 28.4141C120.32 28.6729 120.003 28.7862 119.704 28.7356ZM82.9255 19.9299C82.5853 19.8725 82.3014 19.6081 82.236 19.2487C82.1527 18.7903 82.4567 18.3511 82.915 18.2677C83.8301 18.1013 84.7616 17.9603 85.6835 17.8485C86.1442 17.7917 86.5664 18.1217 86.6227 18.5844C86.6786 19.0468 86.3492 19.4674 85.8866 19.5235C84.9977 19.6315 84.0994 19.7675 83.2168 19.9279C83.1176 19.9461 83.0193 19.9457 82.9255 19.9299ZM113.628 24.8229C113.539 24.8079 113.452 24.7784 113.368 24.7334C112.577 24.3068 111.764 23.8986 110.95 23.5199C110.527 23.3233 110.344 22.8215 110.541 22.3992C110.737 21.9771 111.237 21.7933 111.662 21.9901C112.506 22.3827 113.349 22.8061 114.169 23.2483C114.579 23.4697 114.732 23.9813 114.511 24.3914C114.335 24.7178 113.975 24.8814 113.628 24.8229ZM90.1068 19.1924C89.7165 19.1265 89.4151 18.7919 89.4048 18.3815C89.3933 17.9156 89.7617 17.5286 90.2275 17.5171C91.1592 17.4941 92.1026 17.4986 93.0316 17.5306C93.4953 17.5454 93.8617 17.9371 93.8456 18.4028C93.8298 18.8685 93.4391 19.2328 92.9736 19.217C92.0777 19.186 91.1678 19.1816 90.269 19.2039C90.2137 19.2052 90.1595 19.2013 90.1068 19.1924ZM107.022 21.8945C106.974 21.8864 106.927 21.8743 106.88 21.8576C106.033 21.5581 105.166 21.2796 104.303 21.0296C103.856 20.9002 103.598 20.4323 103.728 19.9849C103.857 19.5373 104.325 19.2791 104.773 19.4091C105.667 19.6678 106.566 19.9565 107.443 20.2669C107.882 20.4222 108.112 20.9044 107.957 21.3435C107.818 21.7359 107.419 21.9614 107.022 21.8945ZM97.3218 19.5726C96.877 19.4975 96.5672 19.0829 96.6265 18.6315C96.6867 18.1695 97.1104 17.8439 97.572 17.9044C98.4912 18.0242 99.42 18.1731 100.341 18.348C100.798 18.435 101.099 18.8766 101.012 19.3344C100.925 19.7923 100.468 20.0989 100.026 20.0059C99.1365 19.8368 98.2406 19.6934 97.3538 19.5775C97.343 19.576 97.3326 19.5744 97.3218 19.5726Z" fill="#91B3FA"/>
<path d="M124.136 32.5641C123.972 32.5363 123.815 32.4601 123.687 32.335C123.372 32.0265 123.052 31.7221 122.727 31.4223C122.385 31.1062 122.364 30.5724 122.68 30.2302C122.997 29.888 123.53 29.8671 123.872 30.1828C124.209 30.4939 124.54 30.8095 124.867 31.1298C125.2 31.4559 125.206 31.99 124.88 32.3228C124.679 32.5278 124.399 32.6084 124.136 32.5641Z" fill="#91B3FA"/>
</g>
<g opacity="0.64">
<path d="M138.28 65.9299C137.883 65.8628 137.579 65.518 137.578 65.1014C137.576 64.659 137.568 64.2174 137.553 63.777C137.538 63.3111 137.903 62.9212 138.369 62.9058C138.832 62.8916 139.224 63.2554 139.24 63.7212C139.255 64.178 139.263 64.6359 139.265 65.0948C139.267 65.5607 138.891 65.9399 138.425 65.9418C138.376 65.9419 138.327 65.9379 138.28 65.9299Z" fill="#91B3FA"/>
<path d="M82.6708 112.329C82.6655 112.329 82.6604 112.328 82.6552 112.327C81.8525 112.176 81.0433 112.002 80.2497 111.811L79.9579 111.74C79.5055 111.628 79.2295 111.171 79.3416 110.718C79.4537 110.266 79.9192 109.993 80.3633 110.102L80.6446 110.171C81.4109 110.356 82.192 110.523 82.9666 110.668C83.4246 110.754 83.7261 111.195 83.6402 111.653C83.5551 112.106 83.1231 112.406 82.6708 112.329ZM87.0316 112.94C86.6007 112.867 86.2919 112.473 86.3329 112.03C86.3758 111.566 86.7867 111.225 87.2507 111.268C88.1313 111.349 89.0252 111.406 89.9073 111.436C90.372 111.451 90.7378 111.843 90.7213 112.309C90.7055 112.774 90.3148 113.139 89.8492 113.123C88.9348 113.091 88.0083 113.033 87.0953 112.948C87.0739 112.946 87.0527 112.943 87.0316 112.94ZM75.7979 110.499C75.7517 110.491 75.7056 110.479 75.6599 110.464C74.7921 110.161 73.9242 109.83 73.0799 109.48C72.6495 109.302 72.445 108.808 72.6237 108.378C72.8019 107.947 73.2963 107.743 73.726 107.922C74.5403 108.259 75.3779 108.578 76.2149 108.87C76.6549 109.023 76.8872 109.504 76.7341 109.944C76.5967 110.339 76.1962 110.566 75.7979 110.499ZM94.1408 113.055C93.7623 112.991 93.464 112.673 93.4398 112.274C93.4117 111.808 93.7663 111.409 94.2312 111.381C95.1134 111.328 96.0056 111.248 96.8821 111.144C97.3443 111.088 97.7647 111.419 97.8193 111.882C97.8746 112.345 97.544 112.764 97.0812 112.819C96.1723 112.927 95.2475 113.01 94.3325 113.065C94.2672 113.069 94.2029 113.065 94.1408 113.055ZM69.2769 107.657C69.1905 107.642 69.1044 107.614 69.0225 107.57C68.2123 107.141 67.4044 106.682 66.621 106.207C66.2229 105.965 66.096 105.446 66.3377 105.048C66.5793 104.65 67.0969 104.522 67.4968 104.764C68.2519 105.223 69.0308 105.665 69.8122 106.079C70.224 106.297 70.381 106.808 70.1628 107.219C69.9883 107.549 69.6259 107.716 69.2769 107.657ZM101.186 112.088C100.855 112.032 100.577 111.781 100.501 111.434C100.403 110.978 100.693 110.529 101.148 110.431C102.01 110.245 102.879 110.031 103.729 109.795C104.179 109.671 104.644 109.934 104.768 110.383C104.892 110.832 104.629 111.297 104.18 111.421C103.298 111.666 102.398 111.887 101.504 112.08C101.396 112.104 101.289 112.105 101.186 112.088ZM63.2645 103.857C63.1371 103.835 63.0128 103.784 62.9017 103.702C62.1663 103.154 61.4377 102.578 60.7359 101.99C60.379 101.69 60.3325 101.158 60.6318 100.801C60.9317 100.444 61.4642 100.398 61.8204 100.697C62.497 101.264 63.2 101.82 63.9095 102.348C64.283 102.626 64.3606 103.155 64.0822 103.529C63.8865 103.792 63.5671 103.908 63.2645 103.857ZM107.999 110.065C107.714 110.017 107.461 109.823 107.351 109.534C107.185 109.098 107.403 108.611 107.838 108.445C108.665 108.13 109.492 107.786 110.297 107.426C110.722 107.235 111.221 107.425 111.412 107.85C111.602 108.275 111.413 108.774 110.987 108.965C110.154 109.339 109.296 109.695 108.44 110.021C108.294 110.077 108.143 110.089 107.999 110.065ZM114.432 107.039C114.19 106.998 113.968 106.852 113.838 106.622C113.609 106.217 113.751 105.702 114.156 105.472C114.926 105.037 115.693 104.573 116.435 104.095C116.827 103.842 117.349 103.955 117.601 104.347C117.854 104.739 117.741 105.261 117.349 105.513C116.58 106.009 115.786 106.489 114.988 106.941C114.813 107.04 114.617 107.07 114.432 107.039ZM120.339 103.08C120.139 103.046 119.951 102.941 119.816 102.769C119.528 102.402 119.592 101.872 119.959 101.584C120.653 101.039 121.342 100.465 122.005 99.8797C122.354 99.5715 122.887 99.604 123.196 99.9536C123.504 100.303 123.472 100.836 123.122 101.144C122.435 101.752 121.721 102.346 121.001 102.912C120.806 103.064 120.565 103.118 120.339 103.08ZM125.584 98.2774C125.426 98.2507 125.273 98.1785 125.148 98.0606C124.808 97.7416 124.791 97.2078 125.11 96.8681C125.715 96.2238 126.309 95.5527 126.876 94.8731C127.175 94.5154 127.708 94.4686 128.065 94.7663C128.422 95.065 128.47 95.5969 128.172 95.9547C127.583 96.6591 126.967 97.355 126.34 98.0229C126.139 98.2368 125.853 98.3229 125.584 98.2774ZM130.044 92.7359C129.927 92.7162 129.812 92.6712 129.708 92.5996C129.324 92.336 129.226 91.8109 129.489 91.4267C129.99 90.6976 130.476 89.9434 130.934 89.1852C131.175 88.7864 131.695 88.6589 132.092 88.8991C132.491 89.1398 132.619 89.6585 132.378 90.0573C131.903 90.8435 131.4 91.6252 130.881 92.3812C130.689 92.6611 130.358 92.7889 130.044 92.7359ZM133.611 86.5799C133.535 86.567 133.459 86.5433 133.385 86.508C132.965 86.3058 132.789 85.8017 132.991 85.3818C133.374 84.5854 133.739 83.7675 134.076 82.9511C134.253 82.5199 134.746 82.3142 135.177 82.4925C135.608 82.6699 135.813 83.163 135.636 83.5937C135.287 84.4402 134.908 85.2879 134.511 86.1136C134.344 86.4601 133.972 86.6408 133.611 86.5799ZM136.201 79.9589C136.165 79.9529 136.129 79.9443 136.093 79.9334C135.648 79.797 135.397 79.3252 135.534 78.8797C135.793 78.0347 136.031 77.171 136.241 76.3125C136.352 75.8599 136.811 75.579 137.261 75.6941C137.714 75.8051 137.991 76.2619 137.88 76.7144C137.662 77.6034 137.415 78.4983 137.147 79.3736C137.022 79.7834 136.613 80.0283 136.201 79.9589ZM137.77 73.0229C137.318 72.9466 137.008 72.522 137.076 72.0665C137.206 71.193 137.313 70.3034 137.393 69.4228C137.434 68.9587 137.844 68.6165 138.309 68.6585C138.774 68.7026 139.115 69.1107 139.073 69.5747C138.99 70.4877 138.88 71.4099 138.745 72.3156C138.676 72.7764 138.247 73.0943 137.786 73.0256C137.78 73.0247 137.775 73.0238 137.77 73.0229Z" fill="#91B3FA"/>
<path d="M57.8779 99.1683C57.709 99.1398 57.5473 99.0598 57.4181 98.9287C57.0965 98.6023 56.78 98.2719 56.4682 97.937C56.1508 97.5959 56.1701 97.0621 56.5111 96.7447C56.8521 96.4271 57.386 96.4461 57.7037 96.7875C58.0041 97.1105 58.3099 97.4294 58.6201 97.7442C58.9471 98.0761 58.9431 98.6103 58.6112 98.9374C58.4105 99.1351 58.1359 99.2118 57.8779 99.1683Z" fill="#91B3FA"/>
</g>
<path d="M62.1604 86.4114C62.2794 86.6204 62.5179 86.731 62.7542 86.6868L69.4982 85.4235C71.676 87.7739 74.2442 89.7941 77.1407 91.37L77.5785 98.2128C77.5938 98.4529 77.7598 98.6567 77.9916 98.7204L85.9274 100.901C86.1594 100.965 86.4061 100.874 86.542 100.676L90.415 95.0178C93.7102 95.1432 96.9499 94.7194 100.023 93.8118L105.174 98.3438C105.355 98.5026 105.616 98.5295 105.825 98.4105L112.979 94.3411C113.188 94.222 113.299 93.9836 113.254 93.7473L111.991 87.0034C114.341 84.8257 116.362 82.2574 117.937 79.3608L124.78 78.923C125.02 78.9077 125.224 78.7417 125.288 78.5098L127.469 70.5739C127.532 70.342 127.442 70.0952 127.243 69.9594L121.585 66.0864C121.711 62.7912 121.287 59.5514 120.379 56.4785L124.911 51.3269C125.07 51.1464 125.097 50.885 124.978 50.6759L120.908 43.5224C120.79 43.3133 120.551 43.2028 120.315 43.2471L113.571 44.5103C111.393 42.1598 108.825 40.1397 105.928 38.5639L105.49 31.7208C105.475 31.4808 105.309 31.2771 105.077 31.2133L97.1414 29.0325C96.9095 28.9688 96.6627 29.0592 96.5269 29.2577L92.6539 34.9161C89.3589 34.7904 86.119 35.2145 83.0459 36.1221L77.8946 31.59C77.714 31.431 77.4524 31.4043 77.2435 31.5232L70.09 35.5927C69.8809 35.7116 69.7704 35.95 69.8146 36.1865L71.0778 42.9304C68.7274 45.1081 66.7074 47.6765 65.1315 50.573L58.2885 51.0106C58.0486 51.0259 57.8447 51.1919 57.7811 51.4239L55.6003 59.3596C55.5365 59.5916 55.627 59.8384 55.8254 59.9742L61.4837 63.8472C61.3582 67.1423 61.7822 70.3821 62.6897 73.4551L58.1577 78.6067C57.9988 78.7872 57.972 79.0487 58.0909 79.2578L62.1604 86.4114Z" fill="#91B3FA"/>
<path d="M90.1888 72.8371C88.5101 72.5537 86.9728 71.7435 85.773 70.4924C84.2969 68.9533 83.5089 66.9318 83.5536 64.8001C83.5979 62.6683 84.4701 60.6815 86.0088 59.2056C87.5481 57.7297 89.5694 56.9415 91.7011 56.9862C96.1048 57.0789 99.6071 60.7334 99.5153 65.1341C99.4231 69.5349 95.7681 73.0402 91.3676 72.948C90.9689 72.9395 90.5748 72.9023 90.1888 72.8371ZM92.6426 58.4268C92.3264 58.3735 92.0029 58.3424 91.6731 58.3355C89.9017 58.2986 88.222 58.9534 86.9431 60.1798C85.6643 61.4061 84.9398 63.0571 84.9028 64.8283C84.8658 66.5996 85.5208 68.2793 86.7471 69.5579C87.9731 70.8363 89.6229 71.5603 91.3955 71.5983C95.0519 71.6748 98.0889 68.762 98.1657 65.1056C98.235 61.7788 95.8304 58.9649 92.6426 58.4268Z" fill="#BDD0FB"/>
<path d="M88.3319 84.7864C87.6631 84.6735 86.9952 84.5262 86.3273 84.3427C85.3372 84.0705 84.3689 83.7241 83.4361 83.3088C83.4284 83.3053 83.4206 83.3018 83.4132 83.2984C83.3722 83.2801 83.3315 83.2619 83.2909 83.2433C83.285 83.2407 83.2794 83.2381 83.2738 83.2356C83.2738 83.2356 83.2738 83.2356 83.2735 83.2356C83.2682 83.2331 83.2633 83.2309 83.2581 83.2283C83.2385 83.2196 83.2186 83.2105 83.199 83.2016C83.1962 83.2002 83.1931 83.1988 83.19 83.1974C83.1823 83.1937 83.1746 83.1901 83.1668 83.1866C83.1643 83.1853 83.1615 83.1842 83.1591 83.1829C83.0998 83.1555 83.041 83.1279 82.9823 83.0999C82.9615 83.09 82.9408 83.0802 82.9201 83.0702C82.7928 83.0092 82.6662 82.9468 82.5406 82.8833C82.4683 82.8467 82.3963 82.8098 82.3244 82.7723C82.1917 82.7031 82.1241 82.5575 82.1477 82.4174C82.1535 82.3833 82.1646 82.3496 82.1814 82.3173C82.2674 82.1523 82.4708 82.0879 82.6367 82.174C83.8609 82.812 85.163 83.3228 86.5063 83.6919C91.5341 85.0744 96.7997 84.4145 101.331 81.8363C105.864 79.2579 109.121 75.069 110.502 70.0411C110.68 69.3948 110.823 68.7471 110.932 68.1002C112.576 58.3523 106.585 48.7196 96.8518 46.045C91.8235 44.6639 86.5587 45.3226 82.0268 47.9006C77.4944 50.479 74.2373 54.6678 72.8558 59.6958C72.6799 60.3358 72.5371 60.9818 72.4276 61.6322C71.9528 64.4495 72.0991 67.3397 72.8671 70.0943C72.8809 70.1437 72.8828 70.1938 72.8747 70.2411C72.8536 70.3661 72.7627 70.4736 72.6325 70.51C72.4532 70.5603 72.2665 70.4548 72.2169 70.2756C71.4224 67.4252 71.2707 64.4349 71.7621 61.5202C71.8752 60.8477 72.023 60.1789 72.2048 59.5172C73.6344 54.3154 77.0038 49.9816 81.6929 47.3141C86.382 44.6465 91.831 43.9655 97.0305 45.3941C107.1 48.1614 113.298 58.1271 111.598 68.2119C111.485 68.8814 111.337 69.5514 111.153 70.2199C108.386 80.2902 98.4175 86.4889 88.3319 84.7864Z" fill="#BDD0FB"/>
<g opacity="0.64">
<path d="M132.333 51.4989C132.117 51.4625 131.942 51.2879 131.915 51.0599C131.882 50.7876 131.854 50.5143 131.829 50.2404C131.804 49.9622 132.01 49.7166 132.288 49.6918C132.565 49.6664 132.812 49.8725 132.837 50.1508C132.86 50.4147 132.888 50.678 132.919 50.9403C132.952 51.2177 132.754 51.4694 132.477 51.5024C132.427 51.5082 132.379 51.5067 132.333 51.4989Z" fill="#91B3FA"/>
<path d="M132.137 48.0136C131.896 47.973 131.714 47.7632 131.716 47.5115C131.72 46.9529 131.74 46.3872 131.777 45.8306C131.795 45.5519 132.036 45.3409 132.315 45.3592C132.595 45.377 132.805 45.6186 132.786 45.8974C132.751 46.4341 132.731 46.9795 132.727 47.5182C132.726 47.7975 132.498 48.0225 132.218 48.0207C132.19 48.0206 132.163 48.0181 132.137 48.0136ZM132.501 43.6964C132.227 43.6502 132.041 43.3914 132.086 43.1167L132.116 42.936C132.198 42.4484 132.295 41.9537 132.403 41.4657C132.464 41.193 132.73 41.0182 133.006 41.0816C133.279 41.1421 133.451 41.4122 133.391 41.6849C133.286 42.1561 133.193 42.6336 133.113 43.1043L133.084 43.2784C133.039 43.5542 132.78 43.7415 132.504 43.6968C132.503 43.6967 132.502 43.6965 132.501 43.6964ZM133.518 39.4857C133.494 39.4816 133.47 39.4757 133.446 39.468C133.18 39.3821 133.034 39.097 133.12 38.8311C133.292 38.299 133.482 37.7661 133.684 37.2475C133.785 36.9871 134.079 36.859 134.338 36.9597C134.599 37.0611 134.728 37.3543 134.626 37.6145C134.431 38.1149 134.248 38.629 134.082 39.1423C134.004 39.3841 133.761 39.5267 133.518 39.4857ZM135.162 35.479C135.113 35.4707 135.065 35.4552 135.019 35.4317C134.769 35.3059 134.669 35.0019 134.795 34.7523C135.045 34.2552 135.315 33.7577 135.595 33.2741C135.736 33.0321 136.046 32.9507 136.287 33.0903C136.528 33.2306 136.611 33.5401 136.47 33.7816C136.2 34.2482 135.94 34.728 135.698 35.2077C135.596 35.4107 135.375 35.515 135.162 35.479ZM137.405 31.7736C137.332 31.7612 137.26 31.7323 137.195 31.6859C136.968 31.5231 136.916 31.2072 137.079 30.9801C137.404 30.5263 137.748 30.076 138.1 29.6415C138.276 29.4243 138.594 29.3909 138.811 29.5669C139.028 29.7427 139.061 30.0612 138.886 30.2783C138.546 30.6974 138.215 31.1319 137.901 31.5696C137.785 31.732 137.59 31.8048 137.405 31.7736ZM140.196 28.457C140.097 28.4404 140.002 28.3945 139.926 28.3191C139.726 28.1234 139.724 27.8031 139.919 27.604C140.311 27.205 140.72 26.813 141.133 26.4391C141.34 26.2517 141.66 26.2675 141.848 26.4748C142.035 26.682 142.019 27.0018 141.812 27.1891C141.413 27.55 141.019 27.928 140.641 28.3128C140.521 28.4354 140.353 28.4836 140.196 28.457ZM143.461 25.6087C143.337 25.5878 143.221 25.521 143.14 25.4123C142.973 25.1884 143.019 24.8715 143.243 24.7046C143.691 24.3706 144.154 24.046 144.62 23.7394C144.854 23.5858 145.167 23.6507 145.321 23.884C145.474 24.1173 145.41 24.431 145.176 24.5845C144.727 24.8801 144.28 25.1933 143.848 25.5155C143.733 25.6015 143.593 25.6308 143.461 25.6087ZM147.123 23.2931C146.973 23.2678 146.837 23.1756 146.76 23.0311C146.629 22.7842 146.723 22.4782 146.97 22.3473C147.463 22.086 147.97 21.8357 148.477 21.6038C148.731 21.4876 149.031 21.5991 149.148 21.8533C149.264 22.1073 149.152 22.4075 148.898 22.5237C148.409 22.7474 147.92 22.9888 147.444 23.2412C147.342 23.2953 147.229 23.311 147.123 23.2931ZM151.094 21.5632C150.918 21.5335 150.763 21.4109 150.7 21.2301C150.609 20.9662 150.748 20.678 151.012 20.5865C151.539 20.4038 152.078 20.2343 152.614 20.0825C152.883 20.0063 153.163 20.1629 153.239 20.4316C153.315 20.7004 153.158 20.98 152.89 21.0559C152.372 21.2024 151.852 21.366 151.344 21.5421C151.261 21.5711 151.175 21.5768 151.094 21.5632ZM177.331 25.7419C177.253 25.7287 177.177 25.697 177.109 25.6459C176.681 25.3204 176.237 25.0033 175.789 24.7032C175.558 24.5476 175.495 24.2333 175.651 24.0014C175.807 23.7693 176.121 23.7074 176.353 23.863C176.817 24.1741 177.277 24.503 177.721 24.8403C177.944 25.0093 177.987 25.3266 177.818 25.5491C177.7 25.7042 177.511 25.7722 177.331 25.7419ZM155.281 20.4627C155.077 20.4283 154.907 20.2698 154.868 20.0542C154.818 19.7794 155 19.5162 155.275 19.4661C155.824 19.3664 156.382 19.2818 156.935 19.2149C157.211 19.1808 157.464 19.3787 157.498 19.6561C157.531 19.9334 157.334 20.1855 157.057 20.2191C156.524 20.2838 155.985 20.3654 155.456 20.4616C155.397 20.4723 155.338 20.4721 155.281 20.4627ZM173.689 23.396C173.635 23.387 173.583 23.3693 173.533 23.3423C173.058 23.0866 172.571 22.8419 172.083 22.6148C171.83 22.497 171.72 22.1961 171.838 21.943C171.955 21.6899 172.255 21.5797 172.51 21.6977C173.016 21.9331 173.521 22.1869 174.013 22.4521C174.259 22.5847 174.351 22.8915 174.218 23.1374C174.112 23.333 173.896 23.4312 173.689 23.396ZM159.587 20.0205C159.353 19.981 159.172 19.7804 159.166 19.5343C159.159 19.255 159.38 19.023 159.659 19.0161C160.218 19.0023 160.783 19.005 161.34 19.0242C161.618 19.0331 161.838 19.2679 161.828 19.547C161.819 19.8262 161.585 20.0447 161.306 20.0352C160.768 20.0166 160.223 20.0139 159.684 20.0273C159.651 20.0281 159.619 20.0257 159.587 20.0205ZM169.728 21.6404C169.699 21.6356 169.671 21.6283 169.643 21.6183C169.135 21.4387 168.616 21.2718 168.098 21.1219C167.83 21.0442 167.675 20.7638 167.753 20.4956C167.831 20.2273 168.111 20.0725 168.379 20.1505C168.916 20.3056 169.454 20.4786 169.98 20.6646C170.243 20.7577 170.381 21.0468 170.288 21.3102C170.205 21.5453 169.966 21.6806 169.728 21.6404ZM163.912 20.2484C163.646 20.2034 163.46 19.9548 163.496 19.6842C163.532 19.4072 163.786 19.212 164.062 19.2482C164.614 19.3201 165.17 19.4092 165.722 19.5141C165.997 19.5663 166.177 19.8311 166.125 20.1055C166.073 20.38 165.799 20.5638 165.534 20.508C165.001 20.4066 164.463 20.3207 163.932 20.2512C163.925 20.2504 163.919 20.2495 163.912 20.2484Z" fill="#91B3FA"/>
<path d="M179.989 28.037C179.89 28.0204 179.796 27.9748 179.719 27.8997C179.53 27.7148 179.339 27.5323 179.144 27.3524C178.939 27.1629 178.926 26.8428 179.116 26.6377C179.306 26.4326 179.625 26.42 179.83 26.6094C180.032 26.7958 180.231 26.9851 180.427 27.177C180.627 27.3725 180.63 27.6927 180.434 27.8923C180.314 28.0152 180.146 28.0636 179.989 28.037Z" fill="#91B3FA"/>
</g>
<g opacity="0.64">
<path d="M188.467 48.0402C188.229 48.0001 188.047 47.7933 188.046 47.5435C188.045 47.2782 188.04 47.0136 188.032 46.7495C188.022 46.4703 188.241 46.2365 188.52 46.2272C188.798 46.2186 189.033 46.4367 189.043 46.716C189.052 46.9899 189.057 47.2644 189.058 47.5396C189.059 47.8189 188.833 48.0461 188.554 48.0473C188.524 48.0474 188.495 48.0451 188.467 48.0402Z" fill="#91B3FA"/>
<path d="M155.127 75.858C155.124 75.8575 155.121 75.8569 155.118 75.8563C154.637 75.7659 154.151 75.6619 153.676 75.5473L153.501 75.5045C153.23 75.4375 153.064 75.1631 153.131 74.8919C153.199 74.6208 153.478 74.457 153.744 74.5226L153.912 74.5636C154.372 74.6743 154.84 74.7746 155.305 74.8619C155.579 74.9134 155.76 75.1779 155.708 75.4525C155.657 75.7241 155.398 75.9037 155.127 75.858ZM157.741 76.2239C157.483 76.1803 157.298 75.9439 157.323 75.6788C157.348 75.4006 157.595 75.1959 157.873 75.2216C158.401 75.2704 158.937 75.3044 159.465 75.3226C159.744 75.3316 159.963 75.5664 159.953 75.8455C159.944 76.1247 159.71 76.3431 159.431 76.3336C158.882 76.3146 158.327 76.2795 157.78 76.2289C157.767 76.2276 157.754 76.226 157.741 76.2239ZM151.007 74.7606C150.979 74.7559 150.951 74.7489 150.924 74.7393C150.404 74.5581 149.883 74.3598 149.377 74.1499C149.119 74.0429 148.997 73.747 149.104 73.489C149.21 73.2309 149.507 73.1082 149.764 73.2155C150.253 73.4179 150.755 73.6093 151.257 73.7841C151.52 73.8761 151.66 74.1644 151.568 74.4282C151.486 74.6644 151.246 74.8009 151.007 74.7606ZM162.004 76.2929C161.777 76.2545 161.598 76.0641 161.584 75.8246C161.567 75.5457 161.779 75.3061 162.058 75.2893C162.587 75.2575 163.122 75.2096 163.647 75.1471C163.924 75.1138 164.176 75.3122 164.209 75.5897C164.242 75.8671 164.044 76.1187 163.767 76.1517C163.222 76.2164 162.667 76.2661 162.119 76.299C162.079 76.3014 162.041 76.2992 162.004 76.2929ZM147.097 73.0565C147.045 73.0477 146.994 73.0307 146.945 73.0047C146.459 72.7473 145.975 72.4724 145.505 72.1874C145.266 72.0424 145.19 71.7314 145.335 71.4926C145.48 71.254 145.79 71.1771 146.03 71.3226C146.483 71.5976 146.95 71.8626 147.418 72.1108C147.665 72.2415 147.759 72.5477 147.628 72.7945C147.524 72.9921 147.306 73.0919 147.097 73.0565ZM166.227 75.7131C166.029 75.6797 165.862 75.5293 165.817 75.3211C165.758 75.0481 165.932 74.7789 166.205 74.7199C166.721 74.6083 167.242 74.48 167.752 74.3386C168.022 74.264 168.301 74.4219 168.375 74.6909C168.45 74.96 168.292 75.2388 168.023 75.3134C167.494 75.4601 166.954 75.593 166.418 75.7088C166.353 75.7227 166.289 75.7235 166.227 75.7131ZM143.493 70.7785C143.416 70.7656 143.342 70.7349 143.275 70.6854C142.834 70.3572 142.397 70.0119 141.977 69.659C141.763 69.4796 141.735 69.1605 141.914 68.9465C142.094 68.7324 142.413 68.7048 142.627 68.884C143.032 69.2243 143.454 69.5574 143.879 69.8742C144.103 70.0409 144.15 70.3578 143.983 70.5819C143.865 70.7394 143.674 70.8091 143.493 70.7785ZM170.312 74.5005C170.141 74.4717 169.99 74.3555 169.923 74.1819C169.824 73.9209 169.955 73.6286 170.216 73.529C170.712 73.3401 171.207 73.1344 171.69 72.9181C171.944 72.8037 172.244 72.9175 172.358 73.1725C172.472 73.4274 172.359 73.7266 172.104 73.841C171.604 74.0654 171.09 74.2784 170.576 74.4744C170.489 74.5076 170.398 74.5151 170.312 74.5005ZM174.169 72.686C174.024 72.6615 173.891 72.5744 173.813 72.4364C173.675 72.1934 173.761 71.8847 174.004 71.7471C174.465 71.4859 174.925 71.208 175.37 70.9213C175.604 70.7698 175.918 70.8377 176.069 71.0725C176.22 71.3073 176.153 71.6203 175.918 71.7716C175.456 72.0688 174.98 72.3568 174.502 72.6274C174.397 72.6869 174.28 72.7047 174.169 72.686ZM177.71 70.3126C177.591 70.2925 177.478 70.2292 177.397 70.1262C177.224 69.9064 177.262 69.5885 177.482 69.416C177.899 69.089 178.312 68.7452 178.709 68.3941C178.918 68.2093 179.238 68.2288 179.423 68.4384C179.608 68.6478 179.588 68.9673 179.379 69.1524C178.967 69.5164 178.539 69.8728 178.107 70.2118C177.99 70.3034 177.846 70.3355 177.71 70.3126ZM180.855 67.4335C180.76 67.4174 180.668 67.3742 180.593 67.3034C180.389 67.1121 180.379 66.7921 180.57 66.5884C180.933 66.2022 181.289 65.7999 181.63 65.3924C181.809 65.178 182.128 65.1499 182.342 65.3284C182.556 65.5075 182.585 65.8264 182.406 66.0408C182.053 66.4632 181.684 66.8804 181.308 67.2808C181.187 67.4091 181.016 67.4607 180.855 67.4335ZM183.529 64.1112C183.459 64.0994 183.39 64.0724 183.327 64.0294C183.097 63.8715 183.038 63.5566 183.196 63.3262C183.496 62.8891 183.787 62.437 184.062 61.9824C184.207 61.7433 184.518 61.6668 184.756 61.8108C184.996 61.9551 185.072 62.2661 184.928 62.5052C184.643 62.9765 184.341 63.4453 184.03 63.8985C183.915 64.0663 183.717 64.143 183.529 64.1112ZM185.667 60.4205C185.621 60.4128 185.576 60.3986 185.532 60.3775C185.28 60.2563 185.174 59.954 185.295 59.7024C185.525 59.2249 185.744 58.7345 185.946 58.245C186.052 57.9866 186.348 57.8632 186.606 57.9701C186.864 58.0765 186.987 58.3721 186.881 58.6303C186.672 59.1378 186.445 59.646 186.207 60.141C186.107 60.3486 185.884 60.457 185.667 60.4205ZM187.22 56.451C187.198 56.4474 187.177 56.4422 187.155 56.4357C186.888 56.3539 186.738 56.0711 186.82 55.804C186.975 55.2974 187.118 54.7796 187.244 54.2649C187.31 53.9936 187.585 53.825 187.855 53.8941C188.127 53.9607 188.293 54.2345 188.226 54.5058C188.096 55.0388 187.948 55.5753 187.787 56.1C187.712 56.3458 187.467 56.4927 187.22 56.451ZM188.16 52.2927C187.889 52.2469 187.704 51.9924 187.744 51.7194C187.823 51.1956 187.886 50.6623 187.934 50.1343C187.959 49.8561 188.205 49.651 188.483 49.676C188.763 49.7024 188.967 49.9471 188.941 50.2253C188.892 50.7727 188.826 51.3256 188.745 51.8686C188.704 52.1448 188.446 52.3354 188.17 52.2942C188.167 52.2939 188.164 52.2933 188.16 52.2927Z" fill="#91B3FA"/>
<path d="M140.264 67.9675C140.163 67.9504 140.066 67.9025 139.988 67.824C139.795 67.6283 139.606 67.4302 139.419 67.2294C139.228 67.025 139.24 66.705 139.444 66.5147C139.649 66.3243 139.969 66.3356 140.159 66.5404C140.339 66.734 140.523 66.9252 140.709 67.1139C140.905 67.3129 140.903 67.6331 140.703 67.8292C140.583 67.9477 140.419 67.9937 140.264 67.9675Z" fill="#91B3FA"/>
</g>
<path d="M142.832 60.3198C142.903 60.445 143.046 60.5114 143.188 60.4849L147.231 59.7275C148.537 61.1366 150.076 62.3477 151.813 63.2924L152.075 67.3948C152.084 67.5388 152.184 67.661 152.323 67.6992L157.081 69.0067C157.22 69.0448 157.368 68.9906 157.449 68.8717L159.771 65.4794C161.746 65.5546 163.689 65.3005 165.531 64.7564L168.62 67.4736C168.728 67.5688 168.885 67.5849 169.01 67.5135L173.299 65.0738C173.424 65.0024 173.49 64.8595 173.464 64.7178L172.706 60.6746C174.116 59.369 175.327 57.8292 176.271 56.0926L180.374 55.8302C180.518 55.821 180.64 55.7216 180.678 55.5825L181.986 50.8247C182.024 50.6858 181.97 50.5377 181.851 50.4564L178.458 48.1344C178.534 46.1589 178.28 44.2165 177.735 42.3742L180.453 39.2857C180.548 39.1775 180.564 39.0207 180.493 38.8953L178.053 34.6066C177.982 34.4813 177.839 34.415 177.697 34.4415L173.654 35.1989C172.348 33.7897 170.808 32.5786 169.072 31.6338L168.809 27.5313C168.8 27.3874 168.701 27.2653 168.562 27.2271L163.804 25.9196C163.665 25.8813 163.517 25.9356 163.435 26.0546L161.113 29.4468C159.138 29.3715 157.196 29.6258 155.353 30.1698L152.265 27.4528C152.157 27.3575 152 27.3415 151.874 27.4127L147.586 29.8525C147.46 29.9238 147.394 30.0668 147.421 30.2085L148.178 34.2517C146.769 35.5573 145.558 37.0971 144.613 38.8336L140.51 39.096C140.367 39.1051 140.244 39.2047 140.206 39.3437L138.899 44.1014C138.861 44.2405 138.915 44.3885 139.034 44.4699L142.426 46.7919C142.351 48.7674 142.605 50.7097 143.149 52.5521L140.432 55.6406C140.337 55.7488 140.321 55.9056 140.392 56.0309L142.832 60.3198Z" fill="#91B3FA"/>
<path d="M159.636 52.1815C158.63 52.0115 157.708 51.5259 156.989 50.7758C156.104 49.853 155.632 48.6411 155.658 47.363C155.685 46.0849 156.208 44.8938 157.13 44.0089C158.053 43.124 159.265 42.6515 160.543 42.6783C163.183 42.7338 165.283 44.9249 165.228 47.5632C165.173 50.2016 162.981 52.3031 160.343 52.2479C160.104 52.2429 159.868 52.2205 159.636 52.1815ZM161.107 43.5421C160.918 43.5101 160.724 43.4915 160.526 43.4874C159.464 43.4652 158.457 43.8579 157.69 44.593C156.924 45.3282 156.489 46.318 156.467 47.3799C156.445 48.4418 156.838 49.4488 157.573 50.2154C158.308 50.9818 159.297 51.4159 160.36 51.4387C162.552 51.4845 164.373 49.7383 164.419 47.546C164.46 45.5517 163.019 43.8647 161.107 43.5421Z" fill="#BDD0FB"/>
<path d="M158.522 59.3455C158.121 59.2778 157.721 59.1895 157.32 59.0795C156.727 58.9164 156.146 58.7086 155.587 58.4596C155.582 58.4575 155.578 58.4554 155.573 58.4534C155.549 58.4425 155.524 58.4315 155.5 58.4204C155.496 58.4188 155.493 58.4173 155.489 58.4158H155.489C155.486 58.4143 155.483 58.413 155.48 58.4114C155.468 58.4061 155.456 58.4007 155.445 58.3953C155.443 58.3945 155.441 58.3936 155.439 58.3929C155.435 58.3906 155.43 58.3885 155.425 58.3864C155.424 58.3857 155.422 58.385 155.421 58.3842C155.385 58.3678 155.35 58.3512 155.315 58.3345C155.302 58.3286 155.29 58.3227 155.277 58.3167C155.201 58.2801 155.125 58.2426 155.05 58.2046C155.006 58.1826 154.963 58.1606 154.92 58.1381C154.841 58.0966 154.8 58.0093 154.814 57.9253C154.818 57.9048 154.824 57.8846 154.834 57.8653C154.886 57.7664 155.008 57.7277 155.107 57.7795C155.841 58.162 156.622 58.4682 157.427 58.6895C160.442 59.5184 163.599 59.1227 166.315 57.5771C169.033 56.0312 170.985 53.5199 171.814 50.5055C171.92 50.1181 172.006 49.7297 172.071 49.3419C173.057 43.4977 169.465 37.7227 163.63 36.1192C160.615 35.2911 157.459 35.6861 154.742 37.2317C152.024 38.7775 150.072 41.2888 149.243 44.3032C149.138 44.6869 149.052 45.0742 148.987 45.4641C148.702 47.1531 148.79 48.886 149.25 50.5374C149.258 50.567 149.26 50.5969 149.255 50.6254C149.242 50.7003 149.188 50.7648 149.11 50.7867C149.002 50.8168 148.89 50.7536 148.86 50.6461C148.384 48.9372 148.293 47.1445 148.588 45.397C148.656 44.9938 148.744 44.5929 148.853 44.1961C149.71 41.0775 151.73 38.4793 154.541 36.8801C157.353 35.2807 160.62 34.8724 163.737 35.7289C169.774 37.3879 173.49 43.3626 172.47 49.4088C172.402 49.8102 172.314 50.2119 172.204 50.6127C170.545 56.6499 164.569 60.3661 158.522 59.3455Z" fill="#BDD0FB"/>
<path d="M335.815 241.441C335.815 244.198 333.567 246.453 330.819 246.453H60.6438C57.8959 246.453 55.6476 244.198 55.6476 241.441L53.3994 85.5234C53.3994 82.7666 56.6338 77.3844 62.5614 77.7888L326.607 70.9278C330.055 70.8383 333.388 72.1709 335.83 74.6148C338.271 77.0588 339.607 80.4001 339.526 83.8592L335.815 241.441Z" fill="#37928B"/>
<path d="M330.883 236.632C330.883 239.243 328.756 241.379 326.157 241.379H67.1597C64.56 241.379 62.433 239.243 62.433 236.632L60.3115 95.0888C60.5614 86.5711 67.9976 83.5098 72.5055 83.6905C72.5055 83.6905 278.881 78.1304 325.569 76.8726C327.991 76.8073 330.333 77.7445 332.049 79.463C333.764 81.1813 334.708 83.5331 334.647 85.9658L330.883 236.632Z" fill="url(#paint1_linear_287_4945)"/>
<g opacity="0.58">
<path d="M65.2327 169.022C65.0384 169.022 64.8795 168.878 64.8768 168.698L64.709 157.219C64.7064 157.037 64.8636 156.888 65.0602 156.886C65.2545 156.88 65.4184 157.028 65.4212 157.21L65.589 168.689C65.5915 168.87 65.4344 169.019 65.2378 169.022C65.2361 169.022 65.2344 169.022 65.2327 169.022Z" fill="white"/>
<path d="M64.8212 140.892C64.6268 140.892 64.4679 140.748 64.4652 140.568L63.8223 96.6041C63.8362 93.5403 64.8223 91.127 66.7536 89.4256C69.9586 86.6025 74.7159 86.7519 74.9142 86.7586L155.728 84.5807C155.935 84.5722 156.089 84.718 156.095 84.8992C156.1 85.0805 155.946 85.2318 155.749 85.237L74.9128 87.4149C74.6952 87.4072 70.2337 87.2677 67.2454 89.9005C65.4595 91.4738 64.5474 93.7282 64.5343 96.6013L65.1773 140.56C65.1799 140.741 65.0227 140.89 64.8261 140.892C64.8245 140.892 64.823 140.892 64.8212 140.892Z" fill="white"/>
</g>
<path d="M348.372 259.397H43.6264C43.1841 259.397 42.8223 259.035 42.8223 258.593V246.501C42.8223 246.059 43.1841 245.697 43.6264 245.697H348.372C348.815 245.697 349.177 246.059 349.177 246.501V258.593C349.176 259.035 348.815 259.397 348.372 259.397Z" fill="#37928B"/>
<path d="M86.8574 173.007V261.536C86.8574 268.818 92.6608 274.774 99.9411 274.962C132.276 275.795 245.369 277.817 276.149 277.363C281.44 277.285 285.726 273.052 285.878 267.763C286.472 247.197 287.436 197.741 283.868 174.781C283.117 169.946 279.036 166.33 274.145 166.174C247.052 165.307 127.167 162.555 96.4004 163.246C91.0944 163.365 86.8574 167.699 86.8574 173.007Z" fill="#37928B"/>
<path d="M92.4121 172.576V256.684C92.4121 260.936 95.8254 264.401 100.077 264.465L271.721 266.585C275.936 266.648 279.391 263.257 279.407 259.042L279.694 175.684C279.705 172.67 277.304 170.2 274.291 170.127L98.5589 166.577C95.1885 166.495 92.4121 169.205 92.4121 172.576Z" fill="url(#paint2_linear_287_4945)"/>
<path d="M245.463 193.128C245.357 210.204 245.068 269.108 245.941 289.967C246.034 292.176 247.575 293.928 249.466 293.972C258.817 294.189 293.093 294.582 308.369 293.602C311.551 293.398 314.038 290.343 314.048 286.615C314.097 268.691 314.041 218.282 312.029 195.22C311.788 192.457 309.899 190.282 307.533 190.041C297.337 189.002 262.883 186.607 249.691 187.808C247.312 188.025 245.48 190.335 245.463 193.128Z" fill="#37928B"/>
<path d="M249.711 198.303C249.415 212.089 248.516 257.953 249.274 274.896C249.385 277.373 251.084 279.351 253.202 279.464C261.921 279.93 291.658 280.799 304.415 279.41C306.713 279.16 308.485 276.956 308.569 274.259C309.005 260.191 310.224 217.48 309.489 200.727C309.372 198.054 307.569 195.897 305.288 195.692C295.85 194.843 264.237 192.962 253.391 193.818C251.355 193.979 249.763 195.916 249.711 198.303Z" fill="url(#paint3_linear_287_4945)"/>
<path opacity="0.5" d="M268.526 190.509C268.534 191.033 268.89 191.46 269.337 191.48C271.547 191.583 277.771 191.872 280.553 192.019C281.102 192.048 281.523 191.465 281.41 190.836L281.39 190.729C281.313 190.3 281.003 189.98 280.63 189.946C278.748 189.773 273.071 189.3 269.318 189.513C268.867 189.538 268.519 189.981 268.526 190.509Z" fill="white"/>
<path d="M302.215 111.623C301.878 106.406 298.727 101.784 294.004 99.5408L232.816 70.4802C228.897 68.6191 224.349 68.6191 220.431 70.4802L159.242 99.5408C154.519 101.784 151.368 106.406 151.031 111.623C145.291 200.342 202.176 232.667 220.824 240.833C224.522 242.452 228.724 242.452 232.422 240.833C251.07 232.667 307.955 200.342 302.215 111.623Z" fill="#2E86AB"/>
<path d="M208.114 82.7791C207.769 82.7791 207.437 82.5842 207.279 82.2511C207.06 81.7902 207.256 81.239 207.717 81.0204L222.175 74.154C222.636 73.9342 223.187 74.1309 223.406 74.5922C223.625 75.0531 223.429 75.6043 222.968 75.823L208.51 82.6893C208.382 82.7502 208.247 82.7791 208.114 82.7791Z" fill="#91B3FA"/>
<path d="M155.71 130.664C155.214 130.664 154.804 130.271 154.787 129.771C154.593 124.001 154.695 117.983 155.089 111.886C155.331 108.15 157.591 104.827 160.987 103.214L202.149 83.6649C202.609 83.445 203.161 83.6417 203.38 84.1031C203.599 84.564 203.402 85.1152 202.941 85.3338L161.779 104.883C158.989 106.209 157.132 108.938 156.933 112.005C156.543 118.042 156.442 123.999 156.634 129.709C156.651 130.219 156.252 130.647 155.742 130.664C155.731 130.664 155.72 130.664 155.71 130.664Z" fill="#91B3FA"/>
<path d="M287.42 115.086C287.352 113.763 286.565 112.582 285.368 112.014L228.167 84.8474C227.191 84.3836 226.057 84.3836 225.081 84.8474L167.88 112.014C166.684 112.582 165.896 113.763 165.829 115.086C164.137 148.181 171.781 175.794 188.565 197.195C201.361 213.512 216.33 222.257 225.102 226.336C226.068 226.786 227.18 226.786 228.147 226.336C236.918 222.257 251.887 213.512 264.683 197.195C281.467 175.794 289.111 148.18 287.42 115.086Z" fill="#37928B"/>
<path d="M209.712 150.643H204.011V127.924C204.011 119.001 210.69 111.461 219.549 110.384L231.205 108.968C236.222 108.358 241.269 109.93 245.053 113.281C248.836 116.633 251.006 121.454 251.006 126.508V146.342H245.305V126.508C245.305 123.084 243.835 119.819 241.273 117.549C238.71 115.279 235.29 114.213 231.893 114.627L220.236 116.043C214.236 116.772 209.712 121.88 209.712 127.924V150.643H209.712Z" fill="url(#paint4_linear_287_4945)"/>
<path d="M202.325 145.542L252.299 142.774C254.328 142.661 256.036 144.277 256.036 146.31V185.899C256.036 187.855 254.45 189.441 252.495 189.441H203.722C201.811 189.441 200.244 187.925 200.182 186.015L198.981 149.194C198.919 147.27 200.403 145.649 202.325 145.542Z" fill="url(#paint5_linear_287_4945)"/>
<path d="M235.655 178.1L232.63 169.403C232.266 168.358 232.514 167.189 233.292 166.401C234.842 164.831 235.765 162.641 235.656 160.235C235.463 155.993 231.998 152.554 227.755 152.391C223.059 152.211 219.195 155.964 219.195 160.619C219.195 163.202 220.385 165.506 222.246 167.016C223.211 167.798 223.608 169.085 223.199 170.259L220.472 178.1C219.809 180.006 221.225 181.998 223.243 181.998H232.883C234.902 181.998 236.318 180.006 235.655 178.1Z" fill="#37928B"/>
<path d="M130.666 290.606C130.666 290.606 130.111 293.58 129.825 296.527C129.713 297.678 130.592 298.688 131.748 298.747C135.673 298.948 144.071 299.346 147.087 299.24C147.54 299.224 147.841 298.763 147.677 298.34C147.54 297.986 147.272 297.698 146.928 297.536L133.112 291.026L130.666 290.606Z" fill="#37928B"/>
<path d="M130.251 288.851L130.64 292.419C130.64 292.419 133.06 293.574 134.732 292.315L133.763 288.334L130.251 288.851Z" fill="white"/>
<path d="M131.207 221.858C131.016 222.787 129.784 268.288 134.454 288.729C134.53 289.062 134.358 289.404 134.04 289.53C133.291 289.828 131.825 290.255 130.071 290.297C129.528 290.31 129.045 289.953 128.896 289.431C127.551 284.685 121.114 260.915 120.461 238.259C119.731 212.944 120.469 237.398 120.469 237.398L121.188 221.761L131.207 221.858Z" fill="#37928B"/>
<path d="M114.688 292.008C114.688 292.008 113.836 293.504 112.987 297.493C112.833 298.213 113.331 298.909 114.063 298.988C115.359 299.128 117.354 299.311 118.953 299.315C119.69 299.317 120.272 298.681 120.19 297.948C120.027 296.487 119.498 294.089 117.811 292.207L114.688 292.008Z" fill="#37928B"/>
<path d="M113.996 287.417L114.933 292.816C114.933 292.816 115.903 293.552 117.84 293.043L117.424 287.241L113.996 287.417Z" fill="white"/>
<path d="M111.941 223.071C107.733 247.044 112.238 282.424 113.804 289.355C113.9 289.78 114.239 290.107 114.667 290.182C115.395 290.31 116.594 290.42 117.78 290.088C118.189 289.973 118.479 289.608 118.5 289.184C118.772 283.595 118.705 249.268 122.542 235.738C122.736 235.052 123.162 234.457 123.747 234.049L130.99 229.003L131.621 220.74L111.941 223.071Z" fill="#37928B"/>
<path d="M137.726 177.817C125.805 177.506 112.617 180.708 112.617 180.708C108.865 201.412 111.57 225.359 111.57 225.359C120.777 227.868 131.227 224.066 131.227 224.066C132.844 215.413 140.234 191.088 140.234 191.088C146.067 190.42 150.882 188.785 154.855 186.601C151.874 183.078 150.495 178.618 149.903 175.984C145.675 177.254 141.403 177.913 137.726 177.817Z" fill="#2E86AB"/>
<path d="M173.112 160.591C171.954 159.165 170.465 159.82 170.465 159.82C168.64 167.215 159.383 173.137 149.903 175.984C150.495 178.618 151.874 183.078 154.855 186.601C170.625 177.931 173.112 160.591 173.112 160.591Z" fill="white"/>
<path d="M172.824 160.948C172.943 161.339 171.518 161.918 170.697 160.317C170.676 159.553 170.242 156.277 170.705 155.659C173.167 152.369 177.918 148.26 177.918 148.26C178.707 149.054 178.044 149.819 178.044 149.819L175.735 152.179C176.205 153.047 176.781 153.782 177.045 154.83C177.244 155.623 177.109 156.468 176.703 157.184C176.295 157.903 175.738 158.838 175.214 159.568C174.221 160.951 172.824 160.948 172.824 160.948Z" fill="white"/>
<path d="M174.721 153.714L172.621 155.46L171.95 157.212L173.788 159.29C173.788 159.29 174.446 155.808 174.917 155.057C175.388 154.307 175.151 153.939 174.721 153.714Z" fill="white"/>
<path d="M117.08 192.297L112.617 180.708C112.617 180.708 101.408 188.169 99.4854 197.746C101.588 197.921 105.412 198.504 109.142 200.433C110.009 195.91 117.08 192.297 117.08 192.297Z" fill="#2E86AB"/>
<path d="M126.709 203.253C126.709 203.253 114.138 210.201 109.977 204.126C109.113 202.865 108.915 201.618 109.142 200.433C105.412 198.505 101.588 197.921 99.4856 197.746C98.9058 200.633 99.1683 203.712 100.838 206.837C108.1 220.426 128.334 206.352 128.334 206.352L126.709 203.253Z" fill="white"/>
<path d="M125.741 168.022L121.843 178.957C121.778 179.138 121.851 179.34 122.018 179.435C123.047 180.016 126.757 181.705 131.274 178.901C131.745 178.609 132.068 178.128 132.144 177.58L133.463 168.096L125.741 168.022Z" fill="white"/>
<path d="M134.093 157.941C134.093 157.941 138.185 165.823 137.62 168.985C137.056 172.148 131.895 171.871 127.411 169.256L124.342 160.758L134.093 157.941Z" fill="white"/>
<path d="M127.65 165.099C127.834 165.02 127.904 164.796 127.796 164.627C127.467 164.114 126.851 163.068 126.66 162.156C126.66 162.156 125.916 161.669 128.577 161.059C131.238 160.449 135.207 159.5 136.06 157.248C136.893 155.052 134.814 149.491 131.37 153.874C131.239 154.04 130.986 154.042 130.858 153.872C130.308 153.141 128.856 151.621 126.812 152.515C124.9 153.351 124.672 154.745 124.691 155.448C124.697 155.655 124.51 155.815 124.307 155.774C123.346 155.581 121.037 155.401 119.936 157.761C119.029 159.705 119.596 160.816 120.116 161.362C120.285 161.538 120.208 161.826 119.973 161.895C119.339 162.083 118.516 162.612 118.584 164.095C118.678 166.146 120.971 165.987 121.624 165.9C121.731 165.886 121.839 165.923 121.91 166.004C122.464 166.629 124.959 169.282 127.684 169.624C127.921 169.654 128.106 169.423 128.031 169.197L126.883 165.754C126.829 165.594 126.907 165.42 127.062 165.353L127.65 165.099Z" fill="#37928B"/>
<path d="M128.12 165.591C128.12 165.591 125.173 163.527 124.94 165.239C124.707 166.951 127.587 167.747 129.024 167.122L128.12 165.591Z" fill="white"/>
<path d="M124.141 214.232L130.989 190.317C131.067 190.046 131.298 189.848 131.579 189.815C132.819 189.67 136.415 189.264 140.566 188.913C145.566 188.49 151.372 188.147 154.842 188.439C155.335 188.48 155.633 189.002 155.414 189.446C153.441 193.438 145.325 209.676 141.26 214.995C141.126 215.171 140.917 215.274 140.696 215.272L124.807 215.124C124.345 215.12 124.013 214.677 124.141 214.232Z" fill="#215F79"/>
<path d="M125.795 208.454C125.795 208.454 124.841 204.532 125.226 203.14C125.611 201.748 126.357 199.959 128.842 200.357C131.327 200.754 134.258 201.801 134.258 201.801C134.258 201.801 134.11 203.614 132.221 203.029L133.393 203.935C133.393 203.935 133.225 205.386 131.63 204.611L132.719 205.813C132.719 205.813 132.034 207.005 130.86 206.24C129.687 205.476 129.124 208.926 125.795 208.454Z" fill="white"/>
<path d="M140.108 196.052C140.108 197.162 141.008 198.062 142.119 198.062C143.229 198.062 144.129 197.162 144.129 196.052C144.129 194.942 143.229 194.042 142.119 194.042C141.008 194.042 140.108 194.942 140.108 196.052Z" fill="#91B3FA"/>
<path d="M131.764 197.377L133.158 192.647C133.329 192.067 133.796 191.631 134.376 191.509C138.746 190.597 150.707 190.404 150.828 190.402L150.82 189.868C150.326 189.876 138.687 190.064 134.267 190.986C133.494 191.148 132.872 191.726 132.645 192.496L131.251 197.226L131.764 197.377Z" fill="url(#paint6_linear_287_4945)"/>
<defs>
<linearGradient id="paint0_linear_287_4945" x1="370.345" y1="348.928" x2="157.457" y2="122.306" gradientUnits="userSpaceOnUse">
<stop stop-color="#DAE3FE"/>
<stop offset="1" stop-color="#E9EFFD"/>
</linearGradient>
<linearGradient id="paint1_linear_287_4945" x1="54.1119" y1="267.665" x2="337.221" y2="60.6931" gradientUnits="userSpaceOnUse">
<stop stop-color="#FE7062"/>
<stop offset="1" stop-color="#FF928E"/>
</linearGradient>
<linearGradient id="paint2_linear_287_4945" x1="283.957" y1="281.916" x2="96.2035" y2="156.993" gradientUnits="userSpaceOnUse">
<stop stop-color="#FE7062"/>
<stop offset="1" stop-color="#FF928E"/>
</linearGradient>
<linearGradient id="paint3_linear_287_4945" x1="370.373" y1="338.324" x2="279.453" y2="237.795" gradientUnits="userSpaceOnUse">
<stop stop-color="#FE7062"/>
<stop offset="1" stop-color="#FF928E"/>
</linearGradient>
<linearGradient id="paint4_linear_287_4945" x1="224.824" y1="109.881" x2="230.971" y2="174.632" gradientUnits="userSpaceOnUse">
<stop stop-color="#FE7062"/>
<stop offset="1" stop-color="#FF928E"/>
</linearGradient>
<linearGradient id="paint5_linear_287_4945" x1="223.033" y1="141.834" x2="238.922" y2="217.823" gradientUnits="userSpaceOnUse">
<stop stop-color="#FE7062"/>
<stop offset="1" stop-color="#FF928E"/>
</linearGradient>
<linearGradient id="paint6_linear_287_4945" x1="131.251" y1="193.622" x2="150.828" y2="193.622" gradientUnits="userSpaceOnUse">
<stop stop-color="#4042E2"/>
<stop offset="1" stop-color="#4F52FF"/>
</linearGradient>
</defs>
</svg>
