<svg width="390" height="300" viewBox="0 0 390 300" fill="none" xmlns="http://www.w3.org/2000/svg">
<path d="M331.012 203.127C300.761 273.835 220.908 304.206 158.342 299.027C141.259 297.613 106.888 294.769 80.0502 269.389C28.5105 220.65 36.4482 118.771 85.7864 58.7903C92.1401 51.066 136.12 -0.685867 204.654 0.0068912C254.831 0.51407 290.049 28.8583 294.332 32.3895C299.742 36.8503 311.674 47.4505 322.427 64.2672C347.695 103.78 349.916 158.941 331.012 203.127Z" fill="url(#paint0_linear_287_5066)"/>
<path d="M80.7549 158.942C80.7549 228.416 139.204 284.735 211.304 284.735C283.405 284.735 345.083 225.955 345.083 156.482C345.083 87.0083 283.405 33.15 211.304 33.15C139.204 33.15 80.7549 89.4695 80.7549 158.942Z" fill="#37928B"/>
<path d="M334.833 128.356C334.911 128.356 334.988 128.348 335.065 128.327C335.547 128.203 335.833 127.728 335.706 127.264C334.3 122.181 332.506 117.138 330.371 112.278C330.177 111.837 329.645 111.635 329.19 111.817C328.731 112.005 328.517 112.514 328.711 112.957C330.813 117.741 332.58 122.705 333.962 127.711C334.07 128.1 334.435 128.356 334.833 128.356Z" fill="#91B3FA"/>
<path d="M314.883 89.0453C315.072 89.0453 315.263 88.9875 315.426 88.8705C315.823 88.582 315.902 88.0359 315.602 87.6541C291.415 56.7479 252.454 38.298 211.382 38.298C193.841 38.298 176.875 41.7252 160.956 48.4807C160.501 48.6742 160.294 49.1883 160.495 49.626C160.694 50.0652 161.227 50.2639 161.683 50.0722C177.371 43.4116 194.093 40.0353 211.382 40.0353C251.891 40.0353 290.313 58.2274 314.162 88.6992C314.34 88.9266 314.609 89.0453 314.883 89.0453Z" fill="#91B3FA"/>
<path d="M98.5166 158.942C98.5166 219.079 149.111 267.83 211.522 267.83C273.932 267.83 327.322 216.949 327.322 156.812C327.322 96.6757 273.933 50.0552 211.522 50.0552C149.111 50.0552 98.5166 98.8057 98.5166 158.942Z" fill="#7D97F4"/>
<path d="M98.5166 158.942C98.5166 98.8057 149.11 50.0552 211.521 50.0552C245.317 50.0552 276.462 63.7304 297.922 85.8144L210.871 155.606L192.975 266.362C139.389 257.836 98.5166 212.992 98.5166 158.942Z" fill="#7D97F4"/>
<path d="M113.897 151.373C113.897 205.645 160.506 249.641 218.001 249.641C275.496 249.641 324.679 203.723 324.679 149.45C324.679 95.1779 275.496 53.104 218.001 53.104C160.506 53.104 113.897 97.1003 113.897 151.373Z" fill="#2E86AB"/>
<path opacity="0.78" d="M298.443 153.295C298.722 157.917 302.837 161.446 307.634 161.177C312.431 160.908 316.093 156.943 315.814 152.321C315.535 147.699 311.419 144.17 306.623 144.439C301.826 144.708 298.164 148.673 298.443 153.295Z" fill="white"/>
<path opacity="0.78" d="M110.481 163.836C110.76 168.458 114.875 171.987 119.672 171.718C124.469 171.449 128.131 167.484 127.852 162.862C127.573 158.24 123.458 154.711 118.661 154.98C113.864 155.249 110.201 159.214 110.481 163.836Z" fill="white"/>
<path opacity="0.78" d="M228.499 239.065C223.772 239.897 220.64 244.264 221.503 248.818C222.367 253.373 226.899 256.391 231.625 255.559C236.352 254.727 239.484 250.36 238.621 245.806C237.757 241.251 233.226 238.233 228.499 239.065Z" fill="white"/>
<path opacity="0.78" d="M194.669 60.5986C189.942 61.4305 186.81 65.797 187.673 70.3516C188.537 74.9063 193.068 77.9239 197.795 77.0919C202.522 76.2601 205.654 71.8935 204.791 67.3389C203.927 62.7844 199.396 59.7668 194.669 60.5986Z" fill="white"/>
<path opacity="0.78" d="M166.646 243.857C165.761 246.006 165.982 248.019 167.139 248.352C168.295 248.685 169.95 247.213 170.834 245.064C171.718 242.915 171.497 240.902 170.341 240.568C169.184 240.235 167.529 241.708 166.646 243.857Z" fill="white"/>
<path opacity="0.78" d="M242.263 74.5811C241.379 76.7304 241.599 78.7429 242.756 79.0761C243.913 79.4096 245.567 77.9372 246.451 75.788C247.335 73.6386 247.115 71.6259 245.958 71.2925C244.801 70.9595 243.147 72.4318 242.263 74.5811Z" fill="white"/>
<path opacity="0.78" d="M127.164 211.678C125.25 213.073 124.354 214.903 125.163 215.767C125.972 216.63 128.179 216.2 130.093 214.805C132.007 213.41 132.903 211.58 132.094 210.717C131.285 209.853 129.077 210.283 127.164 211.678Z" fill="white"/>
<path opacity="0.78" d="M283.004 104.84C281.091 106.234 280.195 108.065 281.004 108.928C281.812 109.792 284.02 109.361 285.934 107.967C287.848 106.572 288.743 104.742 287.934 103.878C287.125 103.015 284.918 103.445 283.004 104.84Z" fill="white"/>
<path opacity="0.78" d="M122.205 115.832C120.038 114.838 117.939 114.915 117.517 116.005C117.094 117.095 118.508 118.784 120.674 119.778C122.841 120.772 124.94 120.694 125.362 119.604C125.785 118.515 124.371 116.826 122.205 115.832Z" fill="white"/>
<path opacity="0.78" d="M292.423 199.867C290.256 198.873 288.157 198.951 287.735 200.04C287.312 201.13 288.726 202.819 290.892 203.813C293.058 204.807 295.158 204.729 295.58 203.64C296.003 202.55 294.589 200.861 292.423 199.867Z" fill="white"/>
<path opacity="0.78" d="M158.17 80.0287C156.854 78.0952 155.019 77.1116 154.07 77.8315C153.122 78.5516 153.42 80.7024 154.736 82.6358C156.051 84.5691 157.887 85.5527 158.835 84.8329C159.784 84.113 159.486 81.9619 158.17 80.0287Z" fill="white"/>
<path opacity="0.78" d="M258.362 237.009C257.046 235.076 255.211 234.092 254.262 234.812C253.314 235.532 253.612 237.683 254.928 239.616C256.244 241.55 258.08 242.533 259.028 241.813C259.976 241.093 259.678 238.943 258.362 237.009Z" fill="white"/>
<path d="M215.04 155.568L284.931 189.155C286.285 189.806 287.87 188.829 287.824 187.371L287.55 178.702C287.496 177.016 289.558 176.082 290.872 177.197L341.405 220.068C342.951 221.38 341.679 223.815 339.665 223.401L274.58 210.01C273.023 209.69 272.459 207.829 273.594 206.752L281.213 199.512C282.155 198.617 281.952 197.104 280.806 196.468L213.15 158.965C212.208 158.442 211.871 157.291 212.391 156.371C212.906 155.46 214.077 155.105 215.04 155.568Z" fill="url(#paint1_linear_287_5066)"/>
<path opacity="0.63" d="M333.547 219.868C334.197 219.868 334.785 219.519 335.081 218.93C335.436 218.226 335.254 217.42 334.628 216.921L323.57 208.113C323.187 207.807 322.617 207.86 322.301 208.23C321.983 208.599 322.038 209.146 322.422 209.453L333.48 218.261C318.745 215.019 284.236 207.773 283.521 207.704C283.037 207.65 282.583 208.001 282.532 208.479C282.483 208.951 282.833 209.372 283.317 209.429C284.352 209.589 310.797 215.126 333.165 219.827C333.293 219.854 333.421 219.868 333.547 219.868Z" fill="white"/>
<path d="M207.751 152.26L207.889 86.4147C207.866 84.9568 206.237 84.0506 204.916 84.7604L197.053 88.9827C195.524 89.8041 193.715 88.4702 194.138 86.833L210.398 23.8774C210.895 21.9517 213.725 21.9189 214.269 23.8332L231.869 85.6769C232.29 87.1567 230.835 88.4947 229.32 88.0197L219.144 84.8312C217.886 84.4369 216.585 85.3064 216.526 86.5797L211.75 152.316C211.702 153.362 210.796 154.18 209.709 154.158C208.633 154.136 207.767 153.298 207.751 152.26Z" fill="url(#paint2_linear_287_5066)"/>
<path opacity="0.63" d="M226.467 79.6396C226.577 79.6396 226.688 79.6208 226.797 79.5802C227.255 79.407 227.483 78.9134 227.314 78.4705C226.986 77.5171 219.924 52.3419 213.966 31.0401C213.754 30.2869 213.09 29.7915 212.258 29.8102C211.446 29.8303 210.786 30.358 210.614 31.1231L207.584 44.6361C207.479 45.1044 207.788 45.5677 208.275 45.6678C208.757 45.7712 209.24 45.4727 209.346 45.0027L212.377 31.4897C216.167 45.5881 225.365 78.4418 225.629 79.0882C225.768 79.4309 226.107 79.6396 226.467 79.6396Z" fill="white"/>
<path d="M212.105 164.744C217.237 164.744 221.397 160.735 221.397 155.791C221.397 150.846 217.237 146.837 212.105 146.837C206.974 146.837 202.813 150.846 202.813 155.791C202.813 160.735 206.974 164.744 212.105 164.744Z" fill="url(#paint3_linear_287_5066)"/>
<path d="M117.45 33.583C117.45 33.583 77.6852 17.8381 77.0225 14.2787C79.3771 24.0996 83.7745 32.8825 83.7745 32.8825C83.7745 32.8825 115.907 48.1102 125.892 45.8394C122.593 39.3339 117.45 33.583 117.45 33.583Z" fill="#91B3FA"/>
<path opacity="0.7" d="M134.725 23.5089L145.149 34.8054C145.149 34.8054 112.322 45.1353 99.2479 34.8054C89.1912 26.9442 88.6426 18.9895 88.6426 18.9895C88.6426 18.9895 112.233 36.8059 134.725 23.5089Z" fill="white"/>
<path d="M99.877 282.016H103.807V239.515H99.877V282.016Z" fill="#2A7A9C"/>
<path d="M105.128 238.832V250.568C105.128 251.363 104.418 251.861 103.623 251.861H100.254C99.4599 251.861 98.9756 251.363 98.9756 250.568V238.832H105.128Z" fill="#2E86AB"/>
<path d="M84.6318 282.835H119.054V280.687C119.054 280.46 118.87 280.277 118.644 280.277H85.0731C84.8294 280.277 84.6318 280.475 84.6318 280.718V282.835Z" fill="#2A7A9C"/>
<path d="M88.2703 231.309L93.3334 229.251L86.7193 212.977L81.6562 215.035L88.2703 231.309Z" fill="url(#paint4_linear_287_5066)"/>
<path d="M53.8727 181.316C63.4757 171.739 87.3645 165.733 95.9528 180.047C95.9528 180.047 106.991 197.468 104.827 213.164C103.615 217.503 100.619 223.161 93.2285 223.145C81.2486 223.119 74.8518 216.297 74.8518 216.297C69.4071 210.757 44.2698 190.894 53.8727 181.316Z" fill="#2E86AB"/>
<path d="M106.938 223.049C109.045 223.203 111.031 223.41 111.514 223.436C115.481 223.651 119.772 224.019 123.415 225.739C124.315 226.164 125.295 226.851 126.24 227.703C130.452 231.5 133.973 238.567 126.661 240.268C119.235 241.995 111.08 241.204 103.543 241.05C98.8415 240.954 94.1778 240.759 89.5068 240.188C86.2225 239.786 81.7368 240.836 78.9663 239.045C55.3858 223.802 106.938 223.049 106.938 223.049Z" fill="#2E86AB"/>
<path d="M57.4358 183.82C57.4358 183.82 59.8351 173.36 67.2237 168.311C61.8601 163.001 62.3297 165.734 62.3297 165.734C62.3297 165.734 47.7742 173.541 47.1396 177.965C52.2307 182.91 57.4358 183.82 57.4358 183.82Z" fill="url(#paint5_linear_287_5066)"/>
<path d="M73.7247 183.076C73.7247 183.076 63.5148 190.196 58.1329 183.82L47.2857 177.445C47.2857 177.445 37.171 206.04 73.7247 199.892C73.0504 190.327 73.7247 183.076 73.7247 183.076Z" fill="url(#paint6_linear_287_5066)"/>
<path d="M94.8902 162.83C94.8902 162.83 85.2064 158.206 76.6574 160.853C64.0382 160.333 77.682 155.417 77.682 155.417C77.682 155.417 92.8471 148.872 96.7066 151.126C97.4138 158.188 94.8902 162.83 94.8902 162.83Z" fill="url(#paint7_linear_287_5066)"/>
<path d="M84.1787 175.125C84.1787 175.125 98.7278 169.375 94.0449 162.464L96.2082 150.917C96.2082 150.917 124.893 160.775 97.3488 185.581C90.2774 179.106 84.1787 175.125 84.1787 175.125Z" fill="url(#paint8_linear_287_5066)"/>
<path d="M176.344 213.939C176.344 213.939 188.393 207.141 192.51 211.188C192.51 211.188 182.553 220.116 178.142 219.713C173.732 219.311 172.785 216.963 172.785 216.963L176.344 213.939Z" fill="url(#paint9_linear_287_5066)"/>
<path d="M169.483 212.629L173.531 216.518C174.141 217.105 175.085 217.236 175.796 216.775C176.152 216.545 176.548 216.188 176.966 215.643C177.557 214.875 177.57 213.806 176.983 213.034L174.151 209.309L169.483 212.629Z" fill="url(#paint10_linear_287_5066)"/>
<path d="M118.646 208.826C118.646 208.826 131.935 189.573 144.373 184.425C156.811 179.276 175.315 208.707 175.315 208.707C175.315 208.707 173.995 211.52 169.487 213.586C169.487 213.586 154.305 194.191 144.441 200.31C133.351 207.19 126.619 217.91 126.619 217.91L119.191 209.324L118.646 208.826Z" fill="#37928B"/>
<path d="M188.964 211.699C186.892 213.461 179.522 217.755 178.833 218.734C178.143 219.713 178.543 222.148 178.543 222.148C178.543 222.148 179.147 222.974 180.785 223.145C183.274 222.488 188.236 220.767 191.568 216.913C194.019 214.078 194.197 211.386 193.828 209.487C192.272 209.72 190.344 210.525 188.964 211.699Z" fill="url(#paint11_linear_287_5066)"/>
<path d="M191.567 216.913C188.235 220.767 183.274 222.488 180.784 223.145C181.891 223.261 183.47 223.077 185.657 222.137C191.079 219.806 195.884 212.79 196.383 211.055C196.784 209.664 195.528 209.233 193.827 209.488C194.197 211.386 194.019 214.078 191.567 216.913Z" fill="url(#paint12_linear_287_5066)"/>
<path d="M174.53 222.601C175.159 222.861 177.859 222.577 179.388 222.388C180.114 222.298 180.743 221.843 181.051 221.18C181.247 220.759 181.434 220.257 181.511 219.759C181.626 219.011 181.094 218.315 180.345 218.204L174.759 217.373L174.53 222.601Z" fill="url(#paint13_linear_287_5066)"/>
<path d="M103.062 226.07C103.062 226.07 113.344 236.456 119.269 233.553C125.194 230.65 134.569 221.528 143.24 222.526C151.911 223.525 168.48 226.076 176.258 222.843C176.258 222.843 177.7 218.715 176.808 216.509C176.808 216.509 153.49 209.629 146.911 209.154C141.213 208.744 132.964 208.205 126.664 211.564C124.86 212.525 123.204 211.448 121.796 209.967L119.233 207.268L103.062 226.07Z" fill="#37928B"/>
<path d="M67.2236 194.801C67.2236 194.801 67.9188 181.367 95.0793 168.311C95.0793 168.311 96.2921 171.004 98.6514 174.425C101.011 177.847 111.622 200.7 119.234 207.268C119.234 207.268 117.741 219.819 104.121 227.223C104.121 227.223 80.1625 214.953 67.2236 194.801Z" fill="url(#paint14_linear_287_5066)"/>
<path d="M70.5137 172.118L76.0003 184.236C76.4162 185.1 77.2943 185.654 78.2532 185.632C80.1911 185.587 83.3401 184.811 84.9042 180.588C85.3693 179.331 85.1335 177.92 84.283 176.884L78.0177 169.257L70.5137 172.118Z" fill="url(#paint15_linear_287_5066)"/>
<path d="M70.5551 155.19C70.7268 155.257 79.5756 162.845 84.0823 166.715C85.4582 167.897 85.4953 170.011 84.1645 171.243L83.1447 172.187C81.7511 173.477 78.4254 175.325 76.6335 174.697L64.5654 168.559C64.5654 168.559 66.6953 153.686 70.5551 155.19Z" fill="url(#paint16_linear_287_5066)"/>
<path d="M61.194 166.912C59.9031 166.691 58.1738 165.927 58.4106 163.404C58.6512 160.839 60.6061 159.928 61.9592 159.605C62.5063 159.474 62.8638 158.969 62.8364 158.407C62.8208 158.087 62.9437 157.756 63.3797 157.519C63.9672 157.199 64.1275 156.425 63.7484 155.874C63.02 154.815 62.5076 153.208 63.9838 151.399C66.6033 148.189 70.7695 150.015 72.5469 152.258C74.3245 154.501 71.2867 157.82 69.0402 159.075C67.3322 160.031 67.1913 162.443 67.2219 163.545C67.2316 163.894 67.4013 164.217 67.68 164.427L71.7895 167.531C71.3844 168.715 71.0813 169.921 70.7917 171.136C70.46 170.963 70.1734 170.822 69.9559 170.73C68.4198 170.081 66.5548 171.362 65.8101 171.956C65.566 172.151 65.2555 172.236 64.9461 172.194C63.8525 172.045 61.5101 171.368 62.1361 168.287C62.2671 167.643 61.8424 167.024 61.194 166.912Z" fill="#37928B"/>
<path d="M72.3795 172.523C72.3795 172.523 69.1146 168.747 67.2634 169.681C65.412 170.615 64.6746 173.133 67.9154 174.32C71.9467 175.797 72.3795 172.523 72.3795 172.523Z" fill="url(#paint17_linear_287_5066)"/>
<path d="M117.684 285.579C119.05 285.579 120.157 284.472 120.157 283.107C120.157 281.741 119.05 280.634 117.684 280.634C116.319 280.634 115.212 281.741 115.212 283.107C115.212 284.472 116.319 285.579 117.684 285.579Z" fill="#2E86AB"/>
<path d="M116.383 283.041C116.383 283.724 116.936 284.278 117.619 284.278C118.302 284.278 118.855 283.724 118.855 283.041C118.855 282.359 118.302 281.805 117.619 281.805C116.936 281.805 116.383 282.359 116.383 283.041Z" fill="#37928B"/>
<path d="M87.2341 285.579C88.5996 285.579 89.7065 284.472 89.7065 283.107C89.7065 281.741 88.5996 280.634 87.2341 280.634C85.8686 280.634 84.7617 281.741 84.7617 283.107C84.7617 284.472 85.8686 285.579 87.2341 285.579Z" fill="#2E86AB"/>
<path d="M85.9326 283.041C85.9326 283.724 86.486 284.278 87.1688 284.278C87.8515 284.278 88.405 283.724 88.405 283.041C88.405 282.359 87.8515 281.805 87.1688 281.805C86.486 281.805 85.9326 282.359 85.9326 283.041Z" fill="#37928B"/>
<path d="M153.459 218.796C153.487 218.798 153.515 218.798 153.543 218.798L190.07 218.758C190.973 218.758 191.704 218.025 191.703 217.122C191.702 216.219 190.966 215.472 190.066 215.489L153.539 215.528C152.636 215.529 151.905 216.262 151.906 217.165C151.907 218.04 152.595 218.754 153.459 218.796Z" fill="#37928B"/>
<path d="M222.905 185.632H192.485C190.241 185.632 188.199 186.927 187.242 188.957L173.179 218.777H210.982C212.428 218.777 213.728 217.893 214.259 216.548L225.164 188.955C225.794 187.36 224.619 185.632 222.905 185.632Z" fill="#37928B"/>
<path d="M213.974 289.7C214.158 289.7 214.344 289.664 214.524 289.589C215.231 289.295 215.557 288.502 215.253 287.817L186.035 222.059C185.731 221.375 184.912 221.059 184.204 221.353C183.497 221.647 183.171 222.44 183.475 223.125L212.694 288.883C212.92 289.394 213.434 289.7 213.974 289.7Z" fill="#BDD0FB"/>
<path d="M181.058 289.7C181.598 289.7 182.112 289.394 182.339 288.883L211.557 223.125C211.861 222.44 211.534 221.647 210.828 221.353C210.121 221.058 209.302 221.374 208.997 222.059L179.779 287.817C179.475 288.502 179.801 289.295 180.508 289.589C180.688 289.664 180.874 289.7 181.058 289.7Z" fill="#BDD0FB"/>
<path d="M123.53 289.7C123.713 289.7 123.9 289.664 124.08 289.589C124.786 289.295 125.113 288.502 124.809 287.817L95.5903 222.059C95.2863 221.375 94.4678 221.059 93.76 221.353C93.0532 221.647 92.7267 222.44 93.0307 223.125L122.249 288.883C122.476 289.394 122.99 289.7 123.53 289.7Z" fill="#BDD0FB"/>
<path d="M90.6146 289.699C91.1546 289.699 91.6683 289.394 91.895 288.883L121.113 223.125C121.418 222.44 121.091 221.647 120.384 221.353C119.678 221.058 118.858 221.374 118.554 222.059L89.3354 287.817C89.0314 288.502 89.3578 289.295 90.0647 289.589C90.244 289.664 90.4309 289.699 90.6146 289.699Z" fill="#BDD0FB"/>
<path d="M87.187 220.028C87.1125 219.597 87.214 219.151 87.4637 218.812C87.7134 218.474 88.0853 218.277 88.4778 218.277H221.4C221.917 218.277 222.397 218.572 222.675 219.058C222.953 219.545 222.99 220.157 222.774 220.681L221.333 224.172C221.004 224.971 220.289 225.483 219.502 225.483H89.3897C88.6581 225.483 88.0294 224.902 87.8905 224.098L87.187 220.028Z" fill="#BDD0FB"/>
<path d="M167.759 273.843L169.094 293.909C169.327 297.408 172.297 300.097 175.819 299.997L223.935 298.63C226.288 298.563 228.235 296.784 228.499 294.455C229.077 289.356 229.724 280.246 228.352 271.764L167.759 273.843Z" fill="#2E86AB"/>
<path d="M177.175 298.811C177.102 298.811 177.041 298.752 177.039 298.679C177.037 298.604 177.096 298.541 177.171 298.539L178.257 298.508C178.258 298.508 178.259 298.508 178.26 298.508C178.334 298.508 178.394 298.567 178.396 298.64C178.398 298.715 178.339 298.778 178.264 298.78L177.179 298.811C177.178 298.811 177.176 298.811 177.175 298.811ZM180.793 298.708C180.719 298.708 180.659 298.65 180.657 298.576C180.655 298.501 180.714 298.439 180.789 298.436L181.874 298.406C181.875 298.406 181.877 298.406 181.878 298.406C181.951 298.406 182.011 298.464 182.014 298.537C182.016 298.612 181.957 298.675 181.882 298.677L180.797 298.708C180.795 298.708 180.794 298.708 180.793 298.708ZM184.41 298.605C184.337 298.605 184.277 298.547 184.275 298.473C184.272 298.398 184.332 298.336 184.406 298.334L185.492 298.303C185.493 298.303 185.495 298.303 185.496 298.303C185.569 298.303 185.629 298.361 185.631 298.435C185.633 298.51 185.574 298.572 185.5 298.574L184.414 298.605C184.413 298.605 184.411 298.605 184.41 298.605ZM188.028 298.502C187.955 298.502 187.894 298.444 187.892 298.37C187.89 298.295 187.949 298.233 188.024 298.231L189.109 298.2C189.111 298.2 189.112 298.2 189.113 298.2C189.186 298.2 189.247 298.258 189.249 298.332C189.251 298.407 189.192 298.469 189.117 298.471L188.032 298.502C188.03 298.502 188.029 298.502 188.028 298.502ZM174.681 298.478C174.666 298.478 174.651 298.476 174.636 298.471C174.288 298.35 173.948 298.199 173.625 298.019C173.56 297.983 173.536 297.9 173.572 297.835C173.609 297.769 173.69 297.746 173.757 297.782C174.066 297.954 174.392 298.099 174.725 298.214C174.796 298.239 174.833 298.316 174.809 298.387C174.789 298.443 174.737 298.478 174.681 298.478ZM191.646 298.399C191.572 298.399 191.512 298.341 191.51 298.268C191.508 298.193 191.567 298.13 191.642 298.128L192.727 298.097C192.728 298.097 192.73 298.097 192.731 298.097C192.804 298.097 192.864 298.155 192.867 298.229C192.869 298.304 192.81 298.366 192.735 298.369L191.649 298.399C191.648 298.399 191.646 298.399 191.646 298.399ZM195.263 298.297C195.19 298.297 195.13 298.238 195.127 298.165C195.125 298.09 195.184 298.027 195.259 298.025L196.344 297.995C196.346 297.995 196.347 297.995 196.348 297.995C196.421 297.995 196.482 298.053 196.484 298.126C196.486 298.201 196.427 298.264 196.352 298.266L195.267 298.297C195.266 298.297 195.264 298.297 195.263 298.297ZM198.881 298.194C198.807 298.194 198.747 298.136 198.745 298.062C198.743 297.987 198.802 297.925 198.877 297.922L199.962 297.892C199.963 297.892 199.965 297.892 199.966 297.892C200.039 297.892 200.099 297.95 200.101 298.024C200.104 298.098 200.044 298.161 199.97 298.163L198.885 298.194C198.883 298.194 198.882 298.194 198.881 298.194ZM202.498 298.091C202.425 298.091 202.364 298.033 202.362 297.959C202.36 297.885 202.419 297.822 202.494 297.82L203.579 297.789C203.581 297.789 203.582 297.789 203.583 297.789C203.656 297.789 203.717 297.847 203.719 297.921C203.721 297.996 203.662 298.058 203.587 298.06L202.502 298.091C202.5 298.091 202.499 298.091 202.498 298.091ZM206.116 297.988C206.042 297.988 205.982 297.93 205.98 297.856C205.978 297.782 206.037 297.719 206.112 297.717L207.197 297.686C207.198 297.686 207.2 297.686 207.201 297.686C207.274 297.686 207.335 297.744 207.337 297.818C207.339 297.893 207.28 297.955 207.205 297.957L206.119 297.988C206.118 297.988 206.117 297.988 206.116 297.988ZM209.733 297.885C209.66 297.885 209.6 297.827 209.597 297.754C209.595 297.679 209.654 297.616 209.729 297.614L210.815 297.583C210.816 297.583 210.817 297.583 210.818 297.583C210.892 297.583 210.952 297.642 210.954 297.715C210.956 297.79 210.897 297.853 210.822 297.855L209.737 297.885C209.736 297.885 209.734 297.885 209.733 297.885ZM213.351 297.783C213.278 297.783 213.217 297.724 213.215 297.651C213.213 297.576 213.272 297.513 213.347 297.511L214.432 297.48C214.434 297.48 214.435 297.48 214.436 297.48C214.509 297.48 214.57 297.539 214.572 297.612C214.574 297.687 214.515 297.75 214.44 297.752L213.355 297.783C213.353 297.783 213.352 297.783 213.351 297.783ZM216.968 297.68C216.895 297.68 216.835 297.622 216.833 297.548C216.83 297.473 216.89 297.411 216.965 297.409L218.05 297.378C218.051 297.378 218.053 297.378 218.054 297.378C218.127 297.378 218.187 297.436 218.189 297.509C218.192 297.584 218.133 297.647 218.058 297.649L216.972 297.68C216.971 297.68 216.97 297.68 216.968 297.68ZM220.586 297.577C220.513 297.577 220.452 297.519 220.45 297.445C220.448 297.37 220.507 297.308 220.582 297.306L221.668 297.275C221.669 297.275 221.67 297.275 221.671 297.275C221.745 297.275 221.805 297.333 221.807 297.407C221.809 297.482 221.75 297.544 221.675 297.546L220.59 297.577C220.588 297.577 220.587 297.577 220.586 297.577ZM224.169 297.227C224.114 297.227 224.062 297.193 224.042 297.139C224.015 297.069 224.051 296.991 224.121 296.964C224.449 296.84 224.761 296.676 225.051 296.476C225.113 296.433 225.197 296.449 225.239 296.511C225.282 296.573 225.267 296.657 225.205 296.7C224.897 296.912 224.565 297.086 224.217 297.218C224.201 297.224 224.184 297.227 224.169 297.227ZM171.783 296.398C171.742 296.398 171.702 296.38 171.676 296.345C171.449 296.052 171.248 295.738 171.077 295.413C171.042 295.346 171.068 295.264 171.134 295.229C171.201 295.195 171.282 295.22 171.317 295.286C171.481 295.598 171.673 295.898 171.89 296.179C171.936 296.238 171.925 296.323 171.866 296.369C171.841 296.389 171.812 296.398 171.783 296.398ZM226.711 294.79C226.693 294.79 226.675 294.787 226.658 294.779C226.588 294.75 226.557 294.67 226.586 294.601C226.723 294.279 226.821 293.94 226.877 293.593C226.888 293.519 226.957 293.468 227.032 293.48C227.106 293.492 227.156 293.562 227.144 293.635C227.085 294.004 226.981 294.365 226.836 294.708C226.814 294.759 226.763 294.79 226.711 294.79ZM170.508 293.067C170.436 293.067 170.376 293.01 170.372 292.938L170.3 291.856C170.295 291.782 170.352 291.717 170.427 291.712C170.499 291.708 170.566 291.764 170.571 291.838L170.644 292.924C170.647 292.999 170.59 293.063 170.515 293.066C170.512 293.067 170.51 293.067 170.508 293.067ZM227.274 291.23C227.27 291.23 227.266 291.23 227.262 291.229C227.187 291.223 227.132 291.157 227.139 291.082C227.17 290.733 227.201 290.372 227.23 290.002C227.236 289.927 227.302 289.873 227.376 289.877C227.451 289.883 227.506 289.948 227.501 290.023C227.471 290.395 227.441 290.756 227.409 291.106C227.403 291.177 227.343 291.23 227.274 291.23ZM170.267 289.455C170.197 289.455 170.137 289.401 170.132 289.329L170.06 288.245C170.055 288.171 170.112 288.106 170.187 288.101C170.259 288.094 170.326 288.153 170.331 288.227L170.403 289.311C170.408 289.385 170.351 289.45 170.277 289.455C170.273 289.455 170.27 289.455 170.267 289.455ZM227.535 287.62C227.532 287.62 227.53 287.62 227.527 287.62C227.453 287.615 227.395 287.552 227.4 287.477C227.419 287.122 227.436 286.76 227.452 286.394C227.455 286.321 227.515 286.264 227.588 286.264C227.59 286.264 227.592 286.264 227.594 286.264C227.668 286.267 227.727 286.33 227.724 286.405C227.708 286.773 227.69 287.135 227.67 287.492C227.666 287.564 227.607 287.62 227.535 287.62ZM170.027 285.844C169.956 285.844 169.896 285.789 169.892 285.718L169.82 284.634C169.815 284.56 169.871 284.495 169.946 284.49C170.019 284.483 170.085 284.542 170.09 284.616L170.163 285.7C170.168 285.774 170.111 285.839 170.036 285.844C170.033 285.844 170.03 285.844 170.027 285.844ZM227.664 284.003C227.663 284.003 227.662 284.003 227.661 284.003C227.586 284.002 227.527 283.94 227.528 283.865C227.533 283.507 227.537 283.146 227.538 282.781C227.539 282.706 227.599 282.646 227.674 282.646H227.674C227.749 282.646 227.81 282.707 227.81 282.782C227.809 283.148 227.805 283.511 227.799 283.87C227.798 283.944 227.737 284.003 227.664 284.003ZM169.787 282.233C169.716 282.233 169.656 282.178 169.652 282.107L169.58 281.023C169.575 280.949 169.631 280.884 169.706 280.879C169.788 280.874 169.845 280.931 169.85 281.006L169.923 282.089C169.928 282.163 169.871 282.228 169.796 282.233C169.793 282.233 169.79 282.233 169.787 282.233ZM227.647 280.385C227.573 280.385 227.513 280.326 227.511 280.252C227.502 279.893 227.49 279.532 227.475 279.17C227.472 279.095 227.53 279.032 227.605 279.029C227.607 279.029 227.609 279.029 227.611 279.029C227.683 279.029 227.743 279.086 227.746 279.159C227.761 279.522 227.773 279.885 227.783 280.245C227.784 280.32 227.725 280.383 227.65 280.385C227.649 280.385 227.648 280.385 227.647 280.385ZM169.547 278.622C169.476 278.622 169.416 278.567 169.411 278.496L169.339 277.412C169.334 277.338 169.391 277.273 169.466 277.268C169.548 277.263 169.605 277.32 169.61 277.394L169.682 278.478C169.687 278.552 169.631 278.617 169.556 278.622C169.553 278.622 169.55 278.622 169.547 278.622ZM227.463 276.771C227.392 276.771 227.333 276.717 227.327 276.646C227.3 276.286 227.269 275.926 227.236 275.566C227.229 275.491 227.284 275.425 227.359 275.418C227.443 275.413 227.5 275.467 227.506 275.541C227.54 275.903 227.57 276.264 227.598 276.625C227.604 276.7 227.548 276.765 227.473 276.771C227.47 276.771 227.466 276.771 227.463 276.771ZM169.306 275.011C169.236 275.011 169.176 274.956 169.171 274.885L169.09 273.662L170.26 273.621C170.329 273.622 170.398 273.678 170.401 273.752C170.403 273.827 170.345 273.89 170.27 273.893L169.379 273.923L169.442 274.867C169.447 274.941 169.39 275.006 169.316 275.011C169.313 275.011 169.309 275.011 169.306 275.011ZM172.797 273.806C172.724 273.806 172.664 273.748 172.661 273.675C172.659 273.6 172.717 273.537 172.792 273.534L173.877 273.497C173.947 273.493 174.015 273.554 174.018 273.628C174.02 273.703 173.962 273.766 173.887 273.769L172.802 273.806C172.8 273.806 172.798 273.806 172.797 273.806ZM176.414 273.682C176.341 273.682 176.281 273.624 176.278 273.551C176.276 273.476 176.334 273.413 176.409 273.41L177.494 273.373C177.566 273.372 177.632 273.429 177.635 273.504C177.637 273.579 177.578 273.642 177.503 273.644L176.418 273.682C176.417 273.682 176.415 273.682 176.414 273.682ZM180.031 273.557C179.958 273.557 179.898 273.5 179.895 273.426C179.893 273.351 179.951 273.289 180.026 273.286L181.111 273.249C181.184 273.251 181.249 273.305 181.252 273.38C181.254 273.455 181.195 273.518 181.12 273.52L180.035 273.557C180.034 273.557 180.032 273.557 180.031 273.557ZM183.648 273.433C183.575 273.433 183.514 273.376 183.512 273.302C183.509 273.227 183.568 273.165 183.643 273.162L184.728 273.125C184.802 273.122 184.866 273.181 184.868 273.256C184.871 273.331 184.812 273.394 184.737 273.396L183.652 273.434C183.651 273.433 183.649 273.433 183.648 273.433ZM187.264 273.309C187.192 273.309 187.131 273.252 187.129 273.178C187.126 273.103 187.185 273.041 187.26 273.038L188.345 273.001C188.42 273.001 188.482 273.057 188.485 273.132C188.488 273.207 188.429 273.27 188.354 273.272L187.269 273.309C187.268 273.309 187.266 273.309 187.264 273.309ZM190.881 273.185C190.809 273.185 190.748 273.127 190.746 273.054C190.743 272.979 190.802 272.916 190.877 272.914L191.962 272.877C192.038 272.88 192.1 272.933 192.102 273.008C192.105 273.083 192.046 273.145 191.971 273.148L190.886 273.185C190.885 273.185 190.883 273.185 190.881 273.185ZM227.082 273.173C227.015 273.173 226.957 273.124 226.948 273.055C226.898 272.697 226.845 272.34 226.789 271.984C226.778 271.91 226.828 271.84 226.902 271.829C226.98 271.816 227.046 271.868 227.057 271.942C227.114 272.3 227.167 272.659 227.216 273.018C227.226 273.093 227.175 273.161 227.1 273.171C227.094 273.172 227.088 273.173 227.082 273.173ZM194.498 273.061C194.425 273.061 194.365 273.003 194.363 272.93C194.36 272.855 194.419 272.792 194.494 272.79L195.579 272.752C195.656 272.75 195.717 272.809 195.719 272.884C195.722 272.958 195.663 273.021 195.588 273.024L194.503 273.061C194.501 273.061 194.5 273.061 194.498 273.061ZM198.115 272.937C198.042 272.937 197.982 272.879 197.979 272.806C197.977 272.731 198.035 272.668 198.11 272.666L199.196 272.628C199.274 272.63 199.333 272.685 199.336 272.76C199.338 272.834 199.28 272.897 199.205 272.9L198.119 272.937C198.118 272.937 198.116 272.937 198.115 272.937ZM201.732 272.813C201.659 272.813 201.599 272.755 201.596 272.682C201.594 272.607 201.652 272.544 201.727 272.541L202.813 272.504C202.892 272.5 202.95 272.561 202.953 272.635C202.955 272.71 202.897 272.773 202.822 272.776L201.736 272.813C201.735 272.813 201.733 272.813 201.732 272.813ZM205.349 272.689C205.276 272.689 205.215 272.631 205.213 272.558C205.21 272.483 205.269 272.42 205.344 272.417L206.429 272.38C206.511 272.379 206.567 272.436 206.57 272.511C206.572 272.586 206.514 272.649 206.439 272.652L205.353 272.689C205.352 272.689 205.35 272.689 205.349 272.689ZM208.965 272.565C208.893 272.565 208.832 272.507 208.83 272.434C208.827 272.359 208.886 272.296 208.961 272.293L210.046 272.256C210.129 272.259 210.184 272.312 210.187 272.387C210.189 272.462 210.13 272.525 210.055 272.527L208.97 272.565C208.969 272.565 208.967 272.565 208.965 272.565ZM212.582 272.441C212.51 272.441 212.449 272.383 212.447 272.309C212.444 272.234 212.503 272.172 212.578 272.169L213.663 272.132C213.728 272.129 213.801 272.188 213.803 272.263C213.806 272.338 213.747 272.401 213.672 272.403L212.587 272.441C212.586 272.441 212.584 272.441 212.582 272.441ZM216.199 272.316C216.126 272.316 216.066 272.259 216.064 272.185C216.061 272.11 216.12 272.048 216.195 272.045L217.28 272.008C217.347 272.008 217.418 272.064 217.42 272.139C217.423 272.214 217.364 272.276 217.289 272.279L216.204 272.316C216.202 272.316 216.201 272.316 216.199 272.316ZM219.816 272.192C219.743 272.192 219.683 272.134 219.68 272.061C219.678 271.986 219.737 271.923 219.812 271.921L220.897 271.884C220.964 271.888 221.035 271.94 221.037 272.015C221.04 272.09 220.981 272.152 220.906 272.155L219.821 272.192C219.819 272.192 219.818 272.192 219.816 272.192ZM223.433 272.068C223.36 272.068 223.3 272.01 223.297 271.937C223.295 271.862 223.354 271.799 223.429 271.797L224.514 271.759C224.583 271.758 224.652 271.816 224.654 271.891C224.657 271.965 224.598 272.028 224.523 272.031L223.438 272.068C223.436 272.068 223.434 272.068 223.433 272.068Z" fill="white"/>
<path d="M181.356 258.776L181.448 257.222C181.599 256.846 181.929 256.573 182.328 256.495C183.818 256.205 187.521 255.658 189.356 256.934L189.685 258.725L181.356 258.776Z" fill="#2E86AB"/>
<path d="M185.987 257.125C185.645 257.221 185.299 257.232 184.95 257.159C184.528 257.07 184.219 256.706 184.205 256.276L184.038 251.425L186.507 251.34L186.673 256.188C186.688 256.619 186.405 257.007 185.987 257.125Z" fill="#2E86AB"/>
<path d="M205.269 257.955L205.36 256.401C205.511 256.025 205.841 255.752 206.24 255.674C207.73 255.384 211.433 254.837 213.268 256.113L213.597 257.905L205.269 257.955Z" fill="#2E86AB"/>
<path d="M209.899 256.304C209.557 256.4 209.212 256.412 208.862 256.338C208.44 256.25 208.131 255.885 208.117 255.455L207.933 250.093L210.401 250.008L210.585 255.367C210.6 255.798 210.317 256.187 209.899 256.304Z" fill="#2E86AB"/>
<path d="M183.828 252.622L210.349 250.832C210.953 250.792 211.452 250.337 211.535 249.74C211.652 248.904 211.738 247.655 211.502 246.372C211.234 244.912 209.935 243.866 208.445 243.882C203.488 243.934 190.879 244.37 184.023 247.357C183.298 247.673 182.775 248.32 182.615 249.092C182.462 249.828 182.378 250.806 182.644 251.79C182.785 252.313 183.285 252.659 183.828 252.622Z" fill="#2E86AB"/>
<path d="M183.317 251.503C183.138 251.503 182.983 251.372 182.958 251.19C182.953 251.147 182.816 250.108 183.053 249.095C183.245 248.276 183.864 247.601 184.67 247.335C186.145 246.846 188.969 246.005 191.304 245.859C191.509 245.843 191.675 245.998 191.687 246.198C191.7 246.397 191.548 246.569 191.349 246.581C189.011 246.727 186.058 247.637 184.897 248.022C184.329 248.21 183.892 248.684 183.758 249.26C183.552 250.14 183.674 251.084 183.676 251.093C183.702 251.291 183.563 251.473 183.365 251.5C183.349 251.502 183.333 251.503 183.317 251.503Z" fill="#91B3FA"/>
<path d="M169.018 258.595C177.591 258.191 214.685 256.528 225.508 257.458C226.44 257.538 227.22 258.192 227.453 259.093C228.188 261.951 229.699 268.596 229.775 275.231C229.785 276.134 229.15 276.918 228.265 277.117L203.82 282.616L195.08 282.916L168.686 278.605C167.755 278.453 167.047 277.694 166.967 276.758C166.682 273.428 166.147 265.611 166.877 260.542C167.032 259.465 167.926 258.647 169.018 258.595Z" fill="#2E86AB"/>
<path d="M195.215 280.925C195.208 280.925 195.201 280.924 195.193 280.923L194.122 280.748C194.048 280.736 193.998 280.666 194.01 280.592C194.022 280.519 194.087 280.467 194.166 280.48L195.237 280.655C195.311 280.667 195.361 280.737 195.349 280.811C195.338 280.877 195.281 280.925 195.215 280.925ZM196.776 280.871C196.703 280.871 196.643 280.813 196.64 280.74C196.638 280.665 196.696 280.602 196.771 280.6L197.856 280.563C197.939 280.562 197.994 280.619 197.997 280.694C197.999 280.769 197.94 280.831 197.865 280.834L196.78 280.871C196.779 280.871 196.777 280.871 196.776 280.871ZM200.393 280.747C200.32 280.747 200.26 280.689 200.257 280.616C200.255 280.541 200.313 280.478 200.388 280.476L201.473 280.439C201.538 280.441 201.611 280.495 201.614 280.57C201.616 280.645 201.557 280.707 201.482 280.71L200.397 280.747C200.396 280.747 200.394 280.747 200.393 280.747ZM203.999 280.537C203.936 280.537 203.881 280.495 203.866 280.432C203.85 280.358 203.896 280.286 203.969 280.269L205.028 280.031C205.1 280.014 205.173 280.061 205.19 280.134C205.206 280.207 205.161 280.279 205.087 280.296L204.028 280.534C204.018 280.536 204.009 280.537 203.999 280.537ZM191.644 280.341C191.637 280.341 191.629 280.341 191.622 280.34L190.55 280.165C190.476 280.153 190.426 280.083 190.438 280.009C190.45 279.935 190.518 279.884 190.594 279.897L191.666 280.072C191.74 280.084 191.79 280.154 191.778 280.228C191.767 280.294 191.709 280.341 191.644 280.341ZM188.072 279.758C188.065 279.758 188.058 279.757 188.05 279.756L186.979 279.581C186.905 279.569 186.855 279.499 186.867 279.425C186.879 279.352 186.946 279.301 187.022 279.313L188.094 279.488C188.168 279.5 188.218 279.57 188.206 279.644C188.195 279.711 188.138 279.758 188.072 279.758ZM207.529 279.743C207.467 279.743 207.411 279.701 207.397 279.638C207.38 279.564 207.426 279.492 207.5 279.475L208.559 279.237C208.63 279.219 208.704 279.266 208.721 279.339C208.737 279.413 208.691 279.485 208.618 279.502L207.559 279.74C207.549 279.742 207.539 279.743 207.529 279.743ZM184.501 279.175C184.493 279.175 184.486 279.174 184.479 279.173L183.407 278.998C183.333 278.986 183.283 278.916 183.295 278.842C183.307 278.768 183.375 278.717 183.451 278.73L184.522 278.905C184.596 278.917 184.646 278.987 184.634 279.061C184.623 279.127 184.566 279.175 184.501 279.175ZM211.06 278.949C210.998 278.949 210.942 278.906 210.927 278.843C210.911 278.77 210.957 278.697 211.03 278.681L212.089 278.443C212.16 278.425 212.235 278.472 212.252 278.545C212.268 278.618 212.222 278.691 212.149 278.707L211.09 278.946C211.08 278.948 211.07 278.949 211.06 278.949ZM180.929 278.591C180.922 278.591 180.914 278.59 180.907 278.589L179.835 278.414C179.761 278.402 179.711 278.332 179.723 278.258C179.735 278.185 179.803 278.132 179.879 278.146L180.951 278.321C181.025 278.333 181.075 278.403 181.063 278.477C181.052 278.544 180.994 278.591 180.929 278.591ZM214.591 278.155C214.529 278.155 214.473 278.112 214.458 278.049C214.442 277.976 214.488 277.903 214.561 277.887L215.62 277.648C215.693 277.632 215.766 277.678 215.783 277.751C215.799 277.824 215.753 277.897 215.68 277.913L214.621 278.151C214.611 278.154 214.601 278.155 214.591 278.155ZM177.357 278.008C177.35 278.008 177.343 278.007 177.335 278.006L176.264 277.831C176.19 277.819 176.14 277.749 176.152 277.675C176.164 277.601 176.231 277.549 176.308 277.563L177.379 277.738C177.453 277.75 177.503 277.82 177.491 277.894C177.48 277.96 177.423 278.008 177.357 278.008ZM173.785 277.424C173.778 277.424 173.771 277.424 173.764 277.423L172.692 277.248C172.618 277.236 172.568 277.166 172.58 277.092C172.592 277.018 172.659 276.966 172.736 276.98L173.807 277.155C173.881 277.167 173.931 277.236 173.919 277.31C173.909 277.377 173.851 277.424 173.785 277.424ZM218.122 277.36C218.059 277.36 218.004 277.318 217.989 277.255C217.973 277.181 218.019 277.109 218.092 277.092L219.151 276.854C219.223 276.838 219.296 276.883 219.313 276.956C219.329 277.03 219.284 277.102 219.21 277.119L218.151 277.357C218.141 277.359 218.132 277.36 218.122 277.36ZM170.214 276.841C170.207 276.841 170.199 276.84 170.192 276.839L169.12 276.664C169.046 276.652 168.996 276.582 169.008 276.508C169.02 276.434 169.087 276.382 169.164 276.396L170.236 276.571C170.31 276.583 170.36 276.653 170.348 276.727C170.337 276.793 170.279 276.841 170.214 276.841ZM221.652 276.566C221.59 276.566 221.534 276.523 221.52 276.46C221.503 276.387 221.549 276.314 221.622 276.298L222.682 276.06C222.753 276.043 222.827 276.089 222.844 276.162C222.86 276.235 222.814 276.308 222.741 276.325L221.682 276.563C221.672 276.565 221.662 276.566 221.652 276.566ZM225.183 275.772C225.121 275.772 225.065 275.729 225.051 275.666C225.035 275.593 225.08 275.52 225.154 275.504L226.213 275.266C226.284 275.249 226.358 275.295 226.375 275.368C226.391 275.441 226.345 275.514 226.272 275.53L225.213 275.768C225.203 275.771 225.193 275.772 225.183 275.772ZM168.889 274.195C168.818 274.195 168.758 274.14 168.754 274.069C168.731 273.722 168.708 273.36 168.686 272.984C168.682 272.909 168.739 272.844 168.814 272.84C168.889 272.836 168.953 272.893 168.957 272.968C168.979 273.343 169.002 273.705 169.025 274.051C169.03 274.125 168.973 274.19 168.898 274.195C168.895 274.195 168.892 274.195 168.889 274.195ZM227.621 274.127C227.548 274.127 227.488 274.07 227.485 273.997C227.471 273.635 227.453 273.274 227.432 272.915C227.427 272.84 227.484 272.776 227.559 272.771C227.643 272.762 227.698 272.824 227.702 272.898C227.724 273.26 227.743 273.623 227.757 273.986C227.759 274.061 227.701 274.124 227.626 274.127C227.624 274.127 227.623 274.127 227.621 274.127ZM168.7 270.58C168.627 270.58 168.567 270.523 168.564 270.449C168.551 270.092 168.539 269.729 168.529 269.363C168.527 269.288 168.586 269.225 168.661 269.223C168.746 269.228 168.798 269.28 168.8 269.355C168.81 269.721 168.822 270.083 168.836 270.439C168.838 270.514 168.78 270.577 168.705 270.58C168.703 270.58 168.702 270.58 168.7 270.58ZM227.356 270.517C227.287 270.517 227.229 270.465 227.221 270.395C227.183 270.033 227.142 269.674 227.099 269.319C227.09 269.244 227.143 269.176 227.217 269.168C227.292 269.158 227.359 269.211 227.368 269.286C227.412 269.642 227.453 270.003 227.491 270.367C227.499 270.442 227.445 270.508 227.37 270.516C227.366 270.517 227.361 270.517 227.356 270.517ZM168.63 266.961C168.555 266.961 168.494 266.9 168.494 266.825C168.494 266.461 168.498 266.098 168.504 265.737C168.505 265.663 168.566 265.603 168.639 265.603C168.64 265.603 168.641 265.603 168.642 265.603C168.716 265.605 168.776 265.667 168.775 265.741C168.769 266.101 168.766 266.463 168.766 266.825C168.766 266.9 168.705 266.961 168.63 266.961ZM226.88 266.929C226.814 266.929 226.757 266.881 226.746 266.814C226.688 266.45 226.629 266.093 226.569 265.744C226.556 265.67 226.605 265.6 226.679 265.588C226.755 265.575 226.823 265.625 226.836 265.698C226.897 266.048 226.956 266.406 227.014 266.771C227.026 266.845 226.975 266.915 226.901 266.927C226.894 266.928 226.887 266.929 226.88 266.929ZM226.23 263.367C226.167 263.367 226.11 263.323 226.097 263.259C226.02 262.888 225.945 262.533 225.871 262.198C225.855 262.124 225.901 262.052 225.974 262.036C226.048 262.02 226.12 262.066 226.136 262.139C226.21 262.476 226.286 262.831 226.363 263.204C226.378 263.277 226.331 263.349 226.257 263.364C226.248 263.366 226.239 263.367 226.23 263.367ZM168.739 263.343C168.736 263.343 168.733 263.343 168.73 263.343C168.655 263.338 168.598 263.273 168.603 263.199C168.627 262.828 168.656 262.465 168.69 262.112C168.697 262.037 168.766 261.984 168.838 261.99C168.913 261.997 168.967 262.063 168.96 262.138C168.927 262.488 168.898 262.849 168.874 263.216C168.869 263.288 168.81 263.343 168.739 263.343ZM170.151 260.801C170.079 260.801 170.019 260.745 170.016 260.672C170.012 260.597 170.07 260.533 170.145 260.53L171.23 260.48C171.307 260.477 171.368 260.535 171.372 260.61C171.375 260.684 171.317 260.748 171.243 260.751L170.158 260.801C170.155 260.801 170.153 260.801 170.151 260.801ZM173.768 260.638C173.696 260.638 173.636 260.581 173.632 260.508C173.629 260.433 173.687 260.37 173.762 260.366L174.848 260.319C174.85 260.319 174.852 260.319 174.854 260.319C174.926 260.319 174.986 260.376 174.989 260.448C174.992 260.523 174.935 260.587 174.86 260.59L173.774 260.638C173.772 260.638 173.77 260.638 173.768 260.638ZM177.386 260.481C177.313 260.481 177.253 260.424 177.25 260.351C177.247 260.276 177.305 260.213 177.38 260.21L178.465 260.164C178.538 260.161 178.604 260.22 178.607 260.294C178.61 260.369 178.552 260.432 178.477 260.435L177.391 260.481C177.39 260.481 177.388 260.481 177.386 260.481ZM181.003 260.332C180.931 260.332 180.871 260.275 180.867 260.202C180.865 260.127 180.923 260.064 180.997 260.061L182.083 260.017C182.16 260.013 182.221 260.072 182.224 260.147C182.227 260.222 182.169 260.285 182.094 260.288L181.009 260.332C181.007 260.332 181.005 260.332 181.003 260.332ZM184.62 260.19C184.547 260.19 184.487 260.132 184.485 260.06C184.482 259.985 184.54 259.922 184.615 259.919L185.701 259.877C185.778 259.867 185.839 259.933 185.841 260.008C185.844 260.083 185.786 260.146 185.711 260.148L184.626 260.19C184.624 260.19 184.622 260.19 184.62 260.19ZM188.238 260.055C188.165 260.055 188.105 259.998 188.103 259.924C188.1 259.85 188.158 259.787 188.233 259.784L189.318 259.745C189.403 259.744 189.456 259.801 189.459 259.876C189.462 259.951 189.403 260.014 189.328 260.017L188.243 260.055C188.241 260.055 188.24 260.055 188.238 260.055ZM191.856 259.93C191.783 259.93 191.723 259.872 191.72 259.798C191.718 259.724 191.776 259.661 191.851 259.658L192.937 259.622C193.004 259.621 193.074 259.679 193.077 259.753C193.079 259.828 193.02 259.891 192.945 259.894L191.86 259.929C191.859 259.93 191.857 259.93 191.856 259.93ZM225.418 259.838C225.357 259.838 225.303 259.797 225.286 259.736L225.278 259.704C225.009 259.681 224.719 259.66 224.409 259.64C224.335 259.635 224.278 259.57 224.283 259.495C224.288 259.421 224.345 259.364 224.427 259.369C224.752 259.39 225.056 259.413 225.337 259.437C225.431 259.445 225.509 259.506 225.529 259.589L225.549 259.668C225.568 259.74 225.525 259.814 225.452 259.833C225.441 259.836 225.429 259.838 225.418 259.838ZM195.473 259.813C195.4 259.813 195.34 259.755 195.337 259.681C195.335 259.607 195.394 259.544 195.469 259.542L196.554 259.509C196.621 259.509 196.691 259.565 196.694 259.64C196.696 259.715 196.637 259.778 196.562 259.78L195.477 259.813C195.476 259.813 195.474 259.813 195.473 259.813ZM199.09 259.708C199.017 259.708 198.957 259.649 198.955 259.575C198.952 259.501 199.012 259.438 199.086 259.436L200.172 259.407C200.25 259.41 200.31 259.464 200.311 259.539C200.314 259.614 200.254 259.676 200.179 259.678L199.094 259.708C199.093 259.708 199.091 259.708 199.09 259.708ZM202.708 259.614C202.635 259.614 202.574 259.556 202.573 259.482C202.571 259.407 202.63 259.345 202.705 259.343L203.791 259.318C203.879 259.323 203.928 259.376 203.929 259.451C203.931 259.525 203.872 259.588 203.797 259.589L202.711 259.614C202.71 259.614 202.709 259.614 202.708 259.614ZM206.327 259.537C206.253 259.537 206.192 259.477 206.191 259.403C206.19 259.329 206.249 259.266 206.324 259.265L207.409 259.245C207.411 259.245 207.411 259.245 207.412 259.245C207.486 259.245 207.546 259.304 207.548 259.378C207.549 259.453 207.489 259.515 207.414 259.516L206.329 259.536C206.328 259.537 206.327 259.537 206.327 259.537ZM221.887 259.523C221.886 259.523 221.884 259.523 221.883 259.523C221.536 259.511 221.175 259.501 220.799 259.492C220.724 259.49 220.665 259.428 220.666 259.353C220.668 259.278 220.729 259.221 220.805 259.221C221.182 259.23 221.544 259.24 221.892 259.251C221.966 259.254 222.026 259.316 222.023 259.391C222.021 259.465 221.96 259.523 221.887 259.523ZM209.945 259.478C209.871 259.478 209.811 259.418 209.81 259.344C209.808 259.269 209.869 259.207 209.944 259.206L211.029 259.193C211.03 259.193 211.03 259.193 211.031 259.193C211.105 259.193 211.166 259.253 211.166 259.327C211.167 259.402 211.107 259.463 211.032 259.464L209.947 259.478C209.946 259.478 209.946 259.478 209.945 259.478ZM218.269 259.45C218.269 259.45 218.268 259.45 218.268 259.45C217.915 259.447 217.553 259.444 217.183 259.442C217.108 259.441 217.047 259.38 217.048 259.305C217.048 259.231 217.109 259.17 217.183 259.17C217.184 259.17 217.184 259.17 217.184 259.17C217.555 259.172 217.917 259.175 218.27 259.179C218.345 259.179 218.405 259.241 218.405 259.315C218.404 259.39 218.343 259.45 218.269 259.45ZM213.564 259.443C213.49 259.443 213.429 259.383 213.429 259.308C213.428 259.233 213.489 259.172 213.564 259.171L214.65 259.167H214.65C214.725 259.167 214.785 259.227 214.786 259.302C214.786 259.377 214.725 259.438 214.65 259.438L213.565 259.443C213.565 259.443 213.565 259.443 213.564 259.443Z" fill="white"/>
<path d="M203.123 286.314L195.466 286.577C194.463 286.611 193.593 285.893 193.439 284.906L192.302 277.568C192.121 276.4 193.006 275.336 194.194 275.295L203.392 274.979C204.555 274.939 205.503 275.901 205.439 277.058L205.035 284.448C204.979 285.469 204.15 286.279 203.123 286.314Z" fill="#37928B"/>
<path d="M202.135 284.991L196.307 285.191C195.544 285.217 194.881 284.671 194.764 283.919L193.899 278.335C193.761 277.445 194.435 276.635 195.339 276.604L202.34 276.364C203.225 276.334 203.946 277.066 203.898 277.946L203.59 283.571C203.548 284.348 202.916 284.964 202.135 284.991Z" fill="#2E86AB"/>
<path d="M336.667 264.165L334.524 267.611L334.065 282.984H330.702L333.763 286.944L333.905 297.253C333.877 297.226 333.845 297.198 333.818 297.175L302.717 298.857L295.588 295.47L294.767 267.961L301.648 262.226L335.668 259.744L334.21 260.928V261.994H329.785L330.854 264.166L336.667 264.165Z" fill="#BDD0FB"/>
<path d="M302.725 291.514V298.854L280.278 288.991L280.24 286.312L277.027 281.572L279.321 280.045L279.169 265.667L277.026 262.455L278.861 259.092L278.732 257.028L302.001 262.152V273.773L296.088 271.631L296.345 273.163L301.825 275.916L302.585 289.064L295.849 286.16V287.536L302.725 291.514Z" fill="#91B3FA"/>
<path d="M278.685 257.028L306.732 254.161L335.749 259.742L301.906 262.367L278.685 257.028Z" fill="#7D97F4"/>
<g opacity="0.5">
<path d="M307.535 272.856L334.424 271.026L334.383 272.401L307.535 272.856Z" fill="#91B3FA"/>
<path d="M311.894 289.926C312.352 289.601 333.785 288.569 333.785 288.569L333.817 290.866L311.894 289.926Z" fill="#91B3FA"/>
</g>
<path d="M277.026 255.078L302.718 260.66C302.718 260.66 333.15 259.857 335.749 254.046C331.315 255.422 306.388 250.987 306.388 250.987L277.026 255.078Z" fill="#91B3FA"/>
<path d="M274.427 252.364C274.427 252.364 296.142 260.775 303.177 260.775C310.211 260.775 330.606 251.599 330.606 251.599C330.606 251.599 301.494 250.894 298.13 247.194C290.637 249.611 274.427 252.364 274.427 252.364Z" fill="#BDD0FB"/>
<defs>
<linearGradient id="paint0_linear_287_5066" x1="361.692" y1="338.542" x2="141.536" y2="100.914" gradientUnits="userSpaceOnUse">
<stop stop-color="#DAE3FE"/>
<stop offset="1" stop-color="#E9EFFD"/>
</linearGradient>
<linearGradient id="paint1_linear_287_5066" x1="193.262" y1="279.076" x2="280.561" y2="185.722" gradientUnits="userSpaceOnUse">
<stop stop-color="#FF928E"/>
<stop offset="1" stop-color="#FE7062"/>
</linearGradient>
<linearGradient id="paint2_linear_287_5066" x1="403.144" y1="-162.625" x2="349.939" y2="-93.1329" gradientUnits="userSpaceOnUse">
<stop stop-color="#FF928E"/>
<stop offset="1" stop-color="#FE7062"/>
</linearGradient>
<linearGradient id="paint3_linear_287_5066" x1="239.634" y1="92.2115" x2="224.435" y2="127.316" gradientUnits="userSpaceOnUse">
<stop stop-color="#FF928E"/>
<stop offset="1" stop-color="#FE7062"/>
</linearGradient>
<linearGradient id="paint4_linear_287_5066" x1="81.6562" y1="222.143" x2="93.3334" y2="222.143" gradientUnits="userSpaceOnUse">
<stop stop-color="#4F52FF"/>
<stop offset="1" stop-color="#4042E2"/>
</linearGradient>
<linearGradient id="paint5_linear_287_5066" x1="67.2984" y1="154.984" x2="47.2024" y2="190.645" gradientUnits="userSpaceOnUse">
<stop stop-color="#FEBBBA"/>
<stop offset="1" stop-color="#FF928E"/>
</linearGradient>
<linearGradient id="paint6_linear_287_5066" x1="-148.376" y1="-669.025" x2="-132.634" y2="-604.429" gradientUnits="userSpaceOnUse">
<stop stop-color="#FF928E"/>
<stop offset="1" stop-color="#FE7062"/>
</linearGradient>
<linearGradient id="paint7_linear_287_5066" x1="59.0196" y1="151.589" x2="108.951" y2="159.537" gradientUnits="userSpaceOnUse">
<stop stop-color="#FEBBBA"/>
<stop offset="1" stop-color="#FF928E"/>
</linearGradient>
<linearGradient id="paint8_linear_287_5066" x1="-869.82" y1="-1075.1" x2="-829.017" y2="-1022.6" gradientUnits="userSpaceOnUse">
<stop stop-color="#FF928E"/>
<stop offset="1" stop-color="#FE7062"/>
</linearGradient>
<linearGradient id="paint9_linear_287_5066" x1="172.952" y1="201.837" x2="182.431" y2="213.855" gradientUnits="userSpaceOnUse">
<stop stop-color="#09005D"/>
<stop offset="1" stop-color="#1A0F91"/>
</linearGradient>
<linearGradient id="paint10_linear_287_5066" x1="172.352" y1="216.091" x2="175.249" y2="209.816" gradientUnits="userSpaceOnUse">
<stop stop-color="#FEBBBA"/>
<stop offset="1" stop-color="#FF928E"/>
</linearGradient>
<linearGradient id="paint11_linear_287_5066" x1="183.789" y1="211.275" x2="202.262" y2="246.295" gradientUnits="userSpaceOnUse">
<stop stop-color="#09005D"/>
<stop offset="1" stop-color="#1A0F91"/>
</linearGradient>
<linearGradient id="paint12_linear_287_5066" x1="184.927" y1="225.058" x2="192.718" y2="208.186" gradientUnits="userSpaceOnUse">
<stop stop-color="#53D8FF"/>
<stop offset="1" stop-color="#3840F7"/>
</linearGradient>
<linearGradient id="paint13_linear_287_5066" x1="176.047" y1="223.301" x2="178.766" y2="217.413" gradientUnits="userSpaceOnUse">
<stop stop-color="#FEBBBA"/>
<stop offset="1" stop-color="#FF928E"/>
</linearGradient>
<linearGradient id="paint14_linear_287_5066" x1="-120.46" y1="-675.825" x2="-104.718" y2="-611.229" gradientUnits="userSpaceOnUse">
<stop stop-color="#FF928E"/>
<stop offset="1" stop-color="#FE7062"/>
</linearGradient>
<linearGradient id="paint15_linear_287_5066" x1="74.1854" y1="184.023" x2="80.4785" y2="170.393" gradientUnits="userSpaceOnUse">
<stop stop-color="#FEBBBA"/>
<stop offset="1" stop-color="#FF928E"/>
</linearGradient>
<linearGradient id="paint16_linear_287_5066" x1="69.3487" y1="159.419" x2="87.8687" y2="189.494" gradientUnits="userSpaceOnUse">
<stop stop-color="#FEBBBA"/>
<stop offset="1" stop-color="#FF928E"/>
</linearGradient>
<linearGradient id="paint17_linear_287_5066" x1="77.6591" y1="191.411" x2="68.7345" y2="171.778" gradientUnits="userSpaceOnUse">
<stop stop-color="#FEBBBA"/>
<stop offset="1" stop-color="#FF928E"/>
</linearGradient>
</defs>
</svg>
