<svg width="132" height="151" viewBox="0 0 132 151" fill="none" xmlns="http://www.w3.org/2000/svg">
<path d="M70.4608 19.5776C75.7352 18.5759 81.0765 17.7502 86.4447 17.8419C91.8129 17.9336 97.2422 18.9801 101.962 21.5361C107.391 24.476 111.734 29.2151 115.473 34.1245C121.392 41.8968 124.336 51.874 123.583 61.6105C122.741 72.4925 117.468 82.6554 110.538 91.0946C103.609 99.5338 95.0386 107.463 86.438 114.196C81.3738 118.16 74.5152 119.74 68.2243 118.39C61.9334 117.04 54.8677 113.243 53.7056 106.922C52.5078 100.406 48.3886 94.4825 42.6935 91.0863C38.285 88.4575 32.4746 87.4685 27.813 85.319C19.249 81.3697 13.7953 72.2072 12.8004 62.838C11.8055 53.4689 14.7906 44.0121 19.5536 35.8797C24.4323 27.5491 31.7533 20.731 40.9907 17.8987C50.2274 15.067 61.7984 15.3012 70.4608 19.5776Z" fill="#D8DBFF"/>
<path d="M111.025 40.3032L109.119 43.6005H112.931L111.025 40.3032Z" stroke="#060305" stroke-miterlimit="10" stroke-linecap="round" stroke-linejoin="round"/>
<path d="M15.8986 71.6685L12.5977 69.7648V73.5722L15.8986 71.6685Z" fill="#060305"/>
<path d="M119.242 98.78L121.148 95.4827H117.336L119.242 98.78Z" fill="#37928B"/>
<path d="M116.229 51.5074C116.229 51.2154 115.992 50.9786 115.7 50.9786C115.408 50.9786 115.171 51.2151 115.171 51.5074C115.171 51.7993 115.408 52.0358 115.7 52.0358C115.992 52.0361 116.229 51.7993 116.229 51.5074Z" fill="#060305"/>
<path d="M109.727 99.5404C109.727 99.2484 109.49 99.012 109.198 99.012C108.906 99.012 108.669 99.2484 108.669 99.5404C108.669 99.8323 108.906 100.069 109.198 100.069C109.49 100.069 109.727 99.8323 109.727 99.5404Z" stroke="#060305" stroke-miterlimit="10" stroke-linecap="round" stroke-linejoin="round"/>
<path d="M50.7798 76.915C50.7798 76.6231 50.543 76.3866 50.2507 76.3866C49.9584 76.3866 49.7217 76.6234 49.7217 76.915C49.7217 77.2069 49.9584 77.4434 50.2507 77.4434C50.543 77.4437 50.7798 77.2069 50.7798 76.915Z" fill="#37928B"/>
<path d="M31.5213 93.8027C31.5213 93.5108 31.2842 93.2743 30.9919 93.2743C30.6996 93.2743 30.4629 93.5108 30.4629 93.8027C30.4629 94.0946 30.6996 94.3311 30.9919 94.3311C31.2842 94.3311 31.5213 94.0946 31.5213 93.8027Z" fill="#37928B"/>
<path d="M104.101 108.334C104.101 108.042 103.865 107.806 103.572 107.806C103.28 107.806 103.043 108.042 103.043 108.334C103.043 108.626 103.28 108.863 103.572 108.863C103.865 108.863 104.101 108.626 104.101 108.334Z" fill="#37928B"/>
<path d="M124.527 42.1186C124.527 41.8267 124.29 41.5902 123.998 41.5902C123.706 41.5902 123.469 41.8267 123.469 42.1186C123.469 42.4106 123.706 42.647 123.998 42.647C124.29 42.647 124.527 42.4106 124.527 42.1186Z" fill="#37928B"/>
<path d="M104.63 82.0612C104.63 81.7693 104.394 81.5328 104.101 81.5328C103.809 81.5328 103.572 81.7696 103.572 82.0612C103.572 82.3528 103.809 82.5896 104.101 82.5896C104.393 82.59 104.63 82.3532 104.63 82.0612Z" fill="#060305"/>
<path d="M45.1121 60.0326C45.1121 59.7406 44.875 59.5042 44.5827 59.5042C44.2905 59.5042 44.0537 59.741 44.0537 60.0326C44.0537 60.3245 44.2908 60.5613 44.5827 60.5613C44.875 60.561 45.1121 60.3245 45.1121 60.0326Z" stroke="#060305" stroke-miterlimit="10" stroke-linecap="round" stroke-linejoin="round"/>
<path d="M2.05808 54.8164C2.05808 54.5244 1.82099 54.288 1.52904 54.288C1.23675 54.288 1 54.5244 1 54.8164C1 55.1083 1.23675 55.3448 1.52904 55.3448C1.82099 55.3451 2.05808 55.1083 2.05808 54.8164Z" stroke="#060305" stroke-miterlimit="10" stroke-linecap="round" stroke-linejoin="round"/>
<path d="M45.994 80.7992C45.994 80.5072 45.7569 80.2708 45.4649 80.2708C45.1726 80.2708 44.9355 80.5076 44.9355 80.7992C44.9355 81.0911 45.1726 81.3279 45.4649 81.3279C45.7569 81.3276 45.994 81.0911 45.994 80.7992Z" fill="#060305"/>
<path d="M35.6688 97.1312C35.6688 96.8393 35.432 96.6028 35.1394 96.6028C34.8471 96.6028 34.6104 96.8393 34.6104 97.1312C34.6104 97.4231 34.8474 97.6596 35.1394 97.6596C35.4317 97.6599 35.6688 97.4231 35.6688 97.1312Z" fill="#37928B"/>
<path d="M83.9508 0.907715H12.707V47.6066H83.9508V0.907715Z" fill="white"/>
<path d="M83.9508 0.907715H12.707V7.47508H83.9508V0.907715Z" fill="#37928B"/>
<path d="M16.3322 5.17077C16.8737 5.17077 17.3128 4.73226 17.3128 4.19134C17.3128 3.65042 16.8737 3.21191 16.3322 3.21191C15.7906 3.21191 15.3516 3.65042 15.3516 4.19134C15.3516 4.73226 15.7906 5.17077 16.3322 5.17077Z" fill="#37928B"/>
<path d="M20.4747 5.17077C21.0163 5.17077 21.4553 4.73226 21.4553 4.19134C21.4553 3.65042 21.0163 3.21191 20.4747 3.21191C19.9332 3.21191 19.4941 3.65042 19.4941 4.19134C19.4941 4.73226 19.9332 5.17077 20.4747 5.17077Z" fill="#37928B"/>
<path d="M25.596 4.19134C25.596 3.65031 25.157 3.21191 24.6154 3.21191C24.0737 3.21191 23.6348 3.65031 23.6348 4.19134C23.6348 4.73236 24.0737 5.17077 24.6154 5.17077C25.1567 5.17077 25.596 4.73236 25.596 4.19134Z" fill="#37928B"/>
<path d="M82.109 3.34082H27.8037" stroke="#060305" stroke-miterlimit="10" stroke-linecap="round" stroke-linejoin="round"/>
<path d="M82.109 5.04163H27.8037" stroke="#060305" stroke-miterlimit="10" stroke-linecap="round" stroke-linejoin="round"/>
<path d="M33.8051 61.4264L23.7913 66.9938L13.7775 61.4264C8.70422 58.6057 5.55859 53.2612 5.55859 47.462V23.7649L23.7913 16.8953L42.0239 23.7649V47.4617C42.0239 53.2615 38.8783 58.6057 33.8051 61.4264Z" fill="#37928B"/>
<path d="M32.1339 58.175L23.7913 62.8131L15.4488 58.175C11.2221 55.825 8.60156 51.3729 8.60156 46.5412V26.0945L23.7913 20.3713L38.9811 26.0945V46.5412C38.9811 51.3729 36.3609 55.8253 32.1339 58.175Z" fill="#37928B"/>
<path d="M33.7988 59.8883C37.9839 57.9059 40.8406 53.3987 40.8439 48.7722" stroke="#060305" stroke-miterlimit="10" stroke-linecap="round" stroke-linejoin="round"/>
<path d="M7.06641 24.3973C11.6884 22.5763 16.3108 20.7556 20.9328 18.9346" stroke="white" stroke-miterlimit="10" stroke-linecap="round" stroke-linejoin="round"/>
<path d="M23.791 16.8953V66.9938" stroke="#060305" stroke-miterlimit="10" stroke-linecap="round" stroke-linejoin="round"/>
<path d="M26.6602 54.7487C33.2692 53.1656 37.3419 46.5311 35.757 39.9301C34.172 33.329 27.5296 29.2611 20.9206 30.8442C14.3117 32.4273 10.239 39.0618 11.8239 45.6628C13.4089 52.2638 20.0513 56.3317 26.6602 54.7487Z" fill="white"/>
<path d="M23.4572 51.9683L13.7949 40.5589L17.1537 37.7216L22.9817 44.6051L31.7376 31.0619L35.4329 33.4442L23.4572 51.9683Z" fill="#FF99A8"/>
<path d="M107.597 14.6127H69.1016V23.1638H99.686L101.235 25.844L102.785 23.1638H107.597V14.6127Z" fill="#37928B"/>
<path d="M74.1103 21.0492L71.9766 18.5298L72.7184 17.9034L74.0053 19.4235L75.9388 16.4327L76.7549 16.9588L74.1103 21.0492Z" fill="white"/>
<path d="M105.223 17.1876H79.1406" stroke="#060305" stroke-miterlimit="10" stroke-linecap="round" stroke-linejoin="round"/>
<path d="M105.223 18.8881H79.1406" stroke="#060305" stroke-miterlimit="10" stroke-linecap="round" stroke-linejoin="round"/>
<path d="M105.223 20.5889H79.1406" stroke="#060305" stroke-miterlimit="10" stroke-linecap="round" stroke-linejoin="round"/>
<path d="M89.0957 28.8833H127.591V37.4344H97.007L95.4575 40.1146L93.9083 37.4344H89.0957V28.8833Z" fill="white"/>
<path d="M121.753 35.3197L119.619 32.8003L120.361 32.1739L121.648 33.6937L123.581 30.7032L124.397 31.2293L121.753 35.3197Z" fill="#37928B"/>
<path d="M117.141 31.4519H91.0586" stroke="#060305" stroke-miterlimit="10" stroke-linecap="round" stroke-linejoin="round"/>
<path d="M117.141 33.1527H91.0586" stroke="#060305" stroke-miterlimit="10" stroke-linecap="round" stroke-linejoin="round"/>
<path d="M117.141 34.8535H91.0586" stroke="#060305" stroke-miterlimit="10" stroke-linecap="round" stroke-linejoin="round"/>
<path d="M70.6478 150.73C92.0819 150.73 109.458 149.621 109.458 148.252C109.458 146.884 92.0819 145.774 70.6478 145.774C49.2137 145.774 31.8379 146.884 31.8379 148.252C31.8379 149.621 49.2137 150.73 70.6478 150.73Z" fill="#215F79"/>
<path d="M96.6389 145.793C94.6405 143.714 94.6402 140.422 95.8838 137.822C90.2665 137.953 85.0127 138.35 79.3955 138.481C79.4923 141.551 79.5894 144.619 79.6861 147.689L99.1518 148.253C99.1518 146.924 97.3489 146.532 96.6389 145.793Z" fill="#060305"/>
<path d="M88.832 141.083C90.2436 141.044 91.6551 141.004 93.067 140.964" stroke="white" stroke-miterlimit="10" stroke-linecap="round" stroke-linejoin="round"/>
<path d="M89.0801 142.251C90.602 142.256 92.124 142.26 93.6456 142.265" stroke="white" stroke-miterlimit="10" stroke-linecap="round" stroke-linejoin="round"/>
<path d="M89.4951 143.59C90.9619 143.606 92.4283 143.621 93.895 143.637" stroke="white" stroke-miterlimit="10" stroke-linecap="round" stroke-linejoin="round"/>
<path d="M56.8667 145.528C55.2217 144.49 54.4819 142.364 54.0755 140.464C53.7433 138.912 53.9116 136.975 54.682 135.586C49.271 134.239 43.9996 133.046 38.5881 131.698C38.0737 135.273 37.5593 138.848 37.0449 142.422C39.8441 144.159 42.6502 145.989 45.4493 147.726L59.1674 147.775C59.4048 146.379 57.7874 146.109 56.8667 145.528Z" fill="#060305"/>
<path d="M47.4922 138.974C48.9027 138.945 50.3133 138.916 51.7238 138.887" stroke="white" stroke-miterlimit="10" stroke-linecap="round" stroke-linejoin="round"/>
<path d="M47.2432 140.238C48.8762 140.275 50.5092 140.313 52.1422 140.351" stroke="white" stroke-miterlimit="10" stroke-linecap="round" stroke-linejoin="round"/>
<path d="M47.7402 141.577C49.4836 141.626 51.227 141.674 52.9704 141.722" stroke="white" stroke-miterlimit="10" stroke-linecap="round" stroke-linejoin="round"/>
<path d="M94.8657 69.0406L61.252 71.6C58.3455 81.3002 55.4389 91.0005 52.5324 100.701C47.3052 109.237 40.4916 120.889 37.3965 132.344C43.6359 134.291 49.8616 136.07 56.1007 138.016C60.1664 129.475 64.3957 120.953 68.461 112.413C71.3317 106.383 74.196 100.533 77.0194 94.4808C77.7353 99.5427 78.1121 104.674 78.828 109.736C78.5683 120.22 78.2697 129.406 77.9192 139.313C84.3102 139.414 90.9064 139.067 97.2974 139.167C97.3419 128.844 97.3443 118.542 97.3892 108.219C97.446 95.1776 95.6754 82.0561 94.8657 69.0406Z" fill="#37928B"/>
<path d="M76.9678 94.6774C77.6278 92.8341 78.2879 90.9909 78.9479 89.1476" stroke="#060305" stroke-miterlimit="10" stroke-linecap="round" stroke-linejoin="round"/>
<path d="M62.639 76.2374C60.2745 84.3671 57.9099 92.4968 55.5451 100.626C55.9258 100.566 55.9514 101.092 55.967 101.476C55.9827 101.861 55.7399 102.217 55.4353 102.452C55.0204 102.773 54.4737 102.919 53.954 102.847C48.6456 111.12 44.0522 119.713 40.627 128.925" stroke="#060305" stroke-miterlimit="10" stroke-linecap="round" stroke-linejoin="round"/>
<path d="M38.8242 128.559C45.027 130.618 51.2298 132.677 57.4326 134.735" stroke="#060305" stroke-miterlimit="10" stroke-linecap="round" stroke-linejoin="round"/>
<path d="M78.541 135.567C84.6544 135.374 90.7677 135.182 96.8811 134.989" stroke="#060305" stroke-miterlimit="10" stroke-linecap="round" stroke-linejoin="round"/>
<path d="M78.0996 91.6708C79.0702 97.2434 80.0412 102.816 81.0118 108.389C80.5519 109.186 80.4515 110.398 81.1229 111.028C80.7927 119.154 80.3933 127.204 80.0631 135.329" stroke="#060305" stroke-miterlimit="10" stroke-linecap="round" stroke-linejoin="round"/>
<path d="M105.389 49.9055C108.506 52.0059 111.452 58.2839 110.166 62.3166C108.88 66.3492 105.642 67.8832 102.696 68.588C99.7489 69.2928 92.6929 66.4236 92.6929 66.4236L90.2715 57.8097L98.1429 50.3917L105.389 49.9055Z" fill="#215F79"/>
<path d="M100.372 53.3775C98.6401 51.5352 97.4853 49.2628 95.6338 47.5404C92.2062 44.3514 87.4559 43.0618 82.772 43.0007C80.4614 42.9704 78.1906 42.8625 75.8799 42.8323C75.7994 43.3989 75.3968 43.9007 74.8737 44.1342C74.3507 44.3677 73.7252 44.3391 73.2095 44.09C72.6937 43.8409 72.3023 43.362 72.0852 42.8326C70.0522 43.6221 68.0188 44.4112 65.9858 45.2003C61.3199 47.0117 57.1565 50.1971 54.7334 54.5721C57.4095 55.6349 59.9436 56.8877 62.6197 57.9504C62.1319 62.5915 61.5943 67.2635 61.1064 71.9045L94.5029 72.9005C94.1744 67.9294 93.3997 62.9605 92.0935 58.1524C94.8498 56.5412 97.6153 54.9882 100.372 53.3775Z" fill="white"/>
<path d="M69.4355 44.1196C70.4554 45.8892 72.5619 46.9696 74.5962 46.7666C76.6303 46.5637 78.481 45.0878 79.1301 43.1515" stroke="#060305" stroke-miterlimit="10" stroke-linecap="round" stroke-linejoin="round"/>
<path d="M64.6309 46.0891C65.6297 45.4833 66.9951 45.7118 67.8972 46.4537C68.7993 47.1957 69.2781 48.3571 69.4088 49.5169C69.5398 50.6767 69.3569 51.8481 69.1335 52.9935C68.77 54.8567 68.2965 56.6987 67.717 58.5068" stroke="#060305" stroke-miterlimit="10" stroke-linecap="round" stroke-linejoin="round"/>
<path d="M85.4941 43.3328C86.4086 46.2747 87.8337 49.028 89.2513 51.7633C90.3107 53.8075 91.3701 55.8514 92.4298 57.8956" stroke="#060305" stroke-miterlimit="10" stroke-linecap="round" stroke-linejoin="round"/>
<path d="M73.968 83.935C73.968 83.935 79.4313 86.7042 83.6649 87.5126L89.7683 84.9878L91.1562 82.849L78.5684 78.2544L72.0225 80.7991L73.968 83.935Z" fill="#215F79"/>
<path d="M84.167 85.6152C86.0185 85.0151 87.8703 84.4149 89.7217 83.8145" stroke="#060305" stroke-miterlimit="10" stroke-linecap="round" stroke-linejoin="round"/>
<path d="M100.992 61.7015L97.3765 61.3999C97.444 60.5846 97.4095 59.7861 97.2711 59.0279C96.3747 54.1032 91.6343 50.8255 86.7044 51.7206C81.7731 52.616 78.4915 57.3507 79.388 62.2754C79.5253 63.0296 79.774 63.7895 80.1268 64.5341L76.8465 66.0841C76.3587 65.0529 76.0126 63.9895 75.8187 62.9233C74.5644 56.0332 79.1572 49.408 86.0556 48.1553C92.954 46.9025 99.5865 51.4894 100.841 58.3796C101.036 59.4507 101.087 60.5686 100.992 61.7015Z" fill="#F6921E"/>
<path d="M77.3906 56.0319C78.5185 52.7532 81.3922 50.1321 84.7632 49.3068" stroke="white" stroke-miterlimit="10" stroke-linecap="round" stroke-linejoin="round"/>
<path d="M74.0207 64.8209C73.9123 66.1328 74.3875 69.8532 74.6342 71.2099C76.1522 79.5491 84.1512 85.0803 92.5004 83.5642C100.85 82.048 106.388 74.0585 104.87 65.7193C104.623 64.3626 103.756 60.7132 103.193 59.5236L74.0207 64.8209Z" fill="#FFCF8F"/>
<path d="M92.821 68.1869C92.5178 66.5213 90.92 65.4167 89.2524 65.7196C87.5852 66.0224 86.4792 67.618 86.7825 69.2835C87.0282 70.6333 88.1275 71.6001 89.422 71.7625L89.4619 78.3554L93.51 77.6205L91.2239 71.4354C92.3784 70.8282 93.0667 69.537 92.821 68.1869Z" fill="#060305"/>
<path d="M86.1224 68.793C86.0569 67.9863 86.2834 67.1593 86.7502 66.4981C87.2171 65.8368 87.921 65.346 88.7038 65.1367" stroke="#060305" stroke-miterlimit="10" stroke-linecap="round" stroke-linejoin="round"/>
<path d="M97.4551 80.3886C101.292 77.8386 103.766 73.3543 103.875 68.7524" stroke="#060305" stroke-miterlimit="10" stroke-linecap="round" stroke-linejoin="round"/>
<path d="M70.4453 35.3876C70.6375 35.4335 70.8297 35.4793 71.0216 35.5252" stroke="#060305" stroke-miterlimit="10" stroke-linecap="round" stroke-linejoin="round"/>
<path d="M74.2221 33.8856C72.8511 33.8707 71.4961 34.6116 70.7699 35.773C70.0437 36.9345 69.9718 38.4758 70.587 39.6997L77.1266 38.081C77.3019 37.3373 77.4568 36.5917 77.6321 35.8478C76.9318 34.6707 75.5931 33.9005 74.2221 33.8856Z" fill="#060305"/>
<path d="M77.9593 43.297C77.4372 43.298 76.8932 43.3372 76.3711 43.3382C76.3682 42.9277 76.3881 42.4839 76.3851 42.0734C77.0874 41.9047 77.7109 41.4328 78.0633 40.8034C78.4158 40.1737 78.5472 39.4215 78.2951 38.7453C77.9729 37.8801 77.6796 36.9475 77.3574 36.0826C76.9075 36.5669 76.2571 36.8512 75.602 36.7602C74.8003 37.533 73.4563 37.7456 72.4601 37.2474C72.4315 37.7579 72.479 38.1544 72.4504 38.6649C71.8718 38.4022 71.1366 38.5344 70.6857 38.9824C70.2352 39.4301 70.0985 40.1634 70.3582 40.743C70.6179 41.3225 71.2563 41.7094 71.8908 41.6722C71.8 42.2598 71.6401 42.8546 71.5493 43.4421C71.1466 43.6009 70.6621 43.7719 70.2595 43.9307C71.1127 45.2256 72.6815 46.0131 74.2301 45.9118C75.7799 45.8101 77.2819 44.6919 77.9593 43.297Z" fill="#215F79"/>
<path d="M74.561 39.2722C74.7447 39.2722 74.8936 39.1237 74.8936 38.9405C74.8936 38.7573 74.7447 38.6088 74.561 38.6088C74.3774 38.6088 74.2285 38.7573 74.2285 38.9405C74.2285 39.1237 74.3774 39.2722 74.561 39.2722Z" fill="#060305"/>
<path d="M77.3032 38.3564C77.4869 38.3564 77.6357 38.2079 77.6357 38.0247C77.6357 37.8415 77.4869 37.693 77.3032 37.693C77.1196 37.693 76.9707 37.8415 76.9707 38.0247C76.9707 38.2079 77.1196 38.3564 77.3032 38.3564Z" fill="#060305"/>
<path d="M76.1709 38.2029C76.3222 38.5416 76.4735 38.8804 76.6248 39.2188C76.5064 39.2334 76.3338 39.2756 76.2155 39.2902" stroke="#060305" stroke-miterlimit="10" stroke-linecap="round" stroke-linejoin="round"/>
<path d="M75.7217 39.8518C75.7589 39.9837 75.8713 40.092 76.005 40.1242C76.1387 40.1566 76.2883 40.1116 76.3821 40.0115" stroke="#060305" stroke-miterlimit="10" stroke-linecap="round" stroke-linejoin="round"/>
<path d="M73.8496 38.0201C73.9407 37.8052 74.1183 37.6287 74.3338 37.5385C74.5492 37.4482 74.8003 37.4456 75.0174 37.5315" stroke="#060305" stroke-miterlimit="10" stroke-linecap="round" stroke-linejoin="round"/>
<path d="M76.6357 37.025C76.821 36.9731 77.0058 36.9213 77.191 36.8694" stroke="#060305" stroke-miterlimit="10" stroke-linecap="round" stroke-linejoin="round"/>
<path d="M71.3076 39.6755C71.5886 39.6839 71.8699 39.6925 72.1509 39.7008" stroke="#060305" stroke-miterlimit="10" stroke-linecap="round" stroke-linejoin="round"/>
<path d="M74.1035 42.0931C74.9268 42.3292 75.8167 42.3282 76.6393 42.0901" stroke="#060305" stroke-miterlimit="10" stroke-linecap="round" stroke-linejoin="round"/>
<path d="M71.8145 41.6998C72.0143 41.6253 72.2141 41.5512 72.4137 41.4767" stroke="#060305" stroke-miterlimit="10" stroke-linecap="round" stroke-linejoin="round"/>
<path d="M105.388 49.9055C103.622 48.8573 101.926 47.5112 99.8833 47.2867C96.9029 46.9592 93.9036 46.8044 90.9053 46.824C90.7636 46.9469 90.7144 47.121 90.7932 47.2907C90.5019 47.296 90.1834 47.3448 89.8921 47.3501C89.7943 47.6175 89.8791 47.8995 90.0856 48.0957C90.2921 48.292 90.5644 48.4003 90.8295 48.5042C91.9304 48.936 93.0311 49.3678 94.132 49.7992C93.3213 49.936 92.5107 49.9559 91.7 50.0928C91.6391 50.2977 91.7978 50.4946 91.9697 50.6218C92.1416 50.749 92.3567 50.8005 92.5652 50.849C94.2913 51.2512 96.0174 51.6537 97.7435 52.0559C98.5705 52.9411 99.3818 53.7983 100.209 54.6834C101.078 55.6126 102.234 56.3393 103.495 56.1659C104.756 55.9929 105.874 55.0321 106.233 53.8125C106.606 52.5448 106.526 50.581 105.388 49.9055Z" fill="#215F79"/>
<path d="M93.8955 49.7126C95.182 49.7206 96.4689 49.7286 97.7554 49.7366" stroke="#060305" stroke-miterlimit="10" stroke-linecap="round" stroke-linejoin="round"/>
<path d="M90.7119 47.1732C93.7249 47.5166 96.7382 47.86 99.7511 48.2038" stroke="#060305" stroke-miterlimit="10" stroke-linecap="round" stroke-linejoin="round"/>
<path d="M99.4941 53.863C100.56 55.5469 102.701 56.4775 104.66 56.1088" stroke="#060305" stroke-miterlimit="10" stroke-linecap="round" stroke-linejoin="round"/>
<path d="M78.4337 75.7283C77.2928 75.6954 76.4283 75.5775 75.2871 75.5446C71.6722 72.0454 68.0774 68.5133 64.4626 65.0144C65.225 62.7603 65.9878 60.5062 66.7503 58.2521L55.8902 54.8163C55.0207 57.4772 53.9118 60.2345 53.1752 62.9353C52.2239 66.4233 52.7855 71.4692 57.6622 74.9648C62.9779 78.7748 68.3118 81.3249 73.9673 83.935L74.6852 82.2382C78.1334 81.3172 81.4662 79.6702 85.0332 79.5414C85.7165 79.5168 86.3626 78.906 86.329 78.2242C83.6835 77.4032 81.2032 75.8083 78.4337 75.7283Z" fill="#215F79"/>
<path d="M80.2405 80.4885C79.7573 80.5776 79.2742 80.6668 78.791 80.7555" stroke="#060305" stroke-miterlimit="10" stroke-linecap="round" stroke-linejoin="round"/>
<path d="M64.5094 64.9368C64.0253 65.0329 63.5408 65.1293 63.0566 65.2254" stroke="#060305" stroke-miterlimit="10" stroke-linecap="round" stroke-linejoin="round"/>
<path d="M30.7769 81.3275C30.4484 82.3471 29.0039 82.3471 28.6754 81.3275C28.3468 80.3078 26.9024 80.3078 26.5739 81.3275C26.2453 82.3471 24.8009 82.3471 24.4723 81.3275C24.1438 80.3078 22.6994 80.3078 22.3708 81.3275C22.0423 82.3471 20.5978 82.3471 20.2693 81.3275C19.9408 80.3078 18.4963 80.3078 18.1678 81.3275C17.8393 82.3471 16.3948 82.3471 16.0663 81.3275C15.7377 80.3078 14.2933 80.3078 13.9648 81.3275C13.6362 82.3471 12.1918 82.3471 11.8632 81.3275C11.5347 80.3078 10.0902 80.3078 9.76172 81.3275" stroke="#060305" stroke-miterlimit="10" stroke-linecap="round" stroke-linejoin="round"/>
<path d="M131 73.7595C130.671 74.7791 129.227 74.7791 128.898 73.7595C128.57 72.7398 127.125 72.7398 126.797 73.7595C126.468 74.7791 125.024 74.7791 124.695 73.7595C124.366 72.7398 122.922 72.7398 122.593 73.7595C122.265 74.7791 120.82 74.7791 120.492 73.7595C120.163 72.7398 118.719 72.7398 118.39 73.7595C118.062 74.7791 116.617 74.7791 116.289 73.7595C115.96 72.7398 114.516 72.7398 114.187 73.7595C113.859 74.7791 112.414 74.7791 112.086 73.7595C111.757 72.7398 110.313 72.7398 109.984 73.7595" stroke="#060305" stroke-miterlimit="10" stroke-linecap="round" stroke-linejoin="round"/>
<path d="M70.648 28.2283C70.3195 29.2479 68.875 29.2479 68.5465 28.2283C68.2179 27.2087 66.7735 27.2087 66.445 28.2283C66.1164 29.2479 64.672 29.2479 64.3434 28.2283C64.0149 27.2087 62.5704 27.2087 62.2419 28.2283C61.9134 29.2479 60.4689 29.2479 60.1404 28.2283C59.8119 27.2087 58.3674 27.2087 58.0389 28.2283C57.7104 29.2479 56.2659 29.2479 55.9374 28.2283C55.6088 27.2087 54.1644 27.2087 53.8358 28.2283C53.5073 29.2479 52.0629 29.2479 51.7343 28.2283C51.4058 27.2087 49.9613 27.2087 49.6328 28.2283" stroke="#060305" stroke-miterlimit="10" stroke-linecap="round" stroke-linejoin="round"/>
</svg>
