<svg width="200" height="197" viewBox="0 0 200 197" fill="none" xmlns="http://www.w3.org/2000/svg">
<path d="M190.932 197H8.49178C7.79303 197 7.22656 196.433 7.22656 195.734C7.22656 195.035 7.79303 194.468 8.49178 194.468H190.932C191.631 194.468 192.197 195.035 192.197 195.734C192.197 196.433 191.631 197 190.932 197Z" fill="#003C99"/>
<path d="M9.1753 60.1346C9.18455 60.0155 9.19068 59.8956 9.19068 59.7743C9.19068 57.2346 7.13329 55.1758 4.59534 55.1758C2.05739 55.1758 0 57.2346 0 59.7743C0 59.8956 0.00612785 60.0155 0.0153782 60.1346H9.1753Z" fill="#80B2FF"/>
<path d="M24.272 60.1346C24.2812 60.0155 24.2874 59.8956 24.2874 59.7743C24.2874 57.2346 22.23 55.1758 19.692 55.1758C17.1541 55.1758 15.0967 57.2346 15.0967 59.7743C15.0967 59.8956 15.1028 60.0155 15.1121 60.1346H24.272Z" fill="#80B2FF"/>
<path d="M28.1816 60.1347C28.1947 60.0163 28.202 59.8962 28.202 59.7743C28.202 57.9785 26.7471 56.5227 24.9525 56.5227C23.158 56.5227 21.7031 57.9785 21.7031 59.7743C21.7031 59.8962 21.7104 60.0163 21.7235 60.1347H28.1816Z" fill="#80B2FF"/>
<path d="M18.9858 60.1346C19.0214 59.8539 19.0398 59.5678 19.0398 59.2774C19.0398 55.557 16.0258 52.541 12.308 52.541C8.59005 52.541 5.57617 55.5571 5.57617 59.2774C5.57617 59.5679 5.59455 59.8539 5.63017 60.1346H18.9858Z" fill="#80B2FF"/>
<path d="M122.4 7.59356C122.409 7.4745 122.415 7.35463 122.415 7.23325C122.415 4.69356 120.358 2.63477 117.82 2.63477C115.282 2.63477 113.225 4.69356 113.225 7.23325C113.225 7.35463 113.231 7.4745 113.24 7.59356H122.4Z" fill="#80B2FF"/>
<path d="M137.497 7.59356C137.506 7.4745 137.512 7.35463 137.512 7.23325C137.512 4.69356 135.455 2.63477 132.917 2.63477C130.379 2.63477 128.321 4.69356 128.321 7.23325C128.321 7.35463 128.327 7.4745 128.337 7.59356H137.497Z" fill="#80B2FF"/>
<path d="M132.21 7.59359C132.246 7.31289 132.264 7.02674 132.264 6.73643C132.264 3.01594 129.25 0 125.533 0C121.815 0 118.801 3.01606 118.801 6.73643C118.801 7.02674 118.819 7.31289 118.855 7.59359H132.21Z" fill="#80B2FF"/>
<path d="M98.2586 60.3937H96.603C96.4805 60.3937 96.3813 60.2944 96.3813 60.1718C96.3813 60.0492 96.4805 59.9499 96.603 59.9499H98.2586C98.381 59.9499 98.4802 60.0492 98.4802 60.1718C98.4802 60.2944 98.381 60.3937 98.2586 60.3937ZM94.9474 60.3937H93.2918C93.1694 60.3937 93.0702 60.2944 93.0702 60.1718C93.0702 60.0492 93.1694 59.9499 93.2918 59.9499H94.9474C95.0699 59.9499 95.1691 60.0492 95.1691 60.1718C95.1692 60.2944 95.0699 60.3937 94.9474 60.3937ZM91.6364 60.3937H89.9808C89.8583 60.3937 89.7591 60.2944 89.7591 60.1718C89.7591 60.0492 89.8583 59.9499 89.9808 59.9499H91.6364C91.7588 59.9499 91.858 60.0492 91.858 60.1718C91.858 60.2944 91.7588 60.3937 91.6364 60.3937ZM88.3253 60.3937H86.6697C86.5473 60.3937 86.4481 60.2944 86.4481 60.1718C86.4481 60.0492 86.5473 59.9499 86.6697 59.9499H88.3253C88.4478 59.9499 88.547 60.0492 88.547 60.1718C88.547 60.2944 88.4478 60.3937 88.3253 60.3937ZM85.0143 60.3937H83.3587C83.2363 60.3937 83.137 60.2944 83.137 60.1718C83.137 60.0492 83.2363 59.9499 83.3587 59.9499H85.0143C85.1367 59.9499 85.2359 60.0492 85.2359 60.1718C85.2359 60.2944 85.1367 60.3937 85.0143 60.3937ZM81.7031 60.3937H80.0475C79.9251 60.3937 79.8259 60.2944 79.8259 60.1718C79.8259 60.0492 79.9251 59.9499 80.0475 59.9499H81.7031C81.8256 59.9499 81.9248 60.0492 81.9248 60.1718C81.9249 60.2944 81.8256 60.3937 81.7031 60.3937ZM78.3921 60.3937H76.7365C76.614 60.3937 76.5148 60.2944 76.5148 60.1718C76.5148 60.0492 76.614 59.9499 76.7365 59.9499H78.3921C78.5145 59.9499 78.6137 60.0492 78.6137 60.1718C78.6139 60.2944 78.5145 60.3937 78.3921 60.3937ZM75.081 60.3937H73.4255C73.303 60.3937 73.2037 60.2944 73.2037 60.1718C73.2037 60.0492 73.3029 59.9499 73.4255 59.9499H75.081C75.2035 59.9499 75.3027 60.0492 75.3027 60.1718C75.3027 60.2944 75.2035 60.3937 75.081 60.3937ZM71.7699 60.3937H70.1143C69.9918 60.3937 69.8926 60.2944 69.8926 60.1718C69.8926 60.0492 69.9918 59.9499 70.1143 59.9499H71.7699C71.8923 59.9499 71.9916 60.0492 71.9916 60.1718C71.9916 60.2944 71.8924 60.3937 71.7699 60.3937ZM68.4588 60.3937H66.8032C66.6808 60.3937 66.5816 60.2944 66.5816 60.1718C66.5816 60.0492 66.6808 59.9499 66.8032 59.9499H68.4588C68.5813 59.9499 68.6805 60.0492 68.6805 60.1718C68.6806 60.2944 68.5813 60.3937 68.4588 60.3937ZM65.1477 60.3937H63.4922C63.3697 60.3937 63.2705 60.2944 63.2705 60.1718C63.2705 60.0492 63.3697 59.9499 63.4922 59.9499H65.1477C65.2701 59.9499 65.3694 60.0492 65.3694 60.1718C65.3694 60.2944 65.2702 60.3937 65.1477 60.3937ZM61.8366 60.3937H60.1811C60.0587 60.3937 59.9594 60.2944 59.9594 60.1718C59.9594 60.0492 60.0586 59.9499 60.1811 59.9499H61.8366C61.9591 59.9499 62.0583 60.0492 62.0583 60.1718C62.0584 60.2944 61.9591 60.3937 61.8366 60.3937ZM58.5256 60.3937H56.8701C56.7477 60.3937 56.6484 60.2944 56.6484 60.1718C56.6484 60.0492 56.7477 59.9499 56.8701 59.9499H58.5256C58.648 59.9499 58.7472 60.0492 58.7472 60.1718C58.7472 60.2944 58.648 60.3937 58.5256 60.3937ZM55.2145 60.3937H53.5591C53.4366 60.3937 53.3373 60.2944 53.3373 60.1718C53.3373 60.0492 53.4365 59.9499 53.5591 59.9499H55.2145C55.337 59.9499 55.4362 60.0492 55.4362 60.1718C55.4362 60.2944 55.337 60.3937 55.2145 60.3937ZM51.9034 60.3937H50.2478C50.1253 60.3937 50.0261 60.2944 50.0261 60.1718C50.0261 60.0492 50.1253 59.9499 50.2478 59.9499H51.9034C52.0258 59.9499 52.1251 60.0492 52.1251 60.1718C52.1251 60.2944 52.0259 60.3937 51.9034 60.3937ZM48.5923 60.3937H46.9367C46.8143 60.3937 46.715 60.2944 46.715 60.1718C46.715 60.0492 46.8142 59.9499 46.9367 59.9499H48.5923C48.7148 59.9499 48.814 60.0492 48.814 60.1718C48.8141 60.2944 48.7148 60.3937 48.5923 60.3937ZM45.2813 60.3937H43.6257C43.5032 60.3937 43.4039 60.2944 43.4039 60.1718C43.4039 60.0492 43.5031 59.9499 43.6257 59.9499H45.2813C45.4037 59.9499 45.5029 60.0492 45.5029 60.1718C45.503 60.2944 45.4037 60.3937 45.2813 60.3937ZM41.9702 60.3937H40.3146C40.1922 60.3937 40.0929 60.2944 40.0929 60.1718C40.0929 60.0492 40.1921 59.9499 40.3146 59.9499H41.9702C42.0927 59.9499 42.192 60.0492 42.192 60.1718C42.1919 60.2944 42.0927 60.3937 41.9702 60.3937ZM38.6592 60.3937H38.3892C37.865 60.3937 37.3614 60.209 36.971 59.8738C36.8781 59.794 36.8674 59.654 36.9472 59.5609C37.0268 59.4679 37.1669 59.4573 37.2598 59.5371C37.5698 59.8033 37.9708 59.9499 38.3892 59.9499H38.6592C38.7816 59.9499 38.8808 60.0492 38.8808 60.1718C38.8808 60.2944 38.7816 60.3937 38.6592 60.3937ZM99.8286 60.0012C99.7615 60.0012 99.6953 59.9708 99.6517 59.9131C99.5778 59.8154 99.5971 59.6763 99.6948 59.6025C100.098 59.2976 100.329 58.8428 100.33 58.3547C100.331 58.2323 100.43 58.1332 100.552 58.1332H100.552C100.675 58.1334 100.774 58.2329 100.774 58.3555C100.772 58.9835 100.477 59.5671 99.9621 59.9563C99.9222 59.9865 99.8753 60.0012 99.8286 60.0012ZM36.4834 58.4593C36.3609 58.4593 36.2617 58.36 36.2617 58.2373V56.5807C36.2617 56.4582 36.3609 56.3589 36.4834 56.3589C36.6058 56.3589 36.7052 56.4582 36.7052 56.5807V58.2373C36.705 58.36 36.6058 58.4593 36.4834 58.4593ZM100.552 56.9202C100.43 56.9202 100.33 56.821 100.33 56.6984V55.0417C100.33 54.9192 100.43 54.8199 100.552 54.8199C100.674 54.8199 100.774 54.9192 100.774 55.0417V56.6984C100.774 56.8208 100.674 56.9202 100.552 56.9202ZM36.4834 55.146C36.3609 55.146 36.2617 55.0467 36.2617 54.9242V53.2676C36.2617 53.145 36.3609 53.0457 36.4834 53.0457C36.6058 53.0457 36.7052 53.145 36.7052 53.2676V54.9242C36.705 55.0467 36.6058 55.146 36.4834 55.146ZM100.552 53.6069C100.43 53.6069 100.33 53.5077 100.33 53.385V51.7283C100.33 51.6058 100.43 51.5065 100.552 51.5065C100.674 51.5065 100.774 51.6058 100.774 51.7283V53.385C100.774 53.5075 100.674 53.6069 100.552 53.6069ZM36.4834 51.8327C36.3609 51.8327 36.2617 51.7334 36.2617 51.6108V49.9542C36.2617 49.8317 36.3609 49.7324 36.4834 49.7324C36.6058 49.7324 36.7052 49.8317 36.7052 49.9542V51.6108C36.705 51.7333 36.6058 51.8327 36.4834 51.8327ZM100.552 50.2935C100.43 50.2935 100.33 50.1942 100.33 50.0717V48.415C100.33 48.2924 100.43 48.1931 100.552 48.1931C100.674 48.1931 100.774 48.2923 100.774 48.415V50.0717C100.774 50.1942 100.674 50.2935 100.552 50.2935ZM36.4834 48.5192C36.3609 48.5192 36.2617 48.42 36.2617 48.2974V46.6408C36.2617 46.5183 36.3609 46.4189 36.4834 46.4189C36.6058 46.4189 36.7052 46.5182 36.7052 46.6408V48.2974C36.705 48.42 36.6058 48.5192 36.4834 48.5192ZM100.552 46.9802C100.43 46.9802 100.33 46.8809 100.33 46.7583V45.1016C100.33 44.979 100.43 44.8797 100.552 44.8797C100.674 44.8797 100.774 44.979 100.774 45.1016V46.7583C100.774 46.8809 100.674 46.9802 100.552 46.9802ZM36.4834 45.2059C36.3609 45.2059 36.2617 45.1066 36.2617 44.9841V43.3274C36.2617 43.2049 36.3609 43.1056 36.4834 43.1056C36.6058 43.1056 36.7052 43.2049 36.7052 43.3274V44.9841C36.705 45.1066 36.6058 45.2059 36.4834 45.2059ZM100.552 43.6668C100.43 43.6668 100.33 43.5675 100.33 43.445V41.7884C100.33 41.6658 100.43 41.5664 100.552 41.5664C100.674 41.5664 100.774 41.6657 100.774 41.7884V43.445C100.774 43.5675 100.674 43.6668 100.552 43.6668ZM36.4834 41.8926C36.3609 41.8926 36.2617 41.7933 36.2617 41.6708V40.0141C36.2617 39.8916 36.3609 39.7923 36.4834 39.7923C36.6058 39.7923 36.7052 39.8916 36.7052 40.0141V41.6708C36.705 41.7932 36.6058 41.8926 36.4834 41.8926ZM100.552 40.3535C100.43 40.3535 100.33 40.2542 100.33 40.1315V38.4749C100.33 38.3524 100.43 38.253 100.552 38.253C100.674 38.253 100.774 38.3523 100.774 38.4749V40.1315C100.774 40.2542 100.674 40.3535 100.552 40.3535ZM36.4834 38.5793C36.3609 38.5793 36.2617 38.48 36.2617 38.3574V36.7007C36.2617 36.5781 36.3609 36.4789 36.4834 36.4789C36.6058 36.4789 36.7052 36.5781 36.7052 36.7007V38.3574C36.705 38.4799 36.6058 38.5793 36.4834 38.5793ZM100.552 37.0402C100.43 37.0402 100.33 36.9409 100.33 36.8183V35.1617C100.33 35.0392 100.43 34.9399 100.552 34.9399C100.674 34.9399 100.774 35.0392 100.774 35.1617V36.8183C100.774 36.9408 100.674 37.0402 100.552 37.0402ZM36.4834 35.2659C36.3609 35.2659 36.2617 35.1666 36.2617 35.0441V33.3874C36.2617 33.2648 36.3609 33.1654 36.4834 33.1654C36.6058 33.1654 36.7052 33.2647 36.7052 33.3874V35.0441C36.705 35.1666 36.6058 35.2659 36.4834 35.2659ZM100.552 33.7268C100.43 33.7268 100.33 33.6276 100.33 33.5049V31.8483C100.33 31.7258 100.43 31.6264 100.552 31.6264C100.674 31.6264 100.774 31.7257 100.774 31.8483V33.5049C100.774 33.6275 100.674 33.7268 100.552 33.7268ZM36.4834 31.9526C36.3609 31.9526 36.2617 31.8533 36.2617 31.7306V30.0739C36.2617 29.9514 36.3609 29.8521 36.4834 29.8521C36.6058 29.8521 36.7052 29.9514 36.7052 30.0739V31.7306C36.705 31.8533 36.6058 31.9526 36.4834 31.9526ZM100.552 30.4134C100.43 30.4134 100.33 30.3141 100.33 30.1915V28.5349C100.33 28.4124 100.43 28.3131 100.552 28.3131C100.674 28.3131 100.774 28.4124 100.774 28.5349V30.1915C100.774 30.3141 100.674 30.4134 100.552 30.4134ZM36.4834 28.6393C36.3609 28.6393 36.2617 28.54 36.2617 28.4173V26.7606C36.2617 26.6381 36.3609 26.5349 36.4834 26.5349C36.6058 26.5349 36.7052 26.6303 36.7052 26.7529V28.4172C36.705 28.54 36.6058 28.6393 36.4834 28.6393ZM100.552 27.1001C100.43 27.1001 100.33 27.0008 100.33 26.8783V26.7607C100.33 26.3111 100.129 25.8796 99.7782 25.5769C99.6854 25.497 99.675 25.3569 99.755 25.2641C99.8348 25.1714 99.9749 25.1607 100.068 25.2409C100.516 25.628 100.774 26.1819 100.774 26.7607V26.8783C100.774 27.0008 100.674 27.1001 100.552 27.1001ZM37.2101 25.5521C37.1428 25.5521 37.0764 25.5215 37.0329 25.4636C36.9592 25.3658 36.9789 25.2267 37.0766 25.153C37.4542 24.8686 37.9081 24.7181 38.3891 24.7181H38.7806C38.903 24.7181 39.0022 24.8174 39.0022 24.9401C39.0022 25.0626 38.903 25.1619 38.7806 25.1619H38.3891C38.0051 25.1619 37.6434 25.2814 37.3432 25.5075C37.3033 25.5376 37.2566 25.5521 37.2101 25.5521ZM98.3801 25.1619H96.7246C96.6022 25.1619 96.503 25.0626 96.503 24.9401C96.503 24.8175 96.6022 24.7181 96.7246 24.7181H98.3801C98.5026 24.7181 98.6018 24.8174 98.6018 24.9401C98.6018 25.0625 98.5024 25.1619 98.3801 25.1619ZM95.0691 25.1619H93.4135C93.291 25.1619 93.1917 25.0626 93.1917 24.9401C93.1917 24.8175 93.2909 24.7181 93.4135 24.7181H95.0691C95.1915 24.7181 95.2907 24.8174 95.2907 24.9401C95.2907 25.0625 95.1915 25.1619 95.0691 25.1619ZM91.7579 25.1619H90.1023C89.9799 25.1619 89.8807 25.0626 89.8807 24.9401C89.8807 24.8175 89.9799 24.7181 90.1023 24.7181H91.7579C91.8803 24.7181 91.9796 24.8174 91.9796 24.9401C91.9797 25.0625 91.8803 25.1619 91.7579 25.1619ZM88.4468 25.1619H86.7913C86.6688 25.1619 86.5696 25.0626 86.5696 24.9401C86.5696 24.8175 86.6688 24.7181 86.7913 24.7181H88.4468C88.5693 24.7181 88.6685 24.8174 88.6685 24.9401C88.6686 25.0625 88.5693 25.1619 88.4468 25.1619ZM85.1358 25.1619H83.4802C83.3578 25.1619 83.2586 25.0626 83.2586 24.9401C83.2586 24.8175 83.3578 24.7181 83.4802 24.7181H85.1358C85.2583 24.7181 85.3575 24.8174 85.3575 24.9401C85.3575 25.0625 85.2583 25.1619 85.1358 25.1619ZM81.8246 25.1619H80.1692C80.0467 25.1619 79.9475 25.0626 79.9475 24.9401C79.9475 24.8175 80.0467 24.7181 80.1692 24.7181H81.8246C81.9471 24.7181 82.0463 24.8174 82.0463 24.9401C82.0464 25.0625 81.9471 25.1619 81.8246 25.1619ZM78.5136 25.1619H76.858C76.7356 25.1619 76.6364 25.0626 76.6364 24.9401C76.6364 24.8175 76.7356 24.7181 76.858 24.7181H78.5136C78.636 24.7181 78.7353 24.8174 78.7353 24.9401C78.7353 25.0625 78.636 25.1619 78.5136 25.1619ZM75.2025 25.1619H73.547C73.4245 25.1619 73.3253 25.0626 73.3253 24.9401C73.3253 24.8175 73.4245 24.7181 73.547 24.7181H75.2024C75.3249 24.7181 75.4241 24.8174 75.4241 24.9401C75.4242 25.0625 75.325 25.1619 75.2025 25.1619ZM71.8914 25.1619H70.2359C70.1135 25.1619 70.0143 25.0626 70.0143 24.9401C70.0143 24.8175 70.1135 24.7181 70.2359 24.7181H71.8914C72.0138 24.7181 72.113 24.8174 72.113 24.9401C72.1132 25.0625 72.0138 25.1619 71.8914 25.1619ZM68.5803 25.1619H66.9249C66.8024 25.1619 66.7032 25.0626 66.7032 24.9401C66.7032 24.8175 66.8024 24.7181 66.9249 24.7181H68.5803C68.7028 24.7181 68.802 24.8174 68.802 24.9401C68.8021 25.0625 68.7028 25.1619 68.5803 25.1619ZM65.2693 25.1619H63.6137C63.4913 25.1619 63.3921 25.0626 63.3921 24.9401C63.3921 24.8175 63.4913 24.7181 63.6137 24.7181H65.2693C65.3918 24.7181 65.4911 24.8174 65.4911 24.9401C65.491 25.0625 65.3918 25.1619 65.2693 25.1619ZM61.9583 25.1619H60.3027C60.1802 25.1619 60.081 25.0626 60.081 24.9401C60.081 24.8175 60.1802 24.7181 60.3027 24.7181H61.9583C62.0807 24.7181 62.1799 24.8174 62.1799 24.9401C62.1799 25.0625 62.0807 25.1619 61.9583 25.1619ZM58.6471 25.1619H56.9915C56.8691 25.1619 56.7699 25.0626 56.7699 24.9401C56.7699 24.8175 56.8691 24.7181 56.9915 24.7181H58.6471C58.7695 24.7181 58.8688 24.8174 58.8688 24.9401C58.8689 25.0625 58.7695 25.1619 58.6471 25.1619ZM55.336 25.1619H53.6805C53.558 25.1619 53.4588 25.0626 53.4588 24.9401C53.4588 24.8175 53.558 24.7181 53.6805 24.7181H55.336C55.4585 24.7181 55.5577 24.8174 55.5577 24.9401C55.5577 25.0625 55.4585 25.1619 55.336 25.1619ZM52.025 25.1619H50.3694C50.247 25.1619 50.1478 25.0626 50.1478 24.9401C50.1478 24.8175 50.247 24.7181 50.3694 24.7181H52.025C52.1475 24.7181 52.2467 24.8174 52.2467 24.9401C52.2467 25.0625 52.1475 25.1619 52.025 25.1619ZM48.7138 25.1619H47.0583C46.9358 25.1619 46.8366 25.0626 46.8366 24.9401C46.8366 24.8175 46.9358 24.7181 47.0583 24.7181H48.7138C48.8363 24.7181 48.9356 24.8174 48.9356 24.9401C48.9356 25.0625 48.8364 25.1619 48.7138 25.1619ZM45.4028 25.1619H43.7472C43.6248 25.1619 43.5256 25.0626 43.5256 24.9401C43.5256 24.8175 43.6248 24.7181 43.7472 24.7181H45.4028C45.5252 24.7181 45.6245 24.8174 45.6245 24.9401C45.6246 25.0625 45.5252 25.1619 45.4028 25.1619ZM42.0917 25.1619H40.4362C40.3137 25.1619 40.2145 25.0626 40.2145 24.9401C40.2145 24.8175 40.3137 24.7181 40.4362 24.7181H42.0917C42.2142 24.7181 42.3134 24.8174 42.3134 24.9401C42.3134 25.0625 42.2142 25.1619 42.0917 25.1619Z" fill="#C0DAFF"/>
<path d="M102.859 55.0203H43.9987C42.7595 55.0203 41.7549 54.0151 41.7549 52.7751V19.3554C41.7549 18.1154 42.7595 17.1101 43.9986 17.1101H102.859C104.098 17.1101 105.102 18.1154 105.102 19.3553V52.775C105.102 54.0151 104.098 55.0203 102.859 55.0203Z" fill="#66A2FF"/>
<path d="M105.102 24.2697H41.7549V30.8112H105.102V24.2697Z" fill="#0046B3"/>
<path d="M56.265 47.7468H46.9509C46.3589 47.7468 45.8789 48.2271 45.8789 48.8196C45.8789 49.412 46.3589 49.8923 46.9509 49.8923H56.265C56.857 49.8923 57.337 49.412 57.337 48.8196C57.337 48.227 56.857 47.7468 56.265 47.7468Z" fill="#D1F5FF"/>
<path d="M70.5882 47.7468H61.2741C60.6821 47.7468 60.2021 48.2271 60.2021 48.8196C60.2021 49.412 60.6821 49.8923 61.2741 49.8923H70.5882C71.1802 49.8923 71.6602 49.412 71.6602 48.8196C71.6602 48.227 71.1802 47.7468 70.5882 47.7468Z" fill="#D1F5FF"/>
<path d="M84.9114 47.7468H75.5974C75.0054 47.7468 74.5254 48.2271 74.5254 48.8196C74.5254 49.412 75.0054 49.8923 75.5974 49.8923H84.9114C85.5035 49.8923 85.9834 49.412 85.9834 48.8196C85.9834 48.227 85.5035 47.7468 84.9114 47.7468Z" fill="#D1F5FF"/>
<path d="M99.2347 47.7468H89.9206C89.3286 47.7468 88.8486 48.2271 88.8486 48.8196C88.8486 49.412 89.3286 49.8923 89.9206 49.8923H99.2347C99.8267 49.8923 100.307 49.412 100.307 48.8196C100.307 48.227 99.8267 47.7468 99.2347 47.7468Z" fill="#D1F5FF"/>
<path d="M46.522 19.0342C45.8686 19.0342 45.3389 19.5642 45.3389 20.2181V20.6341C45.3389 21.2879 45.8686 21.818 46.522 21.818C47.1754 21.818 47.7051 21.2879 47.7051 20.6341V20.2181C47.7052 19.5642 47.1754 19.0342 46.522 19.0342Z" fill="#D1F5FF"/>
<path d="M49.0703 20.4261C49.0703 21.1949 49.6931 21.8181 50.4613 21.8181H55.3914C56.1597 21.8181 56.7824 21.1949 56.7824 20.4261C56.7824 19.6574 56.1597 19.0342 55.3914 19.0342H50.4613C49.6931 19.0342 49.0703 19.6574 49.0703 20.4261Z" fill="#D1F5FF"/>
<path d="M48.424 34.3302H54.7915C55.8121 34.3302 56.6394 35.1581 56.6394 36.1793V41.6728C56.6394 42.6941 55.8121 43.522 54.7915 43.522H48.424C47.4035 43.522 46.5762 42.6941 46.5762 41.6728V36.1793C46.5762 35.1581 47.4035 34.3302 48.424 34.3302Z" fill="#FF9F34"/>
<path d="M172.152 47.2999C172.895 44.3653 173.017 41.4008 172.593 38.5751L173.49 38.4403L175.261 38.1752L175.284 38.1704C174.803 34.936 173.699 31.8524 172.045 29.0881L169.711 30.479C168.214 27.9782 166.24 25.7613 163.852 24.0046L165.472 21.8145C162.946 19.9268 160.005 18.4991 156.762 17.6768L156.093 20.321C153.15 19.5748 150.198 19.4551 147.374 19.8795L146.969 17.1866C143.737 17.6674 140.653 18.7828 137.893 20.428L139.283 22.7631C136.784 24.2612 134.569 26.2364 132.813 28.6266L130.625 27.0058C128.738 29.5333 127.311 32.4758 126.49 35.721L129.132 36.3911C128.386 39.3359 128.267 42.29 128.691 45.1157L126.787 45.4003L126.01 45.5232L126 45.5206C126.48 48.7549 127.595 51.8409 129.239 54.6029L131.573 53.212C133.07 55.7129 135.053 57.9321 137.442 59.6889L135.822 61.879C138.348 63.7665 141.279 65.192 144.521 66.0143L145.191 63.37C148.134 64.1162 151.096 64.2385 153.92 63.8141L154.231 65.9075L154.324 66.5068C157.557 66.026 160.63 64.908 163.39 63.263L162 60.9279C164.5 59.4297 166.717 57.4447 168.483 55.0569L170.671 56.6778C172.548 54.1477 173.972 51.2151 174.794 47.9699L172.152 47.2999ZM147.682 53.5342C141.226 51.8972 137.325 45.3437 138.961 38.8835C140.594 32.4332 147.143 28.5298 153.599 30.1668C160.045 31.8013 163.946 38.3546 162.313 44.8048C160.677 51.2652 154.128 55.1688 147.682 53.5342Z" stroke="#B3D1FF" stroke-width="4" stroke-miterlimit="10" stroke-linejoin="round"/>
<path d="M182.535 71.4771C181.542 70.2303 180.339 69.2346 179.021 68.5121L179.25 68.0929L179.704 67.2653L179.709 67.2543C178.201 66.4254 176.557 65.9061 174.872 65.719L174.712 67.1408C173.187 66.9719 171.63 67.0935 170.133 67.5355L169.732 66.1582C168.136 66.6162 166.601 67.3946 165.223 68.4928L166.117 69.6162C164.867 70.6128 163.876 71.8128 163.154 73.1324L161.898 72.4441C161.069 73.953 160.554 75.6018 160.363 77.2837L161.784 77.4448C161.615 78.9704 161.737 80.5288 162.179 82.0268L160.802 82.4283C161.26 84.0249 162.038 85.5609 163.135 86.9397L164.258 86.0448C165.254 87.2959 166.453 88.2874 167.772 89.0098L167.284 89.8991L167.088 90.2641L167.084 90.2674C168.591 91.0965 170.239 91.6123 171.92 91.8029L172.081 90.3808C173.605 90.5498 175.167 90.4249 176.664 89.9829L177.065 91.3602C178.661 90.9022 180.191 90.1272 181.569 89.029L180.675 87.9056C181.925 86.9091 182.92 85.7056 183.642 84.386L184.618 84.9225L184.899 85.0743C185.728 83.5654 186.239 81.92 186.429 80.2382L185.008 80.077C185.177 78.5515 185.052 76.9888 184.615 75.4874L185.991 75.0859C185.529 73.4927 184.755 71.9609 183.657 70.5822L182.535 71.4771ZM177.349 83.7269C174.606 85.9131 170.618 85.461 168.433 82.7164C166.252 79.976 166.704 75.9854 169.447 73.7993C172.185 71.6165 176.173 72.0685 178.354 74.8089C180.539 77.5536 180.087 81.5442 177.349 83.7269Z" stroke="#B3D1FF" stroke-width="4" stroke-miterlimit="10" stroke-linejoin="round"/>
<path d="M81.2375 136.939C80.0923 135.501 78.7044 134.352 77.1826 133.518L77.4473 133.034L77.9705 132.079L77.9765 132.066C76.2364 131.11 74.3399 130.511 72.3956 130.295L72.2099 131.935C70.4506 131.74 68.6534 131.881 66.926 132.391L66.463 130.801C64.6218 131.33 62.8505 132.228 61.2606 133.495L62.2925 134.792C60.8497 135.942 59.7064 137.327 58.8732 138.849L57.4229 138.055C56.4667 139.796 55.8719 141.699 55.6523 143.64L57.2921 143.826C57.0971 145.586 57.2374 147.385 57.7471 149.113L56.1589 149.577C56.687 151.419 57.5845 153.192 58.8509 154.783L60.1464 153.75C61.2955 155.194 62.6794 156.338 64.2012 157.172L63.6385 158.198L63.4123 158.619L63.4075 158.623C65.1475 159.58 67.0489 160.175 68.9883 160.395L69.174 158.754C70.9333 158.949 72.7354 158.805 74.4628 158.294L74.9258 159.884C76.767 159.355 78.5334 158.461 80.1233 157.194L79.0915 155.897C80.5342 154.747 81.6825 153.359 82.5157 151.836L83.6419 152.455L83.9659 152.63C84.9221 150.889 85.5119 148.99 85.7316 147.049L84.0918 146.863C84.2867 145.103 84.1426 143.3 83.6378 141.567L85.2259 141.104C84.693 139.265 83.7992 137.498 82.5328 135.907L81.2375 136.939ZM75.2534 151.075C72.0882 153.598 67.4863 153.076 64.9652 149.909C62.4481 146.747 62.9695 142.142 66.1346 139.619C69.2948 137.1 73.8967 137.622 76.4137 140.784C78.9348 143.951 78.4135 148.556 75.2534 151.075Z" stroke="#37928B" stroke-width="4" stroke-miterlimit="10"/>
<path d="M150.54 41.6105C149.256 33.9987 137.542 30.5624 137.772 35.5305L84.0734 35.8452C80.3542 35.867 77.3383 39.2152 77.3351 43.3275L77.2236 184.65C77.2203 188.91 80.2885 192.394 84.0792 192.426L138.896 192.897C139.237 193.612 139.874 194.262 140.877 194.805C147.163 194.939 150.179 191.833 151.28 188.32C151.639 187.378 151.834 186.336 151.825 185.238C151.606 183.398 150.937 43.3953 150.54 41.6105Z" fill="#66A2FF"/>
<path d="M140.291 194.828L77.3688 194.422C73.4423 194.397 70.2664 190.819 70.2734 186.436L70.5096 41.098C70.5164 36.8711 73.6422 33.4375 77.4927 33.425L139.193 33.2244C143.074 33.2118 146.247 36.6405 146.28 40.8866L147.398 186.896C147.432 191.3 144.249 194.853 140.291 194.828Z" fill="white"/>
<path d="M141.16 193.77C140.899 193.806 140.631 193.822 140.365 193.82L77.462 193.344C74.088 193.318 71.3303 190.182 71.3359 186.356L71.5533 41.1779C71.5589 37.4878 74.273 34.4763 77.5825 34.462L139.278 34.1934C139.375 34.1931 139.472 34.195 139.568 34.1995C141.121 34.2716 142.572 34.9793 143.656 36.1905C144.764 37.4285 145.381 39.069 145.394 40.8126L146.498 186.97C146.524 190.434 144.237 193.358 141.16 193.77Z" fill="black"/>
<path d="M143.231 41.5474L144.292 187.196L73.4287 186.772L73.6094 41.5474H143.231Z" fill="#37928B"/>
<path d="M118.577 114.838H99.606C98.0008 114.838 96.6875 113.523 96.6875 111.917C96.6875 110.311 98.0008 108.997 99.606 108.997H118.577C120.182 108.997 121.495 110.311 121.495 111.917C121.495 113.523 120.182 114.838 118.577 114.838Z" fill="#FF9F34"/>
<path d="M133.008 93.1571H83.9556C82.3504 93.1571 81.0371 91.8429 81.0371 90.2366C81.0371 88.6304 82.3504 87.3162 83.9556 87.3162H133.008C134.613 87.3162 135.926 88.6304 135.926 90.2366C135.926 91.8429 134.613 93.1571 133.008 93.1571Z" fill="white"/>
<path d="M133.008 102.564H83.9556C82.3504 102.564 81.0371 101.249 81.0371 99.643C81.0371 98.0368 82.3504 96.7225 83.9556 96.7225H133.008C134.613 96.7225 135.926 98.0368 135.926 99.643C135.926 101.249 134.613 102.564 133.008 102.564Z" fill="white"/>
<path d="M93.1155 99.9018C93.1155 100.47 92.6555 100.93 92.088 100.93C91.5205 100.93 91.0605 100.47 91.0605 99.9018C91.0605 99.3339 91.5206 98.8737 92.088 98.8737C92.6555 98.8737 93.1155 99.3339 93.1155 99.9018Z" fill="#80B2FF"/>
<path d="M96.6094 100.117C96.7274 99.5616 96.3732 99.0156 95.8182 98.8975C95.2631 98.7794 94.7175 99.1339 94.5995 99.6893C94.4814 100.245 94.8357 100.791 95.3907 100.909C95.9458 101.027 96.4914 100.672 96.6094 100.117Z" fill="#80B2FF"/>
<path d="M99.8576 100.629C100.259 100.227 100.259 99.5765 99.8576 99.1751C99.4564 98.7737 98.8061 98.7737 98.405 99.1751C98.0039 99.5765 98.0039 100.227 98.405 100.629C98.8061 101.03 99.4564 101.03 99.8576 100.629Z" fill="#80B2FF"/>
<path d="M103.38 100.629C103.781 100.227 103.781 99.5766 103.38 99.1752C102.979 98.7738 102.329 98.7738 101.927 99.1752C101.526 99.5766 101.526 100.227 101.927 100.629C102.329 101.03 102.979 101.03 103.38 100.629Z" fill="#80B2FF"/>
<path d="M106.578 100.852C107.102 100.635 107.351 100.034 107.134 99.5089C106.916 98.9843 106.315 98.7351 105.791 98.9525C105.267 99.1698 105.018 99.7712 105.235 100.296C105.452 100.821 106.053 101.07 106.578 100.852Z" fill="#80B2FF"/>
<path d="M110.703 100.152C110.833 99.5997 110.491 99.0459 109.939 98.9154C109.387 98.7849 108.833 99.1272 108.703 99.6798C108.573 100.232 108.914 100.786 109.467 100.917C110.019 101.047 110.572 100.705 110.703 100.152Z" fill="#80B2FF"/>
<path d="M113.948 100.629C114.349 100.227 114.35 99.5766 113.948 99.1752C113.547 98.7738 112.897 98.7738 112.496 99.1752C112.095 99.5766 112.095 100.227 112.496 100.629C112.897 101.03 113.547 101.03 113.948 100.629Z" fill="#80B2FF"/>
<path d="M117.472 100.629C117.873 100.227 117.873 99.5767 117.472 99.1753C117.071 98.7739 116.42 98.7739 116.019 99.1753C115.618 99.5767 115.618 100.227 116.019 100.629C116.42 101.03 117.071 101.03 117.472 100.629Z" fill="#80B2FF"/>
<path d="M120.669 100.852C121.194 100.635 121.443 100.033 121.225 99.5087C121.008 98.984 120.407 98.7349 119.883 98.9522C119.359 99.1695 119.11 99.771 119.327 100.296C119.544 100.82 120.145 101.069 120.669 100.852Z" fill="#80B2FF"/>
<path d="M116.469 75.8394C120.873 71.433 120.873 64.2887 116.469 59.8823C112.066 55.4758 104.926 55.4758 100.523 59.8823C96.1195 64.2887 96.1195 71.433 100.523 75.8394C104.926 80.2459 112.066 80.2459 116.469 75.8394Z" fill="white"/>
<path d="M108.514 67.4065C109.615 67.4065 110.631 66.8699 111.28 66.0506C111.76 65.4575 112.043 64.6947 112.043 63.8471C112.043 61.8982 110.462 60.2878 108.514 60.2878C106.538 60.2878 104.957 61.8982 104.957 63.8471C104.957 64.6947 105.239 65.4575 105.719 66.0506C106.369 66.8699 107.384 67.4065 108.514 67.4065Z" fill="#37928B"/>
<path d="M114.764 73.7487C114.764 75.9948 102.229 75.9948 102.229 73.7487L102.234 71.1311C102.729 67.5528 113.745 67.4025 114.766 71.1311L114.764 73.7487Z" fill="#37928B"/>
<path d="M86.389 99.1045V98.9479C86.389 98.3144 85.874 97.7988 85.2406 97.7988C84.6073 97.7988 84.0923 98.3144 84.0923 98.9479V99.1045H83.918V101.176C83.918 101.533 86.5706 101.533 86.5706 101.176V99.1045H86.389ZM84.5017 98.9479C84.5017 98.5504 84.7467 98.1893 85.2406 98.1893C85.7344 98.1893 85.9875 98.5273 85.9875 98.9479V99.1045H84.5017V98.9479ZM85.4361 100.148V100.746C85.4361 100.853 85.344 100.93 85.2366 100.93C85.1292 100.93 85.0529 100.853 85.0529 100.746V100.148C84.9454 100.086 84.8687 99.9788 84.8687 99.8407C84.8687 99.6413 85.0375 99.4726 85.2366 99.4726C85.4361 99.4726 85.6045 99.6413 85.6045 99.8407C85.6044 99.9789 85.5277 100.086 85.4361 100.148Z" fill="#4D4D4D"/>
<path d="M85.2427 90.0248C85.475 90.0248 85.6895 89.9116 85.8266 89.7387C85.9277 89.6135 85.9874 89.4525 85.9874 89.2738C85.9874 88.8625 85.6538 88.5227 85.2427 88.5227C84.8258 88.5227 84.4922 88.8625 84.4922 89.2738C84.4922 89.4526 84.5516 89.6136 84.653 89.7387C84.79 89.9117 85.0044 90.0248 85.2427 90.0248Z" fill="#4D4D4D"/>
<path d="M86.5619 91.3633C86.5619 91.8373 83.9033 91.8373 83.9033 91.3633L83.9178 90.811C84.0223 90.0558 86.347 90.0241 86.5624 90.811L86.5619 91.3633Z" fill="#4D4D4D"/>
<path d="M102.424 91.0936H91.6747C91.2036 91.0936 90.8184 90.708 90.8184 90.2366C90.8184 89.7652 91.2038 89.3796 91.6747 89.3796H102.424C102.895 89.3796 103.281 89.7653 103.281 90.2366C103.281 90.708 102.895 91.0936 102.424 91.0936Z" fill="#80B2FF"/>
<path d="M116.602 91.0936H105.853C105.381 91.0936 104.996 90.708 104.996 90.2366C104.996 89.7652 105.381 89.3796 105.853 89.3796H116.602C117.073 89.3796 117.458 89.7653 117.458 90.2366C117.459 90.708 117.073 91.0936 116.602 91.0936Z" fill="#80B2FF"/>
<path d="M94.0244 144.968V166.247C94.0244 168.611 122.937 168.611 122.937 166.247V144.968H94.0244Z" fill="white"/>
<path d="M111.953 153.843C112.406 151.923 111.218 149.999 109.299 149.546C107.38 149.092 105.458 150.281 105.005 152.201C104.552 154.121 105.74 156.045 107.658 156.498C109.577 156.952 111.5 155.763 111.953 153.843Z" fill="#37928B"/>
<path d="M108.481 163.763C107.673 163.763 107.018 163.107 107.018 162.299V154.106H109.944V162.299C109.944 163.107 109.289 163.763 108.481 163.763Z" fill="#37928B"/>
<path d="M120.404 143.452H117.477V142.019C117.477 137.055 113.442 133.016 108.482 133.016C103.521 133.016 99.4848 137.055 99.4848 142.019V143.452H96.5586V142.019C96.5586 135.44 101.907 130.088 108.482 130.088C115.055 130.088 120.404 135.44 120.404 142.019V143.452Z" fill="white"/>
<path d="M132.66 119.307C132.661 119.194 132.661 119.144 132.661 119.133C132.661 119.154 132.66 119.307 132.66 119.307Z" fill="#D9FFFF"/>
<path d="M132.66 119.307C132.661 119.194 132.661 119.144 132.661 119.133C132.661 119.154 132.66 119.307 132.66 119.307Z" fill="#D9FFFF"/>
<path d="M199.999 119.608C199.999 119.608 200 119.455 200 119.434C200 119.445 200 119.495 199.999 119.608Z" fill="#D9FFFF"/>
<path d="M199.999 119.608C199.999 119.608 200 119.455 200 119.434C200 119.445 200 119.495 199.999 119.608Z" fill="#D9FFFF"/>
<path d="M166.455 103.472C159.001 111.463 147.106 118.011 134.378 120.801C134.374 121.652 134.353 126.365 134.256 148.087C134.127 177.065 161.686 191.226 165.965 193.399C170.11 191.49 198.018 177.351 198.147 148.373C198.244 126.65 198.265 121.937 198.269 121.087C185.566 118.183 173.837 111.529 166.455 103.472Z" fill="white"/>
<path d="M166.387 106.615C158.703 113.669 148.057 119.214 136.35 122.236L136.235 148.082C136.182 159.909 140.877 170.608 150.19 179.883C156.31 185.977 162.743 189.757 166.008 191.457C166.148 191.385 166.302 191.305 166.454 191.226V106.675C166.432 106.655 166.409 106.636 166.387 106.615Z" fill="#2B716C"/>
<path d="M166.454 106.675V191.226C169.849 189.459 176.019 185.806 181.929 180.025C191.324 170.833 196.115 160.177 196.167 148.35L196.283 122.503C184.637 119.386 174.07 113.769 166.454 106.675Z" fill="#37928B"/>
<path d="M189.91 132.582C180.997 133.958 168.861 142.092 161.205 151.872C160.131 147.261 155.31 143.051 152.788 142.13L145.146 149.816C149.918 151.968 155.132 158.064 155.823 164.306L163.457 165.489C166.675 159.128 174.987 143.91 191.524 135.728C191.205 134.482 190.037 132.76 189.91 132.582Z" fill="#37928B"/>
<path d="M44.7308 86.1821L43.3867 91.5882L43.1425 92.5933C42.8711 93.8702 34.442 93.3268 35.0391 91.8328L35.5415 90.7326L38.1339 85.0413L44.7308 86.1821Z" fill="#F7A58E"/>
<path d="M49.6596 78.1628C49.7455 84.0245 47.0262 88.7912 42.771 88.7706C38.5157 88.75 34.3988 85.1372 34.2499 78.0882C34.1551 73.5973 37.7388 69.9718 41.9941 69.9924C46.2494 70.013 49.5938 73.6715 49.6596 78.1628Z" fill="#F7A58E"/>
<path d="M42.1219 68.3805C42.1219 68.3805 50.6007 68.7994 51.3061 75.2255C52.2475 80.8653 48.0192 76.7189 46.2928 80.5039C44.3154 84.8392 46.3306 88.0118 48.9007 88.8735C46.616 92.0658 33.5513 91.9509 30.1892 86.35C27.8866 79.3244 31.1445 68.7702 42.1219 68.3805Z" fill="black"/>
<path d="M48.0673 80.2721C48.1379 81.1423 47.4903 81.905 46.6208 81.9757C45.7512 82.0464 44.989 81.3983 44.9184 80.5282C44.8477 79.6581 45.4952 78.8953 46.3649 78.8246C47.2345 78.7539 47.9966 79.402 48.0673 80.2721Z" fill="#F7A58E"/>
<path d="M46.7685 189.325C47.1659 188.904 49.0408 188.898 49.2119 189.521C49.3831 190.143 49.0527 190.589 49.8439 191.576C49.3885 191.708 47.7736 191.72 47.2793 191.576C46.785 191.432 46.3709 189.747 46.7685 189.325Z" fill="white"/>
<path d="M43.6701 191.454H48.2388C48.6659 172.108 48.5842 151.048 48.4304 135.187C48.3751 129.506 48.2186 126.633 47.1895 123.223C45.11 116.337 35.3339 118.457 34.6402 124.699C34.3511 128.162 34.1395 134.919 40.5381 157.88C37.7672 167.989 42.6014 180.11 43.6701 191.454Z" fill="#00050D"/>
<path d="M50.7976 191.749C50.1247 191.714 48.5534 191.065 48.257 190.618C47.8203 191.106 46.911 191.241 45.8134 191.077C44.517 190.884 44.3459 190.281 43.416 190.361C43.0239 191.452 42.0688 193.9 42.9902 194.468C42.9902 194.468 48.4384 194.468 52.5959 194.468C53.4534 193.684 53.4308 192.012 50.7976 191.749Z" fill="white"/>
<path d="M23.5087 189.815C23.8427 189.461 25.4183 189.455 25.5622 189.979C25.7059 190.502 25.4284 190.876 26.0932 191.706C25.7106 191.817 24.3534 191.827 23.938 191.706C23.5226 191.586 23.1746 190.169 23.5087 189.815Z" fill="white"/>
<path d="M38.5655 124.523C37.6312 117.39 24.951 118.123 24.108 124.351C23.8035 127.702 22.8734 132.746 25.2561 157.637C20.2294 167.136 21.6498 180.765 20.1482 190.799C19.9824 192.325 24.3038 192.692 24.6394 191.331C29.2446 172.717 35.6799 151.833 38.0721 136.346C38.9399 130.732 39.0276 128.055 38.5655 124.523Z" fill="#00050D"/>
<path d="M26.9084 191.455C26.2355 191.419 25.2433 190.542 24.947 190.095C24.5103 190.583 23.6766 191.241 22.579 191.077C21.2826 190.884 21.1115 190.281 20.1816 190.361C19.7895 191.452 18.8344 193.9 19.7558 194.468C19.7558 194.468 24.9419 194.468 29.0995 194.468C29.9569 193.684 29.5417 191.717 26.9084 191.455Z" fill="white"/>
<path d="M59.9485 86.7705L57.5836 87.2953C57.6373 88.5406 57.4879 90.5297 57.5836 92.7255L61.5611 92.2014C60.9558 89.9901 60.3716 88.0521 59.9485 86.7705Z" fill="#F7A58E"/>
<path d="M57.5837 92.7256C57.4955 97.0777 57.3794 98.9421 57.3434 100.657L45.5422 93.0827C41.9461 91.9903 37.7527 99.1131 42.2995 102.327C42.2995 102.327 58.0159 111.207 61.5513 108.649C63.4638 107.266 62.9677 97.3389 61.5613 92.2015L57.5837 92.7256Z" fill="white"/>
<path d="M61.018 84.4555C59.9252 83.1732 57.5258 83.6204 57.3438 83.655L57.5744 87.2018C57.6282 88.9533 59.7988 89.0129 60.6831 87.503C60.6831 87.503 61.9645 85.7182 61.018 84.4555Z" fill="#F7A58E"/>
<path d="M58.5045 83.9903C57.7083 80.1267 56.9043 80.6446 56.9043 80.6446C56.9043 80.6446 57.0332 82.0096 57.3929 84.4189C57.6625 85.7836 58.6031 84.9604 58.5045 83.9903Z" fill="#F7A58E"/>
<path d="M48.331 103.261C49.1323 99.3585 49.5621 95.5053 45.5426 93.0824C43.1593 91.6457 35.4988 90.6198 31.9169 91.806C28.3077 93.4202 29.0882 100.46 28.4121 111.577C25.925 117.124 24.8437 118.947 24.1074 124.351C24.1074 124.351 25.438 128.422 34.8118 128.427C39.0682 128.43 45.3373 128.051 48.1891 125.879C47.9046 122.194 46.3648 118.643 45.7231 113.427C45.7231 113.427 48.2729 103.709 48.331 103.261Z" fill="white"/>
<path d="M29.9915 92.5911C25.5919 95.9524 21.3005 101.238 19.2724 104.045C17.2444 106.852 11.9912 118.133 11.9912 118.133L15.3344 120.599L24.3774 108.269L35.425 99.2014C39.2587 95.2858 34.2767 89.3171 29.9915 92.5911Z" fill="white"/>
<path d="M10.5908 120.994L12.7578 116.513C13.2676 117.86 15.7485 119.089 16.4609 119.064C16.4609 119.064 14.1307 122.419 13.561 122.989C12.9913 123.559 10.6379 122.594 10.5908 120.994Z" fill="#F7A58E"/>
<path d="M14.1091 122.241C14.1004 122.274 14.1101 122.319 14.1015 122.353C13.9927 123.983 12.7403 124.755 12.4014 124.938C12.3744 124.959 12.3443 124.966 12.3142 124.972C13.4921 124.736 13.8449 126.315 13.2456 126.68C11.512 127.854 9.04141 126.239 8.83236 125.259C8.62018 124.265 10.595 120.975 10.595 120.975C11.6023 120.161 14.1806 120.287 14.1091 122.241Z" fill="#F7A58E"/>
<path d="M14.1016 122.353C14.0321 124.195 12.3724 124.954 12.3422 124.96C11.3712 124.933 11.0253 124.874 10.0986 124.877C10.7034 124.582 11.9437 123.797 11.4635 122.272C12.4133 121.545 13.842 122.18 14.1016 122.353Z" fill="#E6856A"/>
<path d="M14.1269 122.143C14.3822 123.664 14.2743 125.832 13.9128 126.785C13.9128 126.785 12.9809 126.834 13.0682 125.073C13.0908 124.615 13.0248 123.619 12.5717 123.288C11.1765 122.365 10.952 121.519 11.4638 120.825C12.1458 119.9 14.0732 120.839 14.1269 122.143Z" fill="#F7A58E"/>
<path d="M9.8086 126.3C10.5655 126.825 12.5691 127.844 12.8854 127.592C13.2016 127.341 11.5995 125.635 10.5654 125.409C9.53121 125.183 9.42078 126.031 9.8086 126.3Z" fill="#F7A58E"/>
</svg>
