<svg width="25" height="24" viewBox="0 0 25 24" fill="none" xmlns="http://www.w3.org/2000/svg">
<path d="M12.5 19C14.7091 19 16.5 17.2091 16.5 15C16.5 12.7909 14.7091 11 12.5 11C10.2909 11 8.5 12.7909 8.5 15C8.5 17.2091 10.2909 19 12.5 19Z" stroke="#666666" stroke-width="1.5" stroke-miterlimit="10" stroke-linecap="round" stroke-linejoin="round"/>
<path d="M10.9399 15L11.5899 15.65C11.7799 15.84 12.0899 15.85 12.2799 15.66L14.0599 14.02" stroke="#666666" stroke-width="1.5" stroke-linecap="round" stroke-linejoin="round"/>
<path d="M9.50007 22H15.5001C19.5201 22 20.2401 20.39 20.4501 18.43L21.2001 12.43C21.4701 9.99 20.7701 8 16.5001 8H8.50007C4.23007 8 3.53007 9.99 3.80007 12.43L4.55007 18.43C4.76007 20.39 5.48007 22 9.50007 22Z" stroke="#666666" stroke-width="1.5" stroke-miterlimit="10" stroke-linecap="round" stroke-linejoin="round"/>
<path d="M8 7.67001V6.70001C8 4.45001 9.81 2.24001 12.06 2.03001C14.74 1.77001 17 3.88001 17 6.51001V7.89001" stroke="#666666" stroke-width="1.5" stroke-miterlimit="10" stroke-linecap="round" stroke-linejoin="round"/>
</svg>
