<svg width="24" height="24" viewBox="0 0 24 24" fill="none" xmlns="http://www.w3.org/2000/svg">
<path d="M18.33 2.03C18.69 2.03 19.06 2.11 19.42 2.28C19.78 2.45 20.12 2.67 20.44 2.96C20.98 3.45 21.37 3.99 21.62 4.6C21.87 5.2 22 5.85 22 6.55C22 7.57 21.76 8.66 21.27 9.81C20.78 10.96 20.12 12.11 19.29 13.25C18.45 14.4 17.52 15.49 16.49 16.53C15.45 17.56 14.36 18.49 13.22 19.32C12.08 20.14 10.94 20.8 9.81 21.28C8.67 21.76 7.58 22 6.54 22C5.86 22 5.21 21.88 4.61 21.64C4 21.4 3.44 21.02 2.94 20.49C2.31 19.85 2 19.15 2 18.41C2 18.13 2.06 17.85 2.18 17.6C2.3 17.34 2.48 17.11 2.74 16.93L6.01 14.61C6.26 14.43 6.49 14.3 6.71 14.21C6.92 14.12 7.13 14.07 7.32 14.07C7.56 14.07 7.8 14.14 8.03 14.28C8.26 14.41 8.5 14.6 8.74 14.84L9.53 15.6C9.64 15.71 9.77 15.76 9.93 15.76C10.01 15.76 10.08 15.75 10.16 15.73C10.24 15.7 10.3 15.67 10.36 15.65C10.69 15.47 11.12 15.16 11.64 14.72C12.16 14.27 12.69 13.79 13.22 13.27C13.75 12.73 14.24 12.21 14.69 11.68C15.13 11.16 15.43 10.73 15.61 10.39C15.63 10.34 15.66 10.28 15.69 10.21C15.72 10.13 15.73 10.05 15.73 9.96C15.73 9.79 15.67 9.66 15.56 9.55L14.81 8.79C14.56 8.54 14.37 8.3 14.25 8.07C14.11 7.84 14.04 7.61 14.04 7.36C14.04 7.17 14.08 6.97 14.17 6.75C14.26 6.53 14.39 6.3 14.56 6.05L16.91 2.74C17.09 2.48 17.3 2.3 17.55 2.19C17.8 2.09 18.05 2.03 18.33 2.03Z" stroke="#292D32" stroke-opacity="0.5" stroke-width="1.5" stroke-miterlimit="10"/>
</svg>
