<svg width="19" height="19" viewBox="0 0 19 19" fill="none" xmlns="http://www.w3.org/2000/svg">
<path d="M17.5 14.8425V9.29451C17.5 8.76017 17.4995 8.49286 17.4346 8.24422C17.377 8.02387 17.2825 7.81535 17.1546 7.62693C17.0102 7.4143 16.8096 7.23797 16.4074 6.88611L11.6074 2.68611C10.8608 2.03283 10.4875 1.70635 10.0674 1.58211C9.69719 1.47263 9.30261 1.47263 8.93242 1.58211C8.51261 1.70626 8.13985 2.03242 7.39436 2.68472L2.59277 6.88611C2.19064 7.23798 1.99004 7.4143 1.8457 7.62693C1.71779 7.81536 1.62255 8.02387 1.56497 8.24422C1.5 8.49286 1.5 8.76017 1.5 9.29451V14.8425C1.5 15.7743 1.5 16.2401 1.65224 16.6076C1.85523 17.0977 2.24432 17.4875 2.73438 17.6905C3.10192 17.8427 3.56786 17.8427 4.49974 17.8427C5.43163 17.8427 5.89808 17.8427 6.26562 17.6905C6.75568 17.4875 7.14467 17.0978 7.34766 16.6077C7.4999 16.2402 7.5 15.7742 7.5 14.8424V13.8424C7.5 12.7378 8.39543 11.8424 9.5 11.8424C10.6046 11.8424 11.5 12.7378 11.5 13.8424V14.8424C11.5 15.7742 11.5 16.2402 11.6522 16.6077C11.8552 17.0978 12.2443 17.4875 12.7344 17.6905C13.1019 17.8427 13.5679 17.8427 14.4997 17.8427C15.4316 17.8427 15.8981 17.8427 16.2656 17.6905C16.7557 17.4875 17.1447 17.0977 17.3477 16.6076C17.4999 16.2401 17.5 15.7743 17.5 14.8425Z" stroke="#666666" stroke-width="1.5" stroke-linecap="round" stroke-linejoin="round"/>
</svg>
