<svg width="231" height="230" viewBox="0 0 231 230" fill="none" xmlns="http://www.w3.org/2000/svg">
<path d="M76.8788 142.121C69.9788 134.262 59.7247 129.375 48.4163 129.375C27.2372 129.375 10.083 146.529 10.083 167.708C10.083 174.896 12.0955 181.7 15.6413 187.45C17.558 190.708 20.0497 193.679 22.9247 196.171C29.633 202.304 38.5455 206.042 48.4163 206.042C62.408 206.042 74.5788 198.567 81.1913 187.45C84.7372 181.7 86.7497 174.896 86.7497 167.708C86.7497 157.933 83.0122 148.925 76.8788 142.121ZM63.7497 182.85C62.3122 184.288 60.4913 184.958 58.6705 184.958C56.8497 184.958 55.0288 184.288 53.5913 182.85L48.5122 177.771L43.2413 183.042C41.8038 184.479 39.983 185.15 38.1622 185.15C36.3413 185.15 34.5205 184.479 33.083 183.042C30.3038 180.263 30.3038 175.663 33.083 172.883L38.3538 167.612L33.2747 162.533C30.4955 159.754 30.4955 155.154 33.2747 152.375C36.0538 149.596 40.6538 149.596 43.433 152.375L48.5122 157.454L53.3038 152.663C56.083 149.883 60.683 149.883 63.4622 152.663C66.2413 155.442 66.2413 160.042 63.4622 162.821L58.6705 167.612L63.7497 172.692C66.5288 175.471 66.5288 179.975 63.7497 182.85Z" fill="#37928B"/>
<path d="M165.812 23.2876H74.7708C47.4583 23.2876 29.25 41.4959 29.25 68.8084V111.55C29.25 114.904 32.7 117.3 35.9583 116.438C39.9833 115.479 44.1042 115 48.4167 115C75.825 115 98.4417 137.233 100.933 164.163C101.125 166.846 103.329 168.954 105.917 168.954H111.188L151.725 195.979C157.667 200.004 165.812 195.596 165.812 188.313V168.954C179.421 168.954 190.825 164.354 198.779 156.496C206.733 148.446 211.333 137.042 211.333 123.433V68.8084C211.333 41.4959 193.125 23.2876 165.812 23.2876ZM152.204 103.596H88.3792C84.6417 103.596 81.575 100.529 81.575 96.7918C81.575 92.9584 84.6417 89.8918 88.3792 89.8918H152.204C155.942 89.8918 159.008 92.9584 159.008 96.7918C159.008 100.529 155.942 103.596 152.204 103.596Z" fill="#37928B"/>
</svg>
