<svg width="38" height="54" viewBox="0 0 38 54" fill="none" xmlns="http://www.w3.org/2000/svg">
<path d="M3.5138 53.4708C2.17841 53.4708 0.498413 51.8339 0.498413 50.4554V5.5261C0.498413 4.19072 2.13534 2.51072 3.5138 2.51072H10.0615C10.1477 2.38148 10.2769 2.20918 10.363 2.03687C10.88 1.26148 11.3969 0.529175 11.9569 0.529175H26.0431C26.6031 0.529175 27.12 1.26148 27.6369 2.07995C27.7231 2.20918 27.8523 2.38148 27.9384 2.51072H34.4862C35.2615 2.51072 36.0369 2.94149 36.5538 3.50149C36.8123 3.75995 37.0277 4.01841 37.2 4.31995C37.2862 4.44918 37.3292 4.62149 37.4154 4.7938C37.5015 5.05226 37.5015 5.26764 37.5015 5.5261V50.4554C37.5015 51.7908 35.8646 53.4708 34.4862 53.4708H3.5138ZM2.99688 49.6369C2.99688 50.3262 3.55688 50.9292 4.28919 50.9292H33.7538C34.4431 50.9292 35.0462 50.3692 35.0462 49.6369V48.9908H27.3784C26.4738 48.9908 25.6984 48.2585 25.6984 47.3108V47.1385C25.6984 46.7938 25.44 46.5354 25.0954 46.5354H12.9477C12.603 46.5354 12.3446 46.7938 12.3446 47.1385V47.3108C12.3446 48.2154 11.6123 48.9908 10.6646 48.9908H2.99688V49.6369ZM26.0431 44.2523C26.9477 44.2523 27.7231 44.9846 27.7231 45.9323V46.1046C27.7231 46.4492 27.9815 46.7077 28.3261 46.7077H35.0462V6.34457C35.0462 5.74149 35.6062 6.51687 35.0462 6.34457L26.9908 5.09534C26.3877 5.09534 26 4.4061 25.6123 3.75995C25.44 3.50149 35.0462 6.34457 35.0462 6.34457L34.7754 46.5354L27.2267 46.7139L3.08707 46.3857L3.08707 5.98678C3.00092 6.02985 12.603 3.45841 12.4738 3.75995C12.0861 4.4061 11.6553 5.09534 11.0953 5.09534H3.98765C3.42765 5.22457 3.03995 5.74149 3.03995 6.34457V46.6215H9.75996C10.1046 46.6215 10.363 46.3631 10.363 46.0185V45.8892C10.363 44.9846 11.0953 44.2092 12.043 44.2092H26.0431V44.2523Z" fill="#37928B"/>
<path d="M35.0462 6.34457V46.7077H28.3261C27.9815 46.7077 27.7231 46.4492 27.7231 46.1046V45.9323C27.7231 44.9846 26.9477 44.2523 26.0431 44.2523V44.2092H12.043C11.0953 44.2092 10.363 44.9846 10.363 45.8892V46.0185C10.363 46.3631 10.1046 46.6215 9.75996 46.6215H3.03995V6.34457C3.03995 5.74149 3.42765 5.22457 3.98765 5.09533H11.0953C11.6553 5.09533 12.0861 4.4061 12.4738 3.75995C12.603 3.45841 3.00092 6.02985 3.08707 5.98678L3.08707 46.3856L27.2267 46.7139L34.7754 46.5354L35.0462 6.34457ZM35.0462 6.34457C35.0462 5.74149 35.6062 6.51687 35.0462 6.34457ZM35.0462 6.34457L26.9908 5.09533C26.3877 5.09533 26 4.4061 25.6123 3.75995C25.44 3.50149 35.0462 6.34457 35.0462 6.34457ZM3.5138 53.4708C2.17841 53.4708 0.498413 51.8339 0.498413 50.4554V5.5261C0.498413 4.19072 2.13534 2.51072 3.5138 2.51072H10.0615C10.1477 2.38148 10.2769 2.20918 10.363 2.03687C10.88 1.26148 11.3969 0.529175 11.9569 0.529175H26.0431C26.6031 0.529175 27.12 1.26148 27.6369 2.07995C27.7231 2.20918 27.8523 2.38148 27.9384 2.51072H34.4862C35.2615 2.51072 36.0369 2.94149 36.5538 3.50149C36.8123 3.75995 37.0277 4.01841 37.2 4.31995C37.2862 4.44918 37.3292 4.62149 37.4154 4.7938C37.5015 5.05226 37.5015 5.26764 37.5015 5.5261V50.4554C37.5015 51.7908 35.8646 53.4708 34.4862 53.4708H3.5138ZM2.99688 49.6369C2.99688 50.3262 3.55688 50.9292 4.28919 50.9292H33.7538C34.4431 50.9292 35.0462 50.3692 35.0462 49.6369V48.9908H27.3784C26.4738 48.9908 25.6984 48.2585 25.6984 47.3108V47.1385C25.6984 46.7938 25.44 46.5354 25.0954 46.5354H12.9477C12.603 46.5354 12.3446 46.7938 12.3446 47.1385V47.3108C12.3446 48.2154 11.6123 48.9908 10.6646 48.9908H2.99688V49.6369Z" stroke="#37928B"/>
<path d="M5.75376 41.9264C4.89222 41.9264 4.15991 41.1941 4.15991 40.3325V16.5971C4.15991 15.7356 4.89222 15.0033 5.75376 15.0033H32.2892C33.1507 15.0033 33.883 15.7356 33.883 16.5971V40.3756C33.883 41.2372 33.1507 41.9695 32.2892 41.9695H5.75376V41.9264ZM6.27069 39.3848C6.27069 39.6433 6.48607 39.8587 6.74453 39.8587H31.2553C31.5138 39.8587 31.7292 39.6433 31.7292 39.3848V17.5448C31.7292 17.2863 31.5138 17.071 31.2553 17.071H28.4984V18.1479C28.4984 18.8371 27.9384 19.354 27.2923 19.354C26.603 19.354 26.0861 18.794 26.0861 18.1479V17.071H11.6984V18.1479C11.6984 18.8371 11.1384 19.354 10.4922 19.354C9.84607 19.354 9.28607 18.794 9.28607 18.1479V17.071H6.78761C6.52915 17.071 6.31376 17.2433 6.31376 17.5017L6.27069 39.3848ZM6.09838 11.2986C5.32299 11.2986 4.67684 10.6525 4.67684 9.87711C4.67684 9.10172 5.32299 8.45557 6.09838 8.45557C6.87376 8.45557 7.51992 9.10172 7.51992 9.87711C7.51992 10.6525 6.91684 11.2986 6.09838 11.2986ZM9.58761 11.2986C8.81223 11.2986 8.16607 10.6525 8.16607 9.87711C8.16607 9.10172 8.81223 8.45557 9.58761 8.45557C10.363 8.45557 11.0092 9.10172 11.0092 9.87711C11.0092 10.6525 10.363 11.2986 9.58761 11.2986ZM13.0338 11.2986C12.2584 11.2986 11.6122 10.6525 11.6122 9.87711C11.6122 9.10172 12.2584 8.45557 13.0338 8.45557C13.8092 8.45557 14.4553 9.10172 14.4553 9.87711C14.4553 10.6525 13.8522 11.2986 13.0338 11.2986Z" fill="white" stroke="white"/>
<path d="M11.651 38.1369C9.92073 38.1369 8.52002 36.6548 8.52002 34.8241V28.8523C8.52002 27.8497 9.30277 27.0215 10.2503 27.0215H14.4936C15.4412 27.0215 16.2239 27.8497 16.2239 28.8523V29.3317C16.3475 29.2882 16.5123 29.2882 16.6359 29.2882C17.5834 29.2882 18.3662 30.1164 18.3662 31.1189V33.342C18.3662 33.6471 18.2838 33.9523 18.119 34.2574C17.8306 34.8241 17.2539 35.1728 16.6359 35.1728C16.5123 35.1728 16.3475 35.1728 16.2239 35.1292C16.1003 36.8292 14.7408 38.1805 13.0929 38.1805H11.651V38.1369ZM10.2503 28.4164C10.0443 28.4164 9.83833 28.5907 9.83833 28.8523V34.8241C9.83833 35.8702 10.6623 36.742 11.651 36.742H13.0517C14.0405 36.742 14.8644 35.8702 14.8644 34.8241V28.8523C14.8644 28.6343 14.6996 28.4164 14.4524 28.4164H10.2503ZM16.5947 30.683C16.3887 30.683 16.1827 30.8574 16.1827 31.1189V33.342C16.1827 33.56 16.3475 33.7779 16.5947 33.7779C16.8007 33.7779 17.0067 33.6035 17.0067 33.342V31.1189C17.0067 30.8574 16.8007 30.683 16.5947 30.683Z" fill="white" stroke="white"/>
</svg>
