<svg width="52" height="52" viewBox="0 0 52 52" fill="none" xmlns="http://www.w3.org/2000/svg">
<path d="M40.5383 3.16333H11.4617V40.5383H40.5383V3.16333Z" fill="#37928B" stroke="#37928B" stroke-width="1.92" stroke-miterlimit="10"/>
<path d="M11.4617 32.2184H40.5383" stroke="#E2EFFF" stroke-width="1.92" stroke-miterlimit="10"/>
<path d="M30.1559 19.7819C30.1559 20.8852 29.7177 21.9433 28.9375 22.7234C28.1574 23.5036 27.0992 23.9419 25.9959 23.9419C24.8926 23.9419 23.8345 23.5036 23.0544 22.7234C22.2742 21.9433 21.8359 20.8852 21.8359 19.7819C21.8359 15.6219 25.9959 11.4619 25.9959 11.4619C25.9959 11.4619 30.1559 15.6219 30.1559 19.7819Z" stroke="#E2EFFF" stroke-width="1.92" stroke-miterlimit="10"/>
<path d="M19.7817 40.5383V44.6767C19.7817 45.78 19.3434 46.8381 18.5633 47.6182C17.7831 48.3984 16.725 48.8367 15.6217 48.8367H1.08337" stroke="#37928B" stroke-width="1.92" stroke-miterlimit="10"/>
<path d="M32.2184 40.5383V44.6767C32.2241 45.7782 32.6642 46.833 33.4431 47.6119C34.222 48.3909 35.2768 48.831 36.3784 48.8367H50.9167" stroke="#37928B" stroke-width="1.92" stroke-miterlimit="10"/>
</svg>
