<svg width="54" height="54" viewBox="0 0 54 54" fill="none" xmlns="http://www.w3.org/2000/svg">
<path d="M43.96 4.73999H10.04C7.11757 4.73999 4.73999 7.11757 4.73999 10.04V43.96C4.73999 46.8824 7.11757 49.26 10.04 49.26H43.96C46.8824 49.26 49.26 46.8824 49.26 43.96V10.04C49.26 7.11757 46.8824 4.73999 43.96 4.73999ZM17.99 10.04C20.6241 10.04 22.76 12.1759 22.76 14.81C22.76 17.4441 20.6241 19.58 17.99 19.58C15.3559 19.58 13.22 17.4441 13.22 14.81C13.22 12.1759 15.3559 10.04 17.99 10.04ZM17.99 45.02C17.1123 45.02 16.4 44.3077 16.4 43.43C16.4 42.5523 17.1123 41.84 17.99 41.84C18.8677 41.84 19.58 42.5523 19.58 43.43C19.58 44.3077 18.8677 45.02 17.99 45.02ZM23.29 45.02C22.4123 45.02 21.7 44.3077 21.7 43.43C21.7 42.5523 22.4123 41.84 23.29 41.84C24.1677 41.84 24.88 42.5523 24.88 43.43C24.88 44.3077 24.1677 45.02 23.29 45.02ZM18.52 38.66C15.0072 38.66 12.16 35.8128 12.16 32.3C12.16 28.7872 15.0072 25.94 18.52 25.94C22.0328 25.94 24.88 28.7872 24.88 32.3C24.88 35.8128 22.0328 38.66 18.52 38.66ZM30.71 45.02C29.8323 45.02 29.12 44.3077 29.12 43.43C29.12 42.5523 29.8323 41.84 30.71 41.84C31.5877 41.84 32.3 42.5523 32.3 43.43C32.3 44.3077 31.5877 45.02 30.71 45.02ZM36.01 45.02C35.1323 45.02 34.42 44.3077 34.42 43.43C34.42 42.5523 35.1323 41.84 36.01 41.84C36.8877 41.84 37.6 42.5523 37.6 43.43C37.6 44.3077 36.8877 45.02 36.01 45.02ZM36.01 38.66C33.3759 38.66 31.24 36.5241 31.24 33.89C31.24 31.2559 33.3759 29.12 36.01 29.12C38.6441 29.12 40.78 31.2559 40.78 33.89C40.78 36.5241 38.6441 38.66 36.01 38.66ZM35.48 22.76C31.9672 22.76 29.12 19.9128 29.12 16.4C29.12 12.8872 31.9672 10.04 35.48 10.04C38.9928 10.04 41.84 12.8872 41.84 16.4C41.84 19.9128 38.9928 22.76 35.48 22.76Z" fill="#37928B"/>
</svg>
