<svg width="30" height="56" viewBox="0 0 30 56" fill="none" xmlns="http://www.w3.org/2000/svg">
<path d="M27.6196 0.5H2.38047C1.60589 0.5 0.978271 1.30276 0.978271 2.29352V22.0218H29.0218V2.29352C29.0218 1.30276 28.3942 0.5 27.6196 0.5ZM9.39132 16.6413C9.39132 17.6321 8.76371 18.4348 7.98912 18.4348C7.21453 18.4348 6.58692 17.6321 6.58692 16.6413V9.46736C6.58692 8.47661 7.21453 7.67385 7.98912 7.67385C8.76371 7.67385 9.39132 8.47661 9.39132 9.46736V16.6413Z" fill="#37928B"/>
<path d="M0.978394 25.6086V53.7064C0.978394 54.6972 1.60601 55.5 2.3806 55.5H27.6198C28.3943 55.5 29.022 54.6972 29.022 53.7064V25.6086H0.978394ZM9.39136 46.5326C9.39136 47.5233 8.76375 48.3261 7.98916 48.3261C7.21457 48.3261 6.58695 47.5233 6.58695 46.5326V30.9891C6.58695 29.9983 7.21457 29.1956 7.98916 29.1956C8.76375 29.1956 9.39136 29.9983 9.39136 30.9891V46.5326Z" fill="#37928B"/>
</svg>
