<svg width="58" height="40" viewBox="0 0 58 40" fill="none" xmlns="http://www.w3.org/2000/svg">
<path d="M0.5 0.917725V34.8377H57.5V0.917725H0.5ZM29 9.39772C29.6858 9.39772 30.14 9.82007 30.14 10.4577V18.9377C30.14 19.5754 29.6858 19.9977 29 19.9977C28.3142 19.9977 27.86 19.5754 27.86 18.9377V10.4577C27.86 9.82007 28.3142 9.39772 29 9.39772ZM24.1906 10.7227C24.6404 10.6399 25.108 10.7683 25.3662 11.0871C25.7091 11.6171 25.5711 12.2589 25.1169 12.5777C23.2911 13.8489 22.16 15.7577 22.16 17.8777C22.16 21.3766 25.2371 24.2377 29 24.2377C32.7629 24.2377 35.84 21.3766 35.84 17.8777C35.84 15.7577 34.7089 13.8448 32.8831 12.6771C32.3131 12.3583 32.1795 11.7165 32.6338 11.1865C32.9766 10.6565 33.6669 10.5654 34.2369 10.9877C36.6327 12.5777 38.12 15.2194 38.12 17.9771C38.12 22.5359 34.0142 26.3577 29 26.3577C23.9858 26.3577 19.88 22.5401 19.88 17.8777C19.88 15.1201 21.3673 12.4783 23.7631 10.8883C23.9056 10.8097 24.0392 10.7517 24.1906 10.7227ZM12.8263 36.9577C12.1984 37.0116 11.7352 37.5333 11.7931 38.1171C11.851 38.7009 12.4121 39.1315 13.04 39.0777H44.96C45.3697 39.0819 45.7527 38.8831 45.962 38.5519C46.1668 38.2206 46.1668 37.8148 45.962 37.4836C45.7527 37.1523 45.3697 36.9536 44.96 36.9577H13.04C13.0044 36.9577 12.9688 36.9577 12.9331 36.9577C12.8975 36.9577 12.8619 36.9577 12.8263 36.9577Z" fill="#37928B"/>
</svg>
