<svg width="40" height="52" viewBox="0 0 40 52" fill="none" xmlns="http://www.w3.org/2000/svg">
<path d="M27.6333 8.81743H28.1333V8.31743V5.97561V5.47561H27.6333H25.2915H24.7915V5.97561V8.31743V8.81743H25.2915H27.6333ZM31.9964 8.81743H32.4964V8.31743V5.97561V5.47561H31.9964H29.6546H29.1546V5.97561V8.31743V8.81743H29.6546H31.9964ZM39.1704 10.0958H0.82959V0.999878H39.1704V10.0958Z" fill="#37928B" stroke="#37928B"/>
<path d="M11.8503 29.6017C11.8503 25.114 15.5015 21.4629 19.9892 21.4629C24.4768 21.4629 28.1279 25.1139 28.128 29.6017C28.128 34.0894 24.4768 37.7405 19.9892 37.7405C15.5015 37.7405 11.8503 34.0894 11.8503 29.6017Z" fill="white" stroke="#37928B"/>
<path d="M33.5774 46.5368H34.0774V46.0368V42.3398V41.8398H33.5774H28.0725H27.5725V42.3398V46.0368V46.5368H28.0725H33.5774ZM39.1704 51.0001H0.82959V14.2184H39.1704V51.0001ZM19.9999 17.3401C13.2385 17.3401 7.73868 22.8399 7.73868 29.6014C7.73868 36.3628 13.2385 41.8626 19.9999 41.8626C26.7613 41.8626 32.2611 36.3629 32.2611 29.6014C32.2611 22.8399 26.7613 17.3401 19.9999 17.3401Z" fill="#37928B" stroke="#37928B"/>
</svg>
