<svg width="39" height="56" viewBox="0 0 39 56" fill="none" xmlns="http://www.w3.org/2000/svg">
<path d="M23.1034 18.897C22.9122 18.218 22.5233 17.62 22.004 17.1703C21.3768 16.6262 20.5595 16.2969 19.6669 16.2969C18.7733 16.2969 17.956 16.6262 17.3288 17.1714C16.8106 17.6211 16.4216 18.218 16.2305 18.8958C16.1428 19.205 16.0956 19.5309 16.0956 19.8682C16.0956 21.4172 17.0882 22.7414 18.472 23.2339C18.8452 23.3676 19.2477 23.4396 19.6669 23.4396C20.0851 23.4396 20.4875 23.3676 20.8607 23.2339C22.2445 22.7415 23.2383 21.4184 23.2383 19.8682C23.2383 19.5322 23.191 19.2062 23.1034 18.897Z" fill="#37928B"/>
<path d="M38.8326 19.6663C38.8326 9.0973 30.2342 0.5 19.6663 0.5C9.09729 0.5 0.5 9.0973 0.5 19.6663C0.5 29.5687 8.04961 37.7422 17.6958 38.7326V45.5763H17.1C13.586 45.5763 10.7262 48.436 10.7262 51.95V55.5H28.0377V51.95C28.0377 48.436 25.1779 45.5763 21.6639 45.5763H21.0682V38.7809C30.984 38.0615 38.8326 29.7632 38.8326 19.6663ZM22.6868 49.8479V51.5532H20.9815V49.8479H22.6868ZM19.6663 26.8123C18.54 26.8123 17.4765 26.5425 16.5345 26.0648L14.0131 29.7474C13.387 30.6625 12.3876 31.1874 11.2725 31.1874C9.54578 31.1874 7.77869 29.9857 6.66247 28.0522L5.90149 26.7348C4.82341 24.8665 4.64025 22.7824 5.42379 21.2974C5.97121 20.2565 6.95036 19.609 8.10816 19.5202L12.7587 19.1639C12.9734 17.0404 14.1492 15.1957 15.8444 14.075L13.7613 9.73022C13.2588 8.68254 13.3308 7.51121 13.957 6.51638C14.8518 5.09433 16.7482 4.21196 18.9053 4.21196H20.4263C22.5836 4.21196 24.4799 5.09443 25.3747 6.51638C26.002 7.51121 26.0727 8.68254 25.5703 9.73022L23.4885 14.075C25.1837 15.1957 26.3596 17.0405 26.5742 19.1639L31.2235 19.5202C32.3814 19.6091 33.3605 20.2565 33.9091 21.2974C34.6926 22.7824 34.5093 24.8665 33.4302 26.7348L32.6703 28.0522C31.5529 29.9857 29.7869 31.1874 28.0591 31.1874C26.9439 31.1874 25.9458 30.6625 25.3184 29.7474L22.7981 26.0648C21.8561 26.5426 20.7927 26.8123 19.6663 26.8123Z" fill="#37928B"/>
<path d="M30.943 22.8803L26.0968 22.5082C25.9024 22.9792 25.6573 23.4255 25.3684 23.8381L28.091 27.8152C28.4451 27.7951 29.1994 27.333 29.7581 26.3662L30.518 25.0488C31.125 23.9977 31.0734 23.1253 30.943 22.8803Z" fill="#37928B"/>
<path d="M20.4305 7.58423H18.9095C17.6966 7.58423 16.9659 8.06419 16.8197 8.3003L19.05 12.9531C19.2546 12.9339 19.4614 12.9249 19.6705 12.9249C19.8795 12.9249 20.0864 12.9339 20.2909 12.9531L22.52 8.3003C22.3741 8.06419 21.6446 7.58423 20.4305 7.58423Z" fill="#37928B"/>
<path d="M13.2459 22.5082L8.39981 22.8803C8.26833 23.1253 8.21773 23.9977 8.82477 25.0487L9.58468 26.3661C10.1434 27.3329 10.8965 27.7948 11.2518 27.8151L13.9744 23.838C13.6855 23.4255 13.4404 22.9792 13.2459 22.5082Z" fill="#37928B"/>
</svg>
